<svg width="128" height="128" viewBox="0 0 128 128" fill="none" xmlns="http://www.w3.org/2000/svg">
<path d="M63.975 125.09C47.658 125.09 32.317 118.735 20.778 107.197C9.23901 95.659 2.88501 80.318 2.88501 64C2.88501 47.682 9.24001 32.341 20.778 20.803C32.316 9.265 47.657 2.91 63.975 2.91C80.293 2.91 95.634 9.265 107.173 20.803C118.712 32.341 125.065 47.682 125.065 64C125.065 80.318 118.71 95.659 107.172 107.198C95.634 118.737 80.293 125.09 63.975 125.09Z" fill="white"/>
<path opacity="0.9" d="M63.974 63.784H125.064M63.974 63.784L107.171 20.588M63.974 63.784V2.694M63.974 63.784L20.778 20.588M63.974 63.784H2.884M63.974 63.784L20.778 106.981M63.974 63.784V124.874M63.974 63.784L107.171 106.981" stroke="#2E31FF" stroke-width="0.856" stroke-miterlimit="7.976" stroke-linecap="round" stroke-linejoin="round" stroke-dasharray="0.41 0.81"/>
<path opacity="0.9" d="M70.764 63.784L70.562 62.141L69.969 60.598L69.02 59.243L67.77 58.158L66.296 57.407L64.686 57.034L63.032 57.064L61.433 57.493L59.986 58.294L58.777 59.422L57.877 60.81L57.338 62.375L57.193 64.024L57.452 65.658L58.098 67.181L59.092 68.502L60.378 69.543L61.878 70.241L63.501 70.557L65.154 70.471L66.736 69.987L68.154 69.135L69.324 67.965L70.175 66.548L70.659 64.966L70.764 63.784Z" stroke="#2E31FF" stroke-width="0.856" stroke-miterlimit="199.409" stroke-linecap="square" stroke-linejoin="round" stroke-dasharray="0.41 0.81"/>
<path opacity="0.9" d="M84.339 63.784L84.141 60.951L83.551 58.172L82.578 55.503L81.245 52.994L79.575 50.695L77.602 48.651L75.364 46.901L72.903 45.481L70.27 44.417L67.512 43.729L64.687 43.432L61.847 43.531L59.05 44.025L56.348 44.902L53.794 46.148L51.438 47.736L49.327 49.637L47.501 51.814L45.995 54.222L44.84 56.818L44.058 59.548L43.662 62.362V65.204L44.058 68.018L44.84 70.748L45.995 73.344L47.501 75.752L49.327 77.929L51.438 79.831L53.794 81.419L56.348 82.664L59.05 83.541L61.848 84.035L64.688 84.135L67.512 83.837L70.27 83.15L72.903 82.085L75.364 80.665L77.602 78.915L79.575 76.871L81.245 74.572L82.578 72.062L83.55 69.394L84.141 66.615L84.339 63.784Z" stroke="#2E31FF" stroke-width="0.856" stroke-miterlimit="199.409" stroke-linecap="square" stroke-linejoin="round" stroke-dasharray="0.41 0.81"/>
<path opacity="0.9" d="M97.914 63.784L97.729 60.236L97.174 56.727L96.254 53.297L94.982 49.98L93.369 46.814L91.434 43.836L89.198 41.074L86.686 38.563L83.925 36.327L80.946 34.392L77.781 32.779L74.464 31.506L71.034 30.587L67.524 30.032L63.976 29.847L60.428 30.032L56.92 30.587L53.49 31.507L50.172 32.779L47.007 34.392L44.028 36.327L41.267 38.563L38.755 41.074L36.519 43.836L34.584 46.814L32.971 49.98L31.698 53.297L30.779 56.727L30.224 60.236L30.039 63.784L30.224 67.332L30.779 70.841L31.699 74.271L32.971 77.588L34.584 80.754L36.519 83.732L38.755 86.494L41.267 89.005L44.028 91.241L47.007 93.176L50.172 94.79L53.489 96.062L56.919 96.982L60.429 97.537L63.976 97.722L67.525 97.537L71.033 96.981L74.463 96.062L77.781 94.79L80.946 93.176L83.925 91.241L86.686 89.005L89.198 86.494L91.434 83.732L93.369 80.754L94.982 77.588L96.254 74.271L97.174 70.841L97.729 67.332L97.914 63.784Z" stroke="#2E31FF" stroke-width="0.856" stroke-miterlimit="199.409" stroke-linecap="square" stroke-linejoin="round" stroke-dasharray="0.41 0.81"/>
<path opacity="0.9" d="M111.489 63.784L111.229 58.818L110.449 53.907L109.163 49.103L107.381 44.461L105.124 40.029L102.415 35.858L99.285 31.992L95.769 28.475L91.903 25.345L87.732 22.636L83.3 20.38L78.658 18.599L73.854 17.312L68.942 16.533L63.976 16.273L59.01 16.533L54.1 17.312L49.295 18.599L44.653 20.38L40.221 22.637L36.051 25.347L32.184 28.477L28.667 31.993L25.537 35.859L22.829 40.029L20.572 44.462L18.79 49.104L17.503 53.908L16.725 58.819L16.464 63.785L16.724 68.751L17.503 73.662L18.79 78.467L20.572 83.109L22.829 87.54L25.538 91.711L28.668 95.577L32.184 99.094L36.05 102.224L40.221 104.933L44.653 107.19L49.295 108.971L54.099 110.259L59.01 111.037L63.976 111.297L68.942 111.037L73.854 110.259L78.658 108.971L83.3 107.19L87.732 104.933L91.902 102.223L95.769 99.094L99.285 95.577L102.415 91.711L105.125 87.541L107.381 83.109L109.163 78.467L110.45 73.662L111.228 68.752L111.489 63.784Z" stroke="#2E31FF" stroke-width="0.856" stroke-miterlimit="199.409" stroke-linecap="square" stroke-linejoin="round" stroke-dasharray="0.41 0.81"/>
<path d="M64 126C47.44 126 31.87 119.551 20.16 107.841C8.45 96.131 2 80.561 2 64C2 47.439 8.449 31.87 20.159 20.159C31.869 8.448 47.439 2 64 2C80.561 2 96.131 8.449 107.841 20.159C119.551 31.869 126 47.439 126 64C126 80.561 119.551 96.131 107.841 107.841C96.131 119.551 80.561 126 64 126ZM64 3.82C47.926 3.82 32.813 10.08 21.447 21.446C10.08 32.813 3.82 47.925 3.82 64C3.82 80.075 10.08 95.188 21.446 106.554C32.812 117.92 47.925 124.18 64 124.18C80.075 124.18 95.188 117.92 106.554 106.554C117.92 95.188 124.18 80.075 124.18 64C124.18 47.925 117.92 32.813 106.554 21.446C95.187 10.08 80.075 3.82 64 3.82Z" fill="#2E31FF"/>
<path opacity="0.6" d="M63.975 63.784L64.104 63.742L64.233 63.7L64.362 63.658L64.491 63.616L64.62 63.574L64.749 63.532L64.878 63.49L65.007 63.448L65.136 63.406L65.265 63.364L65.394 63.322L65.523 63.28L65.652 63.238L65.781 63.196L65.91 63.154L66.039 63.112L66.168 63.07L66.297 63.028L66.426 62.986L66.555 62.944L66.684 62.902L66.813 62.86L66.942 62.818L67.071 62.776L67.2 62.734L67.329 62.692L67.458 62.65L67.587 62.608L67.716 62.566L67.845 62.524L67.974 62.482L68.103 62.44L68.232 62.398L68.361 62.356L68.49 62.314L68.619 62.272L68.748 62.23L68.877 62.188L69.006 62.146L69.135 62.104L69.264 62.062L69.393 62.02L69.522 61.978L69.651 61.936L69.78 61.894L69.909 61.852L70.038 61.81L70.167 61.768L70.296 61.726L70.425 61.684L70.554 61.642L70.683 61.6L70.812 61.558L70.941 61.516L71.07 61.474L71.199 61.432L71.328 61.39L71.457 61.348L71.586 61.306L71.715 61.264L71.844 61.222L71.973 61.18L72.102 61.138L72.231 61.096L72.36 61.054L72.489 61.012L72.618 60.97L72.747 60.928L72.876 60.886L73.005 60.844L73.134 60.802L73.263 60.76L73.392 60.718L73.521 60.676L73.65 60.634L73.779 60.592L73.908 60.55L74.037 60.508L74.166 60.466L74.295 60.424L74.424 60.382L74.553 60.34L74.682 60.298L74.811 60.256L74.94 60.214L75.069 60.172L75.198 60.13L75.327 60.088L75.456 60.046L75.585 60.004L75.714 59.962L75.843 59.92L75.972 59.878L76.101 59.836L76.23 59.794L76.359 59.752L76.488 59.71L76.617 59.668L76.746 59.626L76.875 59.584L76.9 59.63L76.913 59.671L76.926 59.712L76.939 59.753L76.952 59.794L76.965 59.835L76.977 59.876L76.989 59.917L77 59.956L77.012 59.997L77.024 60.038L77.036 60.079L77.048 60.12L77.059 60.161L77.07 60.202L77.081 60.243L77.092 60.284L77.103 60.325L77.114 60.366L77.125 60.407L77.136 60.448L77.146 60.489L77.156 60.53L77.166 60.571L77.176 60.612L77.186 60.653L77.196 60.695L77.206 60.737L77.215 60.779L77.224 60.821L77.233 60.863L77.242 60.905L77.251 60.947L77.26 60.989L77.269 61.031L77.278 61.073L77.287 61.115L77.295 61.157L77.303 61.199L77.311 61.241L77.319 61.283L77.327 61.325L77.335 61.367L77.342 61.409L77.349 61.451L77.356 61.493L77.363 61.535L77.37 61.577L77.377 61.619L77.384 61.661L77.391 61.703L77.398 61.745L77.404 61.787L77.41 61.829L77.416 61.871L77.422 61.913L77.428 61.955L77.434 61.997L77.44 62.039L77.445 62.081L77.45 62.123L77.455 62.165L77.46 62.207L77.465 62.249L77.47 62.291L77.475 62.333L77.48 62.375L77.484 62.417L77.488 62.459L77.492 62.501L77.496 62.543L77.5 62.585L77.504 62.627L77.508 62.67L77.511 62.713L77.514 62.756L77.517 62.799L77.52 62.842L77.523 62.885L77.526 62.928L77.529 62.971L77.532 63.014L77.534 63.057L77.536 63.1L77.538 63.143L77.54 63.186L77.542 63.229L77.544 63.272L77.546 63.315L77.547 63.358L77.548 63.401L77.549 63.444L77.55 63.487L77.551 63.53L77.552 63.573L77.553 63.616V63.788H64.11L63.975 63.784Z" fill="#004CFF"/>
<path opacity="0.6" d="M63.975 63.784L64.118 63.403L64.261 63.022L64.404 62.641L64.547 62.26L64.69 61.879L64.833 61.498L64.976 61.117L65.119 60.736L65.262 60.355L65.405 59.974L65.548 59.593L65.691 59.212L65.834 58.831L65.977 58.45L66.12 58.069L66.263 57.688L66.406 57.307L66.549 56.926L66.692 56.545L66.835 56.164L66.978 55.783L67.121 55.402L67.264 55.021L67.407 54.64L67.55 54.259L67.693 53.878L67.836 53.497L67.979 53.116L68.122 52.735L68.265 52.354L68.408 51.973L68.551 51.592L68.694 51.211L68.837 50.83L68.98 50.449L69.123 50.068L69.266 49.687L69.409 49.306L69.552 48.925L69.695 48.544L69.838 48.163L69.981 47.782L70.124 47.401L70.267 47.02L70.41 46.639L70.553 46.258L70.696 45.877L70.839 45.496L70.982 45.115L71.125 44.734L71.268 44.353L71.411 43.972L71.554 43.591L71.697 43.21L71.84 42.829L71.983 42.448L72.126 42.067L72.269 41.686L72.412 41.305L72.555 40.924L72.698 40.543L72.841 40.162L72.984 39.781L73.127 39.4L73.27 39.019L73.413 38.638L73.556 38.257L73.699 37.876L73.842 37.495L73.985 37.114L74.128 36.733L74.271 36.352L74.414 35.971L74.557 35.59L74.7 35.209L74.843 34.828L74.986 34.447L75.129 34.066L75.272 33.685L75.415 33.304L75.558 32.923L75.701 32.542L75.844 32.161L75.987 31.78L76.13 31.399L76.273 31.018L76.416 30.637L76.559 30.256L76.702 29.875L76.845 29.494L76.988 29.113L77.131 28.732L77.274 28.351L77.417 27.97L77.56 27.589L77.703 27.208L77.846 26.827L78 26.416L78.143 26.035L78.286 25.654L78.406 25.699L78.526 25.745L78.645 25.791L78.764 25.837L78.883 25.884L79.002 25.931L79.121 25.978L79.24 26.026L79.359 26.074L79.477 26.123L79.595 26.172L79.713 26.221L79.831 26.271L79.949 26.321L80.067 26.371L80.184 26.422L80.301 26.473L80.418 26.524L80.535 26.576L80.652 26.628L80.769 26.681L80.885 26.734L81.001 26.787L81.117 26.841L81.233 26.895L81.349 26.949L81.465 27.004L81.58 27.059L81.695 27.114L81.81 27.17L81.925 27.226L82.04 27.283L82.155 27.34L82.269 27.397L82.383 27.455L82.497 27.513L82.611 27.571L82.725 27.63L82.838 27.689L82.951 27.748L83.064 27.808L83.177 27.868L83.29 27.929L83.403 27.99L83.515 28.051L83.627 28.113L83.739 28.175L83.851 28.237L83.963 28.3L84.074 28.363L84.185 28.426L84.296 28.49L84.407 28.554L84.518 28.618L84.628 28.683L84.738 28.748L84.848 28.813L84.958 28.879L85.068 28.945L85.177 29.011L85.286 29.078L85.395 29.145L85.504 29.212L85.612 29.28L85.72 29.348L85.828 29.416L85.936 29.485L86.044 29.554L86.151 29.623L86.258 29.693L86.365 29.763L86.472 29.834L86.579 29.905L86.685 29.976L86.791 30.048L86.897 30.12L87.003 30.192L87.108 30.265L87.213 30.338L87.318 30.411L87.423 30.485L87.527 30.559L87.631 30.633L87.735 30.707L87.839 30.782L87.943 30.857L88.046 30.932L88.149 31.008L88.252 31.084L88.355 31.16L88.457 31.237L88.559 31.314L88.661 31.391L88.763 31.469L88.864 31.547L88.965 31.625L89.066 31.704L89.167 31.783L89.267 31.862L89.367 31.942L89.113 32.26L88.859 32.578L88.605 32.896L88.351 33.214L88.097 33.532L87.843 33.85L87.589 34.168L87.335 34.486L87.081 34.804L86.827 35.122L86.573 35.44L86.319 35.758L86.065 36.076L85.813 36.4L85.559 36.718L85.305 37.036L85.051 37.354L84.797 37.672L84.543 37.99L84.29 38.31L84.036 38.628L83.782 38.946L83.528 39.264L83.274 39.582L83.02 39.9L82.766 40.218L82.512 40.536L82.258 40.854L82.004 41.172L81.75 41.49L81.496 41.808L81.242 42.126L80.988 42.444L80.734 42.762L80.48 43.08L80.226 43.398L79.972 43.716L79.718 44.034L79.464 44.352L79.21 44.67L78.956 44.988L78.702 45.306L78.448 45.624L78.194 45.942L77.94 46.26L77.686 46.578L77.432 46.896L77.178 47.214L76.924 47.532L76.67 47.85L76.416 48.168L76.164 48.5L75.91 48.818L75.656 49.136L75.402 49.454L75.148 49.772L74.894 50.09L74.64 50.41L74.386 50.728L74.132 51.046L73.878 51.364L73.624 51.682L73.37 52L73.116 52.318L72.862 52.636L72.608 52.954L72.354 53.272L72.1 53.59L71.846 53.908L71.592 54.226L71.338 54.544L71.084 54.862L70.83 55.18L70.576 55.498L70.322 55.816L70.068 56.134L69.814 56.452L69.56 56.77L69.306 57.088L69.052 57.406L68.8 57.734L68.546 58.052L68.292 58.37L68.038 58.688L67.784 59.006L67.53 59.324L67.276 59.642L67.022 59.96L66.768 60.278L66.514 60.596L66.26 60.914L66.006 61.232L65.752 61.55L65.498 61.868L65.244 62.186L64.99 62.504L64.736 62.822L64.482 63.14L64.228 63.458L63.975 63.784Z" fill="#7936FF"/>
<path opacity="0.6" d="M63.975 63.784L63.627 63.367L63.279 62.95L62.931 62.533L62.583 62.116L62.235 61.699L61.887 61.282L61.539 60.865L61.191 60.448L60.843 60.031L60.495 59.614L60.147 59.197L59.799 58.78L59.451 58.363L59.103 57.946L58.755 57.529L58.407 57.112L58.059 56.695L57.711 56.278L57.363 55.861L57.015 55.444L56.667 55.027L56.319 54.61L55.971 54.193L55.623 53.776L55.275 53.359L54.927 52.942L54.579 52.525L54.231 52.108L53.883 51.691L53.535 51.274L53.187 50.857L52.839 50.44L52.491 50.023L52.143 49.606L51.795 49.189L51.447 48.772L51.099 48.355L50.751 47.938L50.403 47.521L50.055 47.104L49.707 46.687L49.359 46.27L49.011 45.853L48.663 45.436L48.315 45.019L47.967 44.602L47.619 44.185L47.271 43.768L46.923 43.351L46.575 42.934L46.227 42.517L45.879 42.1L45.531 41.683L45.183 41.266L44.835 40.849L44.487 40.432L44.139 40.015L43.791 39.598L43.443 39.181L43.095 38.764L42.747 38.347L42.399 37.93L42.051 37.513L41.703 37.096L41.355 36.679L41.007 36.262L40.659 35.845L40.311 35.428L39.963 35.011L39.615 34.594L39.267 34.177L38.919 33.76L38.571 33.343L38.223 32.926L37.875 32.509L37.527 32.092L37.179 31.675L36.831 31.258L36.483 30.841L36.135 30.424L35.787 30.007L35.439 29.59L35.091 29.173L34.743 28.756L34.395 28.339L34.047 27.922L33.699 27.505L33.351 27.088L33.003 26.671L32.655 26.254L32.307 25.837L31.959 25.42L31.611 25.003L31.262 24.6L30.914 24.183L30.566 23.766L30.218 23.349L29.87 22.932L29.522 22.515L29.174 22.098L29.371 21.934L29.569 21.771L29.767 21.609L29.966 21.448L30.166 21.288L30.367 21.129L30.568 20.971L30.77 20.814L30.973 20.658L31.177 20.503L31.381 20.349L31.586 20.196L31.792 20.044L31.998 19.893L32.205 19.743L32.413 19.594L32.622 19.446L32.831 19.299L33.041 19.153L33.252 19.008L33.463 18.864L33.675 18.721L33.888 18.579L34.101 18.438L34.315 18.298L34.53 18.159L34.745 18.021L34.961 17.884L35.178 17.748L35.395 17.613L35.613 17.479L35.832 17.346L36.051 17.214L36.271 17.083L36.491 16.953L36.712 16.824L36.934 16.696L37.156 16.569L37.379 16.443L37.602 16.318L37.826 16.194L38.051 16.071L38.276 15.949L38.502 15.828L38.728 15.708L38.955 15.59L39.182 15.473L39.41 15.357L39.638 15.242L39.867 15.128L40.097 15.015L40.327 14.903L40.558 14.792L40.789 14.682L41.021 14.573L41.253 14.465L41.486 14.358L41.719 14.253L41.953 14.149L42.187 14.046L42.422 13.944L42.657 13.843L42.893 13.743L43.129 13.644L43.366 13.546L43.603 13.449L43.84 13.354L44.078 13.26L44.316 13.167L44.555 13.075L44.794 12.984L45.034 12.894L45.274 12.805L45.514 12.717L45.755 12.631L45.996 12.546L46.238 12.462L46.48 12.379L46.722 12.297L46.965 12.216L47.208 12.136L47.452 12.058L47.696 11.981L47.94 11.905L48.185 11.83L48.43 11.756L48.675 11.683L48.921 11.611L49.167 11.541L49.413 11.472L49.66 11.404L49.907 11.337L50.154 11.271L50.402 11.206L50.65 11.143L50.898 11.081L51.147 11.02L51.396 10.96L51.645 10.901L51.894 10.843L52.015 11.372L52.136 11.901L52.257 12.43L52.378 12.959L52.499 13.488L52.62 14.017L52.741 14.546L52.862 15.075L52.983 15.604L53.104 16.133L53.225 16.662L53.346 17.191L53.467 17.72L53.588 18.249L53.709 18.778L53.83 19.307L53.951 19.836L54.072 20.365L54.193 20.894L54.314 21.423L54.435 21.952L54.556 22.481L54.677 23.01L54.798 23.539L54.919 24.068L55.04 24.597L55.161 25.126L55.282 25.655L55.403 26.184L55.524 26.713L55.645 27.242L55.766 27.771L55.887 28.3L56 28.843L56.121 29.372L56.242 29.901L56.363 30.43L56.484 30.959L56.605 31.488L56.726 32.017L56.847 32.546L56.968 33.075L57.089 33.604L57.21 34.133L57.331 34.662L57.452 35.191L57.573 35.72L57.694 36.249L57.815 36.778L57.936 37.307L58.057 37.836L58.178 38.365L58.299 38.894L58.42 39.423L58.541 39.952L58.662 40.481L58.783 41.01L58.904 41.539L59.025 42.068L59.146 42.597L59.267 43.126L59.388 43.655L59.509 44.184L59.63 44.713L59.751 45.242L59.872 45.771L59.993 46.3L60.114 46.829L60.235 47.358L60.356 47.887L60.477 48.416L60.598 48.945L60.719 49.474L60.84 50.003L60.961 50.532L61.082 51.061L61.203 51.59L61.324 52.119L61.445 52.648L61.566 53.177L61.687 53.706L61.808 54.235L61.929 54.764L62.05 55.293L62.171 55.822L62.292 56.351L62.413 56.88L62.534 57.409L62.655 57.938L62.776 58.467L62.897 58.996L63.018 59.525L63.139 60.054L63.26 60.583L63.381 61.112L63.502 61.641L63.623 62.17L63.744 62.699L63.865 63.228L63.975 63.784Z" fill="#2E31FF"/>
<path opacity="0.6" d="M63.975 63.784L63.507 63.869L63.039 63.954L62.571 64.039L62.103 64.124L61.635 64.209L61.167 64.294L60.699 64.379L60.231 64.464L59.763 64.549L59.3 64.632L58.832 64.717L58.364 64.802L57.896 64.887L57.428 64.972L56.96 65.057L56.492 65.142L56.024 65.227L55.556 65.312L55.088 65.397L54.62 65.482L54.152 65.567L53.69 65.65L53.222 65.735L52.754 65.82L52.286 65.905L51.82 65.99L51.352 66.075L50.884 66.16L50.416 66.245L49.948 66.33L49.48 66.415L49.012 66.5L48.544 66.585L48.076 66.67L47.608 66.755L47.14 66.84L46.672 66.925L46.204 67.01L45.736 67.095L45.268 67.18L44.8 67.265L44.332 67.35L43.864 67.435L43.396 67.52L42.928 67.605L42.46 67.69L41.992 67.775L41.524 67.86L41.056 67.945L40.6 68.026L40.132 68.111L39.664 68.196L39.196 68.281L38.728 68.366L38.26 68.451L37.792 68.536L37.324 68.621L36.856 68.706L36.388 68.791L35.92 68.876L35.452 68.961L34.984 69.046L34.516 69.131L34.048 69.216L33.58 69.301L33.112 69.386L32.644 69.471L32.176 69.556L31.708 69.641L31.24 69.726L30.772 69.811L30.304 69.896L29.836 69.981L29.368 70.066L28.9 70.151L28.432 70.236L27.964 70.321L27.496 70.406L27.028 70.491L26.56 70.576L26.092 70.661L25.624 70.746L25.156 70.831L24.688 70.916L24.22 71.001L23.77 71.08L23.302 71.165L22.834 71.25L22.366 71.335L21.9 71.42L21.432 71.505L20.964 71.59L20.496 71.675L20.028 71.76L19.56 71.845L19.092 71.93L18.624 72.015L18.156 72.1L17.688 72.185L17.22 72.27L17.168 71.976L17.117 71.682L17.068 71.387L17.021 71.092L16.976 70.797L16.938 70.5L16.897 70.204L16.858 69.908L16.82 69.612L16.784 69.316L16.75 69.019L16.718 68.722L16.688 68.425L16.66 68.128L16.634 67.831L16.61 67.533L16.587 67.235L16.566 66.937L16.547 66.639L16.53 66.341L16.515 66.043L16.502 65.745L16.491 65.447L16.482 65.149L16.474 64.851L16.468 64.553L16.464 64.254L16.462 63.955V63.656L16.464 63.357L16.468 63.058L16.473 62.76L16.48 62.462L16.489 62.164L16.5 61.866L16.513 61.568L16.528 61.27L16.545 60.972L16.564 60.674L16.584 60.376L16.606 60.078L16.63 59.78L16.656 59.483L16.684 59.186L16.714 58.889L16.746 58.592L16.78 58.295L16.815 57.999L16.852 57.703L16.891 57.407L16.932 57.111L16.975 56.816L17.02 56.521L17.067 56.226L17.115 55.931L17.165 55.637L17.217 55.343L17.271 55.049L17.327 54.756L17.385 54.463L17.444 54.17L17.505 53.878L17.568 53.586L17.633 53.295L17.7 53.004L17.769 52.713L17.839 52.423L17.911 52.133L17.985 51.844L18.061 51.555L18.139 51.267L18.219 50.979L18.3 50.692L18.383 50.405L18.468 50.119L18.555 49.833L18.644 49.548L18.734 49.263L18.826 48.979L18.92 48.696L19.016 48.413L19.113 48.131L19.212 47.849L19.313 47.568L19.416 47.288L19.521 47.008L19.627 46.729L19.735 46.451L19.845 46.173L19.957 45.896L20.07 45.62L20.185 45.344L20.302 45.069L20.42 44.795L20.54 44.522L20.662 44.249L20.786 43.977L20.911 43.706L21.038 43.436L21.167 43.167L21.595 43.373L22.023 43.579L22.451 43.785L22.879 43.991L23.307 44.197L23.735 44.403L24.163 44.609L24.591 44.815L25.019 45.021L25.447 45.227L25.875 45.433L26.303 45.639L26.731 45.845L27.159 46.051L27.587 46.257L28.015 46.463L28.443 46.669L28.871 46.875L29.299 47.081L29.727 47.287L30.155 47.493L30.583 47.699L31.011 47.905L31.439 48.111L31.867 48.317L32.295 48.523L32.723 48.729L33.151 48.935L33.579 49.141L34.007 49.347L34.435 49.553L34.863 49.759L35.291 49.965L35.719 50.171L36.147 50.377L36.575 50.583L37.003 50.789L37.431 50.995L37.859 51.201L38.287 51.407L38.715 51.613L39.143 51.819L39.571 52.025L39.999 52.231L40.427 52.437L40.855 52.643L41.283 52.849L41.711 53.055L42.139 53.261L42.567 53.467L42.995 53.673L43.423 53.879L43.851 54.085L44.279 54.291L44.707 54.497L45.135 54.703L45.563 54.909L45.991 55.115L46.419 55.321L46.847 55.527L47.275 55.733L47.703 55.939L48.131 56.145L48.559 56.351L48.987 56.557L49.415 56.763L49.843 56.969L50.271 57.175L50.699 57.381L51.127 57.587L51.555 57.793L51.983 57.999L52.411 58.205L52.839 58.411L53.267 58.617L53.695 58.823L54.123 59.029L54.551 59.235L54.979 59.441L55.407 59.647L55.835 59.853L56.263 60.059L56.691 60.265L57.119 60.471L57.547 60.677L57.975 60.883L58.403 61.089L58.831 61.295L59.259 61.501L59.687 61.707L60.115 61.913L60.543 62.119L60.971 62.325L61.399 62.531L61.827 62.737L62.255 62.943L62.683 63.149L63.111 63.355L63.539 63.561L63.975 63.784Z" fill="#48B3FF"/>
<path opacity="0.6" d="M63.975 63.784L63.752 63.939L63.529 64.094L63.306 64.249L63.083 64.404L62.86 64.559L62.637 64.714L62.414 64.869L62.19 65.02L61.967 65.175L61.744 65.33L61.521 65.485L61.298 65.64L61.075 65.795L60.852 65.95L60.629 66.105L60.406 66.26L60.183 66.415L59.96 66.57L59.737 66.725L59.514 66.88L59.291 67.035L59.068 67.19L58.845 67.345L58.622 67.5L58.399 67.655L58.176 67.81L57.953 67.965L57.73 68.12L57.507 68.275L57.284 68.43L57.061 68.585L56.838 68.74L56.615 68.895L56.392 69.05L56.169 69.205L55.946 69.36L55.723 69.515L55.5 69.67L55.277 69.825L55.054 69.98L54.831 70.135L54.608 70.29L54.385 70.445L54.162 70.6L53.939 70.755L53.716 70.91L53.493 71.065L53.27 71.22L53.047 71.375L52.824 71.53L52.601 71.685L52.378 71.84L52.155 71.995L51.932 72.15L51.7 72.287L51.477 72.442L51.254 72.597L51.031 72.752L50.808 72.907L50.585 73.062L50.362 73.217L50.139 73.372L49.916 73.527L49.693 73.682L49.47 73.837L49.247 73.992L49.024 74.147L48.801 74.302L48.578 74.457L48.355 74.612L48.132 74.767L47.909 74.922L47.686 75.077L47.463 75.232L47.24 75.387L47.017 75.542L46.794 75.697L46.571 75.852L46.348 76.007L46.125 76.162L45.902 76.317L45.679 76.472L45.456 76.627L45.233 76.782L45.01 76.937L44.787 77.092L44.564 77.247L44.341 77.402L44.118 77.557L43.895 77.712L43.672 77.867L43.449 78.022L43.226 78.177L43.003 78.332L42.78 78.487L42.557 78.642L42.334 78.797L42.111 78.952L41.88 79.09L41.657 79.245L41.633 79.21L41.609 79.175L41.585 79.14L41.561 79.105L41.537 79.07L41.513 79.035L41.489 79L41.465 78.965L41.441 78.93L41.417 78.895L41.393 78.86L41.369 78.825L41.345 78.789L41.321 78.753L41.298 78.717L41.275 78.681L41.252 78.645L41.229 78.609L41.206 78.573L41.183 78.537L41.16 78.501L41.137 78.465L41.114 78.429L41.091 78.393L41.068 78.357L41.045 78.321L41.022 78.285L40.999 78.249L40.976 78.213L40.953 78.177L40.93 78.141L40.907 78.105L40.885 78.069L40.863 78.033L40.841 77.997L40.819 77.961L40.797 77.925L40.775 77.889L40.753 77.853L40.731 77.817L40.709 77.78L40.687 77.743L40.665 77.706L40.643 77.669L40.621 77.632L40.599 77.595L40.577 77.558L40.555 77.521L40.533 77.484L40.512 77.447L40.491 77.41L40.47 77.373L40.449 77.336L40.428 77.299L40.407 77.262L40.386 77.225L40.365 77.188L40.344 77.151L40.323 77.114L40.302 77.077L40.281 77.04L40.26 77.003L40.239 76.966L40.218 76.929L40.197 76.892L40.176 76.855L40.155 76.818L40.135 76.781L40.115 76.744L40.095 76.707L40.075 76.669L40.055 76.631L40.035 76.593L40.015 76.555L39.995 76.517L39.975 76.479L39.955 76.441L39.935 76.403L39.915 76.365L39.895 76.327L39.875 76.289L39.855 76.251L39.835 76.213L39.816 76.175L39.797 76.137L39.778 76.099L39.759 76.061L39.74 76.023L39.721 75.985L39.702 75.947L39.683 75.909L39.664 75.871L39.645 75.833L39.626 75.795L39.607 75.757L39.588 75.719L39.569 75.681L39.55 75.64L39.531 75.602L39.512 75.564L39.757 75.446L40.002 75.328L40.247 75.21L40.492 75.092L40.737 74.974L40.982 74.856L41.227 74.738L41.472 74.62L41.717 74.502L41.962 74.384L42.207 74.266L42.452 74.148L42.697 74.03L42.942 73.912L43.187 73.794L43.432 73.676L43.677 73.558L43.922 73.44L44.167 73.322L44.412 73.204L44.657 73.086L44.902 72.968L45.147 72.85L45.392 72.732L45.637 72.614L45.882 72.496L46.127 72.378L46.372 72.26L46.617 72.142L46.862 72.024L47.107 71.906L47.352 71.788L47.597 71.67L47.842 71.552L48.087 71.434L48.332 71.316L48.577 71.198L48.822 71.08L49.067 70.962L49.312 70.844L49.557 70.726L49.802 70.608L50.047 70.49L50.292 70.372L50.537 70.254L50.782 70.136L51.027 70.018L51.272 69.9L51.517 69.782L51.762 69.664L52.007 69.546L52.252 69.428L52.497 69.31L52.742 69.192L52.987 69.074L53.232 68.956L53.477 68.838L53.722 68.72L53.967 68.602L54.212 68.484L54.457 68.366L54.702 68.248L54.947 68.13L55.192 68.012L55.437 67.894L55.682 67.776L55.927 67.658L56.172 67.54L56.417 67.422L56.662 67.304L56.907 67.186L57.152 67.068L57.397 66.95L57.642 66.832L57.887 66.714L58.132 66.596L58.377 66.478L58.622 66.36L58.867 66.242L59.112 66.124L59.357 66.006L59.602 65.888L59.847 65.77L60.092 65.652L60.337 65.534L60.582 65.416L60.827 65.298L61.072 65.18L61.317 65.062L61.562 64.944L61.807 64.826L62.052 64.708L62.297 64.59L62.542 64.472L62.787 64.354L63.032 64.236L63.277 64.118L63.522 64L63.767 63.882L63.975 63.784Z" fill="#774AFF"/>
<path opacity="0.6" d="M63.975 63.784L64.032 64.119L64.089 64.454L64.146 64.789L64.203 65.124L64.26 65.459L64.317 65.794L64.374 66.129L64.431 66.464L64.488 66.799L64.545 67.134L64.602 67.469L64.659 67.804L64.716 68.139L64.773 68.474L64.83 68.809L64.887 69.144L64.944 69.479L65.001 69.814L65.058 70.149L65.115 70.484L65.172 70.819L65.229 71.154L65.286 71.489L65.343 71.824L65.4 72.159L65.457 72.494L65.514 72.829L65.571 73.164L65.628 73.499L65.685 73.834L65.742 74.169L65.799 74.504L65.856 74.839L65.913 75.174L65.97 75.509L66.027 75.844L66.084 76.179L66.141 76.514L66.198 76.849L66.255 77.184L66.312 77.519L66.369 77.854L66.426 78.189L66.483 78.524L66.54 78.859L66.597 79.194L66.654 79.529L66.711 79.864L66.768 80.199L66.825 80.534L66.882 80.869L66.939 81.204L66.996 81.539L67.053 81.874L67.11 82.209L67.167 82.544L67.224 82.879L67.281 83.214L67.338 83.549L67.395 83.884L67.452 84.219L67.509 84.554L67.566 84.889L67.623 85.224L67.68 85.559L67.737 85.894L67.794 86.229L67.851 86.564L67.908 86.899L67.965 87.234L68.022 87.569L68.079 87.904L68.136 88.239L68.193 88.574L68.25 88.909L68.307 89.244L68.364 89.579L68.421 89.914L68.478 90.249L68.535 90.584L68.592 90.919L68.649 91.254L68.706 91.589L68.763 91.924L68.82 92.259L68.877 92.594L68.934 92.929L68.991 93.264L69.048 93.599L69.105 93.934L69.162 94.269L69.219 94.604L69.276 94.939L69.333 95.274L69.39 95.609L69.447 95.944L69.504 96.279L69.561 96.614L69.618 96.949L69.675 97.284L69.544 97.306L69.412 97.328L69.28 97.349L69.148 97.37L69.016 97.39L68.884 97.409L68.752 97.428L68.62 97.446L68.488 97.464L68.356 97.481L68.224 97.498L68.092 97.514L67.96 97.53L67.828 97.545L67.696 97.56L67.564 97.574L67.431 97.588L67.298 97.601L67.165 97.614L67.032 97.626L66.899 97.638L66.766 97.649L66.633 97.66L66.5 97.67L66.367 97.68L66.234 97.689L66.101 97.698L65.968 97.706L65.835 97.713L65.702 97.72L65.569 97.727L65.436 97.733L65.303 97.738L65.17 97.743L65.037 97.747L64.904 97.751L64.771 97.754L64.638 97.757L64.505 97.759L64.372 97.761L64.239 97.762L64.106 97.763H63.84L63.707 97.762L63.574 97.761L63.441 97.759L63.308 97.757L63.175 97.754L63.042 97.751L62.909 97.747L62.756 97.7L62.623 97.695L62.49 97.69L62.357 97.684L62.224 97.677L62.09 97.67L61.957 97.662L61.824 97.654L61.691 97.645L61.558 97.636L61.425 97.626L61.292 97.616L61.159 97.605L61.026 97.594L60.893 97.582L60.76 97.57L60.627 97.557L60.494 97.544L60.361 97.53L60.229 97.515L60.099 97.5L59.967 97.485L59.835 97.469L59.703 97.452L59.571 97.435L59.439 97.417L59.307 97.399L59.175 97.38L59.043 97.361L58.911 97.341L58.779 97.321L58.647 97.3L58.515 97.279L58.384 97.257L58.253 97.235L58.122 97.212L57.991 97.189L57.86 97.165L57.729 97.141L57.598 97.116L57.467 97.091L57.336 97.065L57.205 97.039L57.074 97.012L56.944 96.985L56.814 96.957L56.684 96.929L56.554 96.9L56.424 96.871L56.5 96.54L56.576 96.209L56.652 95.878L56.728 95.547L56.804 95.216L56.88 94.885L56.956 94.554L57.032 94.223L57.108 93.892L57.184 93.561L57.26 93.23L57.336 92.899L57.412 92.568L57.488 92.237L57.564 91.906L57.64 91.575L57.716 91.244L57.792 90.913L57.868 90.582L57.944 90.251L58.02 89.92L58.096 89.589L58.172 89.258L58.248 88.927L58.324 88.596L58.4 88.265L58.476 87.934L58.552 87.603L58.628 87.272L58.704 86.941L58.78 86.61L58.856 86.279L58.932 85.948L59.008 85.617L59.084 85.286L59.16 84.955L59.236 84.624L59.312 84.293L59.388 83.962L59.464 83.631L59.54 83.3L59.616 82.969L59.692 82.638L59.768 82.307L59.844 81.976L59.92 81.645L59.996 81.314L60.072 80.983L60.148 80.652L60.224 80.321L60.3 79.99L60.376 79.659L60.452 79.328L60.528 78.997L60.604 78.666L60.68 78.335L60.756 78.004L60.832 77.673L60.908 77.342L60.984 77.011L61.06 76.68L61.136 76.349L61.212 76.018L61.288 75.687L61.364 75.356L61.44 75.025L61.516 74.694L61.592 74.363L61.668 74.032L61.744 73.701L61.82 73.37L61.896 73.039L61.972 72.708L62.048 72.377L62.124 72.046L62.2 71.715L62.276 71.384L62.352 71.053L62.428 70.722L62.504 70.391L62.58 70.06L62.656 69.729L62.732 69.398L62.808 69.067L62.884 68.736L62.96 68.405L63.036 68.074L63.112 67.743L63.188 67.412L63.264 67.081L63.34 66.75L63.416 66.419L63.492 66.088L63.568 65.757L63.644 65.426L63.72 65.095L63.796 64.764L63.872 64.433L63.948 64.102L63.975 63.784Z" fill="#06087D"/>
<path opacity="0.6" d="M63.975 63.784L64.403 64.118L64.831 64.452L65.259 64.786L65.687 65.12L66.115 65.454L66.543 65.788L66.971 66.122L67.399 66.456L67.827 66.79L68.255 67.124L68.683 67.458L69.111 67.792L69.539 68.126L69.967 68.46L70.4 68.79L70.828 69.124L71.256 69.458L71.684 69.792L72.112 70.126L72.54 70.46L72.968 70.794L73.396 71.128L73.824 71.462L74.252 71.796L74.68 72.13L75.108 72.464L75.536 72.798L75.964 73.132L76.392 73.466L76.82 73.8L77.248 74.134L77.676 74.468L78.104 74.802L78.532 75.136L78.96 75.47L79.388 75.804L79.816 76.138L80.244 76.472L80.672 76.806L81.1 77.14L81.528 77.474L81.956 77.808L82.384 78.142L82.812 78.476L83.24 78.81L83.668 79.144L84.096 79.478L84.524 79.812L84.952 80.146L85.38 80.48L85.808 80.814L86.236 81.148L86.664 81.482L87.092 81.816L87.52 82.15L87.948 82.484L88.376 82.818L88.804 83.152L89.232 83.486L89.66 83.82L90.088 84.154L90.516 84.488L90.944 84.822L91.372 85.156L91.8 85.49L92.228 85.824L92.656 86.158L93.084 86.492L93.512 86.826L93.94 87.16L94.368 87.494L94.796 87.828L95.224 88.162L95.652 88.496L96.08 88.83L96.508 89.164L96.936 89.498L97.364 89.832L97.792 90.166L98.22 90.5L98.648 90.834L99.076 91.168L99.504 91.502L99.932 91.836L100.36 92.17L100.788 92.504L101.216 92.838L101.644 93.172L102.072 93.506L102.5 93.84L102.928 94.174L103.356 94.508L103.784 94.842L104.212 95.176L104.64 95.51L105.068 95.844L105.496 96.178L105.924 96.512L106.352 96.846L106.78 97.18L106.701 97.281L106.622 97.382L106.543 97.482L106.464 97.582L106.384 97.682L106.304 97.782L106.224 97.882L106.144 97.982L106.063 98.081L105.982 98.18L105.901 98.279L105.82 98.378L105.738 98.477L105.656 98.575L105.574 98.673L105.492 98.771L105.409 98.869L105.326 98.967L105.243 99.064L105.16 99.161L105.077 99.258L104.993 99.355L104.909 99.452L104.825 99.548L104.741 99.644L104.656 99.74L104.571 99.836L104.486 99.932L104.401 100.027L104.316 100.122L104.23 100.217L104.144 100.312L104.058 100.407L103.972 100.501L103.885 100.595L103.798 100.689L103.711 100.783L103.624 100.877L103.537 100.97L103.449 101.063L103.361 101.156L103.273 101.249L103.185 101.342L103.096 101.434L103.007 101.526L102.918 101.618L102.829 101.71L102.74 101.802L102.65 101.893L102.56 101.984L102.47 102.075L102.38 102.166L102.29 102.256L102.199 102.346L102.108 102.436L102.017 102.526L101.926 102.616L101.834 102.705L101.742 102.794L101.65 102.883L101.558 102.972L101.466 103.061L101.373 103.149L101.28 103.237L101.187 103.325L101.094 103.413L101.001 103.5L100.907 103.587L100.813 103.674L100.719 103.761L100.625 103.848L100.531 103.934L100.463 104L100.368 104.086L100.273 104.172L100.178 104.257L100.083 104.342L99.987 104.427L99.891 104.512L99.795 104.596L99.699 104.68L99.603 104.764L99.506 104.848L99.409 104.932L99.312 105.015L99.215 105.098L99.118 105.181L99.02 105.264L98.922 105.346L98.824 105.428L98.726 105.51L98.628 105.592L98.529 105.674L98.43 105.755L98.331 105.836L98.232 105.917L98.133 105.998L98.033 106.078L97.933 106.158L97.833 106.238L97.494 105.813L97.156 105.389L96.817 104.964L96.478 104.539L96.139 104.114L95.8 103.689L95.461 103.264L95.122 102.839L94.783 102.414L94.444 101.989L94.105 101.564L93.766 101.139L93.427 100.714L93.088 100.289L92.749 99.864L92.41 99.439L92.071 99.014L91.732 98.589L91.393 98.164L91.054 97.739L90.715 97.314L90.376 96.889L90.037 96.464L89.698 96.039L89.359 95.614L89.029 95.2L88.69 94.775L88.351 94.35L88.012 93.925L87.673 93.5L87.334 93.075L86.995 92.65L86.656 92.225L86.317 91.8L85.978 91.375L85.639 90.95L85.3 90.525L84.961 90.1L84.622 89.675L84.283 89.25L83.944 88.825L83.605 88.4L83.266 87.975L82.927 87.55L82.588 87.125L82.249 86.7L81.91 86.275L81.571 85.85L81.232 85.425L80.893 85L80.554 84.575L80.215 84.15L79.876 83.725L79.537 83.3L79.198 82.875L78.859 82.45L78.52 82.025L78.181 81.6L77.842 81.175L77.503 80.75L77.164 80.325L76.825 79.9L76.486 79.475L76.147 79.05L75.808 78.625L75.469 78.2L75.13 77.775L74.791 77.35L74.452 76.925L74.113 76.5L73.774 76.075L73.435 75.65L73.096 75.225L72.757 74.8L72.418 74.375L72.079 73.95L71.74 73.525L71.401 73.1L71.062 72.675L70.723 72.25L70.384 71.825L70.045 71.4L69.706 70.975L69.367 70.55L69.028 70.125L68.689 69.7L68.35 69.275L68.011 68.85L67.672 68.425L67.333 68L66.994 67.575L66.655 67.15L66.316 66.725L65.977 66.3L65.638 65.875L65.299 65.45L64.96 65.025L64.621 64.6L64.282 64.175L63.975 63.784Z" fill="#2E31FF"/>
<path d="M77.551 64.198L63.975 64.197C63.8773 64.1958 63.7832 64.1601 63.7093 64.0962C63.6354 64.0324 63.5865 63.9444 63.5712 63.848C63.5559 63.7515 63.5752 63.6527 63.6256 63.5691C63.6761 63.4855 63.7545 63.4224 63.847 63.391L76.759 59.197C76.8106 59.1801 76.865 59.1736 76.9192 59.1778C76.9733 59.182 77.0261 59.1969 77.0744 59.2215C77.1228 59.2461 77.1659 59.28 77.2012 59.3213C77.2364 59.3625 77.2632 59.4104 77.28 59.462C77.735 60.86 77.965 62.315 77.964 63.785C77.964 63.8392 77.9533 63.8929 77.9326 63.943C77.9118 63.9931 77.8814 64.0387 77.843 64.077C77.8047 64.1154 77.7592 64.1458 77.709 64.1666C77.6589 64.1873 77.6052 64.198 77.551 64.198ZM66.586 63.37H77.131C77.0968 62.2666 76.9234 61.1719 76.615 60.112L66.586 63.37Z" fill="#2E31FF"/>
<path d="M63.975 64.197C63.9083 64.1968 63.8427 64.1805 63.7836 64.1495C63.7246 64.1185 63.6739 64.0737 63.6359 64.0189C63.5979 63.9641 63.5737 63.901 63.5654 63.8349C63.557 63.7687 63.5648 63.7015 63.588 63.639L77.899 25.51C77.9179 25.4591 77.9467 25.4124 77.9837 25.3726C78.0207 25.3329 78.0652 25.3008 78.1146 25.2783C78.1641 25.2558 78.2175 25.2434 78.2718 25.2416C78.3261 25.2398 78.3802 25.2488 78.431 25.268C82.4741 26.7823 86.2527 28.9257 89.627 31.619C89.7127 31.6874 89.7677 31.7869 89.7801 31.8959C89.7925 32.0048 89.7611 32.1142 89.693 32.2L64.298 64.041C64.2592 64.0895 64.2101 64.1287 64.1542 64.1557C64.0983 64.1827 64.0371 64.1968 63.975 64.197ZM78.527 26.189L65.28 61.484L88.787 32.009C85.6721 29.5746 82.2148 27.6135 78.527 26.189Z" fill="#2E31FF"/>
<path d="M63.975 64.197C63.9146 64.1969 63.8549 64.1836 63.8001 64.158C63.7454 64.1325 63.6969 64.0953 63.658 64.049L28.857 22.364C28.8221 22.3224 28.7957 22.2744 28.7794 22.2226C28.7631 22.1708 28.7571 22.1163 28.762 22.0622C28.7668 22.0081 28.7823 21.9555 28.8075 21.9074C28.8328 21.8593 28.8672 21.8167 28.909 21.782C35.5392 16.2501 43.3831 12.3637 51.801 10.44C51.908 10.4158 52.0203 10.4351 52.1131 10.4936C52.2059 10.5521 52.2717 10.645 52.296 10.752L64.379 63.693C64.3995 63.7837 64.3889 63.8786 64.349 63.9625C64.3091 64.0465 64.2422 64.1146 64.159 64.156C64.1013 64.1827 64.0386 64.1967 63.975 64.197ZM29.757 22.152L63.188 62.196L51.581 11.339C43.5774 13.2332 36.1127 16.9317 29.757 22.152Z" fill="#2E31FF"/>
<path d="M17.224 72.681C17.1273 72.6809 17.0338 72.647 16.9596 72.585C16.8854 72.5231 16.8353 72.4371 16.818 72.342C15.005 62.458 16.417 52.033 20.795 42.987C20.8427 42.8883 20.9276 42.8126 21.0311 42.7764C21.1346 42.7402 21.2482 42.7465 21.347 42.794L64.155 63.409C64.2342 63.4466 64.2994 63.5084 64.3411 63.5854C64.3829 63.6625 64.399 63.7509 64.3872 63.8378C64.3754 63.9246 64.3363 64.0055 64.2755 64.0686C64.2147 64.1318 64.1354 64.1739 64.049 64.189L17.299 72.674C17.2744 72.6793 17.2492 72.6816 17.224 72.681ZM21.36 43.721C17.257 52.399 15.912 62.331 17.559 71.788L62.649 63.605L21.36 43.721Z" fill="#2E31FF"/>
<path d="M41.657 79.659C41.5901 79.6586 41.5242 79.6423 41.4649 79.6113C41.4056 79.5804 41.3546 79.5357 41.316 79.481C40.4939 78.2937 39.766 77.0439 39.139 75.743C39.1154 75.6941 39.1016 75.641 39.0985 75.5868C39.0954 75.5325 39.1031 75.4782 39.121 75.427C39.1389 75.3757 39.1668 75.3285 39.203 75.288C39.2392 75.2475 39.283 75.2145 39.332 75.191L63.794 63.411C63.8881 63.3623 63.9974 63.3517 64.0991 63.3813C64.2009 63.4109 64.2874 63.4785 64.3407 63.5701C64.394 63.6617 64.4101 63.7702 64.3856 63.8734C64.3611 63.9765 64.2978 64.0662 64.209 64.124L41.893 79.586C41.8236 79.6338 41.7413 79.6592 41.657 79.659ZM40.067 75.755C40.5716 76.7603 41.1383 77.7332 41.764 78.668L59.42 66.436L40.067 75.755Z" fill="#2E31FF"/>
<path d="M63.99 98.132C61.41 98.132 58.825 97.845 56.33 97.275C56.2231 97.2502 56.1304 97.1841 56.0721 97.0912C56.0138 96.9982 55.9947 96.886 56.019 96.779L63.571 63.691C63.615 63.499 63.794 63.337 63.986 63.37C64.0817 63.3724 64.1735 63.4081 64.2458 63.4708C64.3181 63.5336 64.3662 63.6196 64.382 63.714L70.067 97.174C70.0852 97.2822 70.0598 97.3932 69.9962 97.4827C69.9327 97.5721 69.8362 97.6327 69.728 97.651C67.8322 97.9723 65.9128 98.1333 63.99 98.132ZM56.918 96.558C60.918 97.418 65.138 97.538 69.182 96.902L63.915 65.903L56.918 96.558Z" fill="#2E31FF"/>
<path d="M97.832 106.652C97.7697 106.652 97.7082 106.638 97.6521 106.611C97.596 106.584 97.5468 106.545 97.508 106.496L63.651 64.041C63.587 63.962 63.5544 63.8622 63.5594 63.7607C63.5644 63.6592 63.6067 63.563 63.6781 63.4907C63.7496 63.4184 63.8452 63.375 63.9466 63.3688C64.0481 63.3625 64.1483 63.394 64.228 63.457L107.061 96.836C107.148 96.9035 107.204 97.0026 107.217 97.1116C107.231 97.2205 107.201 97.3304 107.133 97.417C104.488 100.811 101.452 103.881 98.088 106.563C98.0153 106.621 97.925 106.652 97.832 106.652ZM66.477 66.258L97.897 105.657C100.974 103.163 103.767 100.339 106.226 97.234L66.477 66.258Z" fill="#2E31FF"/>
</svg>
