<svg width="128" height="128" viewBox="0 0 128 128" fill="none" xmlns="http://www.w3.org/2000/svg">
<path fill-rule="evenodd" clip-rule="evenodd" d="M64 100.38C28.654 100.38 0 81.19 0 57.517C0 33.845 28.654 14.654 64 14.654C99.346 14.654 128 33.844 128 57.517C128 81.189 99.346 100.38 64 100.38ZM73.796 31.413C46.93 31.413 25.15 44.532 25.15 60.716C25.15 76.899 46.93 90.019 73.796 90.019C100.662 90.019 120.489 81.049 120.489 60.716C120.489 40.389 100.662 31.413 73.796 31.413Z" fill="url(#paint0_linear_4102_9)"/>
<path fill-rule="evenodd" clip-rule="evenodd" d="M97.469 81.033C97.469 81.033 101.343 82.202 103.593 83.341C104.373 83.736 105.725 84.524 106.699 85.56C107.271 86.1657 107.75 86.8532 108.119 87.6L123.385 113.34L98.711 113.35L87.174 91.684C87.174 91.684 84.811 87.624 83.357 86.447C82.144 85.465 81.627 85.116 80.428 85.116H74.566L74.57 113.335L52.737 113.344V41.26H96.581C96.581 41.26 116.551 41.62 116.551 60.619C116.551 79.618 97.469 81.033 97.469 81.033ZM87.972 56.896L74.754 56.887L74.748 69.145L87.972 69.14C87.972 69.14 94.096 69.121 94.096 62.905C94.096 56.565 87.972 56.896 87.972 56.896Z" fill="url(#paint1_linear_4102_9)"/>
<defs>
<linearGradient id="paint0_linear_4102_9" x1="0.000721986" y1="14.6446" x2="79.2728" y2="133.005" gradientUnits="userSpaceOnUse">
<stop stop-color="#B3B3E6"/>
<stop offset="1" stop-color="#B3B3E6"/>
</linearGradient>
<linearGradient id="paint1_linear_4102_9" x1="52.737" y1="41.2595" x2="124.812" y2="111.892" gradientUnits="userSpaceOnUse">
<stop stop-color="#2E31FF"/>
<stop offset="1" stop-color="#2E31FF"/>
</linearGradient>
</defs>
</svg>
