<svg width="246" height="246" viewBox="0 0 246 246" fill="none" xmlns="http://www.w3.org/2000/svg">
<path d="M138.444 142.173C137.045 142.173 135.707 143.226 134.439 145.371C133.217 147.577 132.502 150.206 132.502 153.004C132.502 153.243 132.509 153.489 132.517 153.727V153.696C137.955 152.169 140.674 149.348 140.674 145.232C140.674 143.195 139.936 142.18 138.444 142.18V142.173ZM165.804 142.111C163.682 142.111 161.668 143.915 159.762 147.523C158.093 150.391 157.056 153.804 156.917 157.455V157.494C156.917 157.555 156.91 157.632 156.91 157.701C156.91 158.67 157.232 159.569 157.771 160.284L157.763 160.277C158.247 160.93 159.008 161.345 159.877 161.345C159.885 161.345 159.9 161.345 159.908 161.345C162.029 161.345 164.036 159.539 165.912 155.918C167.572 153.035 168.602 149.599 168.733 145.939V145.901C168.741 145.824 168.741 145.74 168.741 145.647C168.741 144.702 168.441 143.818 167.926 143.103L167.933 143.118C167.457 142.503 166.719 142.119 165.889 142.119C165.858 142.119 165.827 142.119 165.796 142.119L165.804 142.111ZM121.024 124.845C120.256 124.845 119.102 126.805 117.603 130.718C115.928 135.262 114.405 140.773 113.306 146.439L113.191 147.139C115.805 144.248 118.003 140.92 119.656 137.291L119.756 137.053C121.186 134.262 122.093 130.98 122.27 127.513V127.459C122.27 127.405 122.27 127.343 122.27 127.282C122.27 126.659 122.139 126.075 121.908 125.537L121.916 125.568C121.675 125.086 121.378 124.845 121.024 124.845ZM169.532 118.91H171.124V128.958H169.532V118.91ZM155.672 118.91H157.263V128.958H155.657L155.672 118.91ZM149.883 118.618C149.906 118.618 149.929 118.618 149.96 118.618C150.637 118.618 151.282 118.772 151.851 119.041L151.828 119.026C152.681 119.425 153.327 120.156 153.619 121.04L153.627 121.063C153.735 121.416 153.819 121.832 153.85 122.254V122.27H152.236C152.189 121.632 151.913 121.07 151.49 120.655C151.082 120.294 150.544 120.079 149.952 120.079C149.914 120.079 149.883 120.079 149.852 120.079C149.837 120.079 149.822 120.079 149.806 120.079C149.268 120.079 148.769 120.263 148.369 120.563L148.376 120.555C147.938 120.909 147.6 121.378 147.423 121.916L147.416 121.939C147.208 122.539 147.085 123.231 147.085 123.953C147.085 123.999 147.085 124.045 147.085 124.099C147.085 124.145 147.085 124.184 147.085 124.238C147.085 124.922 147.208 125.583 147.439 126.19L147.423 126.152C147.623 126.682 147.961 127.12 148.384 127.443L148.392 127.451C148.792 127.743 149.299 127.912 149.845 127.912C149.868 127.912 149.883 127.912 149.906 127.912C151.267 127.912 152.09 127.105 152.366 125.491H153.973C153.919 126.275 153.696 126.997 153.335 127.628L153.35 127.605C153.02 128.174 152.543 128.627 151.967 128.919L151.951 128.927C151.375 129.219 150.698 129.388 149.975 129.388C149.937 129.388 149.906 129.388 149.876 129.388C149.845 129.388 149.814 129.388 149.776 129.388C148.945 129.388 148.161 129.15 147.5 128.743L147.515 128.75C146.839 128.297 146.309 127.666 145.978 126.936L145.97 126.905C145.624 126.121 145.424 125.199 145.424 124.238C145.424 124.184 145.424 124.138 145.424 124.084C145.424 124.053 145.424 124.015 145.424 123.976C145.424 123.215 145.54 122.485 145.747 121.801L145.732 121.855C145.932 121.186 146.247 120.601 146.654 120.094L146.647 120.102C147.031 119.625 147.508 119.241 148.061 118.987L148.084 118.979C148.607 118.733 149.222 118.595 149.876 118.595C149.891 118.595 149.906 118.595 149.922 118.595L149.883 118.618ZM139.936 118.618C139.982 118.618 140.036 118.618 140.089 118.618C140.75 118.618 141.381 118.757 141.957 118.995L141.927 118.979C142.457 119.195 142.88 119.564 143.172 120.025L143.18 120.033C143.449 120.486 143.61 121.032 143.61 121.616C143.61 121.647 143.61 121.67 143.61 121.701V121.693H141.919C141.857 120.625 141.196 120.086 139.92 120.086C139.874 120.086 139.82 120.079 139.766 120.079C139.244 120.079 138.752 120.225 138.337 120.486L138.352 120.479C137.998 120.709 137.775 121.109 137.775 121.555C137.775 121.57 137.775 121.593 137.775 121.609C137.775 121.955 137.945 122.27 138.206 122.454C138.613 122.731 139.098 122.938 139.628 123.031H139.651L141.189 123.407C142.019 123.553 142.749 123.915 143.349 124.422L143.341 124.415C143.756 124.845 144.018 125.429 144.018 126.075C144.018 126.121 144.018 126.16 144.018 126.206C144.018 126.221 144.018 126.236 144.018 126.259C144.018 126.867 143.833 127.428 143.51 127.889L143.518 127.882C143.157 128.381 142.657 128.766 142.08 128.989L142.057 128.996C141.442 129.242 140.735 129.388 139.989 129.388C139.951 129.388 139.92 129.388 139.882 129.388H139.889C139.797 129.396 139.682 129.396 139.574 129.396C138.575 129.396 137.652 129.073 136.907 128.527L136.922 128.535C136.276 127.92 135.869 127.051 135.869 126.09C135.869 126.044 135.869 125.99 135.869 125.944V125.952H137.56C137.583 126.252 137.645 126.521 137.729 126.782L137.722 126.759C137.798 126.959 137.914 127.136 138.052 127.282C138.521 127.674 139.128 127.912 139.797 127.912C139.874 127.912 139.951 127.912 140.028 127.905C140.074 127.905 140.12 127.905 140.166 127.905C140.743 127.905 141.273 127.743 141.734 127.459L141.719 127.466C142.111 127.228 142.365 126.805 142.365 126.321C142.365 126.306 142.365 126.298 142.365 126.283C142.365 125.952 142.226 125.66 142.004 125.46C141.673 125.199 141.266 125.014 140.827 124.937H140.812L139.313 124.576C138.706 124.43 138.198 124.261 137.706 124.069L137.791 124.099C137.429 123.946 137.122 123.746 136.845 123.507C136.607 123.292 136.415 123.023 136.292 122.723L136.284 122.708C136.184 122.423 136.13 122.093 136.13 121.747C136.13 121.724 136.13 121.693 136.13 121.67V121.678C136.13 121.647 136.13 121.616 136.13 121.586C136.13 120.717 136.538 119.948 137.176 119.448L137.183 119.441C137.891 118.918 138.782 118.603 139.743 118.603C139.82 118.603 139.897 118.603 139.982 118.61L139.936 118.618ZM174.153 116.143H175.744V118.91H177.397V120.209H175.744V127.097C175.729 127.159 175.721 127.22 175.721 127.29C175.721 127.697 176.051 128.028 176.459 128.028C176.528 128.028 176.59 128.02 176.651 128.005C176.682 128.005 176.705 128.005 176.743 128.005C176.974 128.005 177.197 127.966 177.412 127.905L177.397 127.912V129.265C177.005 129.342 176.559 129.388 176.098 129.396C176.051 129.396 175.998 129.404 175.944 129.404C175.46 129.404 175.006 129.25 174.645 128.981L174.652 128.989C174.345 128.719 174.153 128.335 174.153 127.897C174.153 127.866 174.153 127.835 174.153 127.805V120.225H172.8V118.918H174.153V116.143ZM169.532 114.967H171.124V116.981H169.532V114.967ZM159.777 114.967H161.368V123.277L165.789 118.903H167.664L164.167 122.377L168.279 128.95H166.381L162.952 123.423L161.376 125.014V128.95H159.785L159.777 114.967ZM155.672 114.967H157.263V116.981H155.657L155.672 114.967ZM37.6534 111.53C37.2537 111.515 36.7924 111.499 36.3235 111.499C28.3977 111.499 21.2098 114.636 15.9208 119.741L15.9285 119.733C10.9317 126.136 7.91815 134.301 7.91815 143.172C7.91815 155.103 13.3763 165.758 21.9248 172.777L21.994 172.83C30.3887 179.834 41.2973 184.077 53.1898 184.077C61.1695 184.077 68.7109 182.163 75.3606 178.773L75.0838 178.903C78.105 172.577 79.8655 165.143 79.8655 157.309C79.8655 145.378 75.7834 134.401 68.9415 125.698L69.0261 125.806C61.0388 117.496 50.0149 112.145 37.7533 111.538L37.6534 111.53ZM202.981 139.651C199.475 147.554 195.186 154.357 190.066 160.446L190.173 160.315C190.104 160.738 190.066 161.222 190.058 161.722C190.058 161.783 190.058 161.86 190.058 161.929C190.058 163.398 190.565 164.743 191.419 165.812L191.411 165.796C192.164 166.796 193.341 167.426 194.671 167.426C197.515 167.426 201.536 164.889 206.725 159.869C206.717 160.254 206.694 160.638 206.694 161.03C206.694 162.434 206.809 164.566 207.04 167.426L214.082 165.773C214.082 163.851 214.112 162.345 214.174 161.222C214.312 159.339 214.535 157.64 214.85 155.972L214.804 156.256C215.035 155.088 215.55 154.057 216.272 153.22L216.265 153.227L218.048 151.152C219.224 149.783 220.408 148.538 221.654 147.362L221.677 147.339C222.146 146.908 222.653 146.501 223.184 146.124L223.23 146.093C223.56 145.855 223.968 145.701 224.398 145.655C224.929 145.655 225.205 145.993 225.205 146.67C224.89 148.461 224.367 150.068 223.66 151.559L223.706 151.444C222.269 154.48 221.269 158.009 220.908 161.73L220.9 161.86C220.893 161.945 220.893 162.053 220.893 162.152C220.893 163.567 221.385 164.866 222.215 165.881L222.207 165.873C223.007 166.788 224.175 167.365 225.474 167.365C225.536 167.365 225.597 167.365 225.651 167.365H225.644C230.84 166.457 235.261 163.628 238.22 159.654L238.259 159.6V155.941C234.789 160.036 232.278 162.086 230.725 162.091C229.679 162.091 229.157 161.445 229.157 160.169C229.526 157.832 230.179 155.733 231.094 153.781L231.032 153.927C232.401 150.99 233.369 147.585 233.762 144.002L233.777 143.856C233.777 143.81 233.777 143.756 233.777 143.702C233.777 142.588 233.369 141.573 232.693 140.789L232.701 140.797C232.063 140.051 231.117 139.574 230.064 139.574C230.041 139.574 230.01 139.574 229.987 139.574C227.888 139.743 226.013 140.566 224.529 141.827L224.544 141.811C221.492 144.279 218.779 146.924 216.326 149.799L216.257 149.883C217.21 145.809 218.317 142.349 219.655 139.005L219.478 139.505L211.706 141.004C210.292 143.895 208.985 147.323 207.978 150.883L207.87 151.328C207.532 152.581 207.224 154.142 207.009 155.733L206.986 155.941C205.484 157.453 203.916 158.893 202.281 160.261C201.682 160.73 200.913 161.022 200.083 161.03C200.06 161.03 200.029 161.03 200.006 161.03C199.36 161.03 198.783 160.723 198.414 160.246C198.03 159.7 197.792 159.016 197.792 158.286C197.792 158.224 197.792 158.155 197.799 158.093C197.83 156.91 198.022 155.787 198.361 154.719L198.338 154.803C198.699 153.558 199.491 151.221 200.728 147.785L203.688 139.628L202.981 139.651ZM157.594 60.8466C136.269 61.8921 117.273 71.1094 103.535 85.4158L103.512 85.4389C75.3683 113.583 83.5017 167.38 93.0572 176.943C100.791 184.669 156.41 194.647 184.569 166.488C186.532 164.515 188.403 162.455 190.181 160.307C191.088 156.264 192.718 152.704 194.94 149.591L194.878 149.683C193.387 150.46 191.649 151.052 189.827 151.359L189.72 151.375C187.875 154.511 185.722 157.209 183.239 159.577L183.224 159.593C180.995 161.807 178.611 163.874 176.098 165.766L175.921 165.889C174.752 166.75 173.307 167.288 171.739 167.349H171.723C168.361 167.349 166.78 164.39 166.98 158.47C165.281 161.03 163.344 163.244 161.138 165.158L161.099 165.189C159.616 166.481 157.678 167.288 155.557 167.341H155.549C153.558 167.318 151.82 166.288 150.798 164.743L150.783 164.72C149.783 163.359 149.114 161.699 148.93 159.892V159.854C146.877 161.937 144.587 163.79 142.111 165.358L141.957 165.45C139.966 166.642 137.568 167.341 135 167.341C134.946 167.341 134.893 167.341 134.839 167.341C134.723 167.349 134.6 167.349 134.462 167.349C131.879 167.349 129.542 166.288 127.866 164.574C126.59 163.236 125.706 161.507 125.406 159.593L125.399 159.539V159.577C123.154 161.73 120.671 163.667 118.003 165.335L117.811 165.45C116.043 166.573 113.898 167.272 111.592 167.341H111.576C111.523 167.341 111.461 167.341 111.4 167.341C109.239 167.341 107.318 166.311 106.103 164.712L106.088 164.697C104.773 162.89 103.981 160.623 103.981 158.178C103.981 157.978 103.989 157.771 103.997 157.571V157.601C104.189 151.805 105.234 146.316 107.018 141.166L106.902 141.558C108.947 134.885 111.338 129.173 114.206 123.746L113.944 124.299L122.031 121.301C122.201 121.232 122.4 121.193 122.6 121.178H122.608C123.215 121.178 123.723 121.632 124.115 122.523C124.491 123.507 124.707 124.645 124.707 125.829C124.707 125.952 124.707 126.067 124.699 126.19V126.175C124.691 130.764 123.584 135.092 121.624 138.921L121.701 138.759C119.072 143.725 115.958 148 112.33 151.767L112.345 151.751C112.171 153.96 112.084 155.477 112.084 156.302C112.076 156.425 112.076 156.564 112.076 156.702C112.076 158.17 112.46 159.546 113.129 160.738L113.106 160.699C113.637 161.668 114.651 162.322 115.812 162.322C117.196 162.268 118.457 161.807 119.502 161.061L119.479 161.076C121.624 159.516 123.515 157.863 125.252 156.064L125.268 156.049C125.575 151.805 127.274 148.007 129.911 145.063L129.896 145.078C132.294 141.873 136.023 139.774 140.243 139.613H140.266C140.366 139.605 140.489 139.605 140.604 139.605C142.28 139.605 143.81 140.189 145.025 141.158L145.009 141.15C146.109 142.08 146.801 143.456 146.801 145.002C146.801 145.055 146.801 145.109 146.801 145.163C146.801 149.565 142.129 153.125 132.786 155.856C133.632 159.985 135.861 162.06 139.444 162.06C140.927 162.06 142.311 161.637 143.48 160.915L143.449 160.938C145.517 159.5 147.331 157.924 148.953 156.187L148.968 156.164C149.322 153.535 150.198 151.175 151.498 149.099L151.451 149.176C153.173 146.332 155.434 143.987 158.109 142.211L158.186 142.157C160.2 140.658 162.698 139.682 165.404 139.49H165.45C165.543 139.482 165.643 139.482 165.743 139.482C168.149 139.482 170.201 140.989 171.008 143.11L171.024 143.149L177.527 139.559H179.311L176.505 148.884C175.46 151.697 174.698 154.965 174.345 158.355L174.329 158.532C174.329 160.354 174.975 161.268 176.267 161.268C177.351 161.168 178.304 160.684 179.003 159.954C180.003 159.072 181.402 157.727 183.201 155.918V155.926C184.515 154.503 185.753 152.95 186.875 151.321L186.968 151.182C185.407 150.69 184.277 149.268 184.231 147.585C184.308 145.624 184.923 143.818 185.93 142.303L185.907 142.342C186.776 140.674 188.49 139.559 190.466 139.559C190.481 139.559 190.496 139.559 190.512 139.559C190.596 139.543 190.696 139.544 190.796 139.544C192.018 139.544 193.018 140.535 193.018 141.765C193.018 141.888 193.01 142.003 192.987 142.119V142.103C192.818 144.21 192.311 146.155 191.511 147.938L191.557 147.823C195.083 147.439 198.161 144.743 200.79 139.736L202.981 139.651C207.047 131.956 209.431 122.816 209.431 113.137C209.431 98.4769 203.965 85.0929 194.955 74.9147L195.009 74.9762C185.938 66.1971 173.568 60.7928 159.931 60.7928C159.108 60.7928 158.293 60.8158 157.478 60.8543L157.594 60.8466Z" fill="#2E31FF"/>
</svg>
