<svg width="250" height="250" viewBox="0 0 250 250" fill="none" xmlns="http://www.w3.org/2000/svg">
<path d="M125.856 2.26147C94.6013 2.26198 64.6271 14.678 42.5269 36.7782C20.4266 58.8784 8.01063 88.8526 8.01013 120.107C8.01113 151.361 20.4274 181.335 42.5275 203.435C64.6277 225.534 94.6016 237.95 125.856 237.951C156.85 237.95 186.597 225.738 208.652 203.961C230.707 182.184 243.296 152.595 243.69 121.603L243.699 120.106L243.69 118.609C243.296 87.617 230.707 58.0279 208.652 36.2509C186.597 14.4739 156.85 2.26244 125.856 2.26147Z" fill="white"/>
<path d="M98.9459 69.9135C99.542 69.9135 100.132 69.7961 100.683 69.568C101.234 69.3399 101.734 69.0056 102.155 68.5841C102.577 68.1626 102.911 67.6622 103.139 67.1115C103.368 66.5608 103.485 65.9706 103.485 65.3745C103.485 64.7785 103.368 64.1882 103.139 63.6375C102.911 63.0868 102.577 62.5865 102.155 62.165C101.734 61.7435 101.234 61.4091 100.683 61.181C100.132 60.9529 99.542 60.8355 98.9459 60.8355C97.742 60.8355 96.5873 61.3138 95.736 62.1651C94.8847 63.0164 94.4064 64.171 94.4064 65.375C94.4064 66.5789 94.8847 67.7336 95.736 68.5849C96.5873 69.4362 97.742 69.9135 98.9459 69.9135ZM89.1714 76.7574C90.3374 76.7574 91.4556 76.2943 92.2801 75.4698C93.1046 74.6453 93.5677 73.5271 93.5677 72.3611C93.5677 71.1952 93.1046 70.077 92.2801 69.2525C91.4556 68.428 90.3374 67.9649 89.1714 67.9649C88.0055 67.9649 86.8873 68.428 86.0628 69.2525C85.2383 70.077 84.7751 71.1952 84.7751 72.3611C84.7751 73.5271 85.2383 74.6453 86.0628 75.4698C86.8873 76.2943 88.0055 76.7574 89.1714 76.7574ZM79.7693 81.1121C80.3181 81.1204 80.863 81.0195 81.3724 80.8152C81.8818 80.611 82.3455 80.3074 82.7365 79.9223C83.1275 79.5372 83.4381 79.0781 83.65 78.5718C83.8619 78.0656 83.9711 77.5222 83.9711 76.9734C83.9711 76.4245 83.8619 75.8812 83.65 75.3749C83.4381 74.8687 83.1275 74.4096 82.7365 74.0245C82.3455 73.6393 81.8818 73.3358 81.3724 73.1315C80.863 72.9272 80.3181 72.8263 79.7693 72.8346C78.6715 72.8346 77.6187 73.2707 76.8424 74.047C76.0662 74.8232 75.6301 75.8761 75.6301 76.9738C75.6301 78.0716 76.0662 79.1245 76.8424 79.9007C77.6187 80.677 78.6715 81.1121 79.7693 81.1121ZM107.191 64.507C107.811 64.5158 108.426 64.4014 109 64.1705C109.575 63.9396 110.098 63.5967 110.539 63.1618C110.98 62.727 111.331 62.2088 111.57 61.6374C111.809 61.066 111.932 60.4527 111.932 59.8333C111.932 59.2139 111.809 58.6007 111.57 58.0293C111.331 57.4579 110.98 56.9397 110.539 56.5048C110.098 56.0699 109.575 55.7271 109 55.4962C108.426 55.2652 107.811 55.1509 107.191 55.1597C105.968 55.1843 104.803 55.6874 103.947 56.5611C103.091 57.4348 102.611 58.6095 102.611 59.8328C102.611 61.0562 103.091 62.2308 103.947 63.1046C104.803 63.9783 105.968 64.4824 107.191 64.507ZM72.7146 71.298C73.5476 71.298 74.3465 70.9671 74.9355 70.3781C75.5246 69.789 75.8555 68.9902 75.8555 68.1572C75.8555 67.3242 75.5246 66.5253 74.9355 65.9363C74.3465 65.3473 73.5476 65.0163 72.7146 65.0163C71.8816 65.0163 71.0828 65.3473 70.4937 65.9363C69.9047 66.5253 69.5738 67.3242 69.5738 68.1572C69.5738 68.9902 69.9047 69.789 70.4937 70.3781C71.0828 70.9671 71.8816 71.298 72.7146 71.298ZM64.9606 88.5014C65.9502 88.5014 66.8992 88.1083 67.5989 87.4086C68.2986 86.7089 68.6916 85.7599 68.6916 84.7704C68.6916 83.7808 68.2986 82.8319 67.5989 82.1322C66.8992 81.4325 65.9502 81.0394 64.9606 81.0394C63.9711 81.0394 63.0221 81.4325 62.3224 82.1322C61.6227 82.8319 61.2297 83.7808 61.2297 84.7704C61.2297 85.7599 61.6227 86.7089 62.3224 87.4086C63.0221 88.1083 63.9711 88.5014 64.9606 88.5014ZM69.7066 58.9587C70.8989 58.9587 72.0423 58.4851 72.8854 57.642C73.7285 56.7989 74.2021 55.6555 74.2021 54.4632C74.2021 53.2709 73.7285 52.1274 72.8854 51.2844C72.0423 50.4413 70.8989 49.9677 69.7066 49.9677C68.5143 49.9677 67.3709 50.4413 66.5278 51.2844C65.6847 52.1274 65.2111 53.2709 65.2111 54.4632C65.2111 55.6555 65.6847 56.7989 66.5278 57.642C67.3709 58.4851 68.5143 58.9587 69.7066 58.9587ZM81.838 67.3723C82.3014 67.3831 82.7623 67.3012 83.1935 67.1313C83.6248 66.9614 84.0178 66.7071 84.3493 66.3832C84.6809 66.0592 84.9444 65.6723 85.1242 65.2451C85.3041 64.8179 85.3968 64.3591 85.3968 63.8955C85.3968 63.432 85.3041 62.9732 85.1242 62.546C84.9444 62.1188 84.6809 61.7318 84.3493 61.4079C84.0178 61.084 83.6248 60.8296 83.1935 60.6598C82.7623 60.4899 82.3014 60.408 81.838 60.4188C80.9299 60.4399 80.0662 60.8155 79.4314 61.4653C78.7967 62.115 78.4413 62.9872 78.4413 63.8955C78.4413 64.8039 78.7967 65.6761 79.4314 66.3258C80.0662 66.9755 80.9299 67.3511 81.838 67.3723ZM141.795 56.9949C142.873 56.9949 143.907 56.5665 144.67 55.804C145.432 55.0415 145.861 54.0073 145.861 52.9289C145.861 51.8505 145.432 50.8163 144.67 50.0538C143.907 49.2913 142.873 48.8629 141.795 48.8629C140.716 48.8629 139.682 49.2913 138.92 50.0538C138.157 50.8163 137.729 51.8505 137.729 52.9289C137.729 54.0073 138.157 55.0415 138.92 55.804C139.682 56.5665 140.716 56.9949 141.795 56.9949ZM56.5215 78.5473C56.8452 78.5473 57.1657 78.4836 57.4647 78.3597C57.7637 78.2359 58.0354 78.0543 58.2643 77.8255C58.4931 77.5966 58.6747 77.3249 58.7985 77.0259C58.9224 76.7268 58.9862 76.4063 58.9862 76.0827C58.9862 75.759 58.9224 75.4385 58.7985 75.1395C58.6747 74.8405 58.4931 74.5688 58.2643 74.3399C58.0354 74.1111 57.7637 73.9295 57.4647 73.8056C57.1657 73.6818 56.8452 73.618 56.5215 73.618C55.8678 73.618 55.2409 73.8777 54.7787 74.3399C54.3165 74.8021 54.0569 75.429 54.0569 76.0827C54.0569 76.7364 54.3165 77.3632 54.7787 77.8255C55.2409 78.2877 55.8678 78.5473 56.5215 78.5473ZM64.7102 76.2263C65.1004 76.2363 65.4887 76.168 65.8521 76.0255C66.2156 75.883 66.5468 75.6692 66.8263 75.3967C67.1058 75.1242 67.328 74.7985 67.4796 74.4389C67.6313 74.0792 67.7094 73.6928 67.7094 73.3024C67.7094 72.912 67.6313 72.5256 67.4796 72.1659C67.328 71.8063 67.1058 71.4806 66.8263 71.2081C66.5468 70.9356 66.2156 70.7218 65.8521 70.5793C65.4887 70.4368 65.1004 70.3685 64.7102 70.3785C63.9437 70.3922 63.2133 70.7064 62.6761 71.2533C62.1389 71.8003 61.8379 72.5362 61.8379 73.3029C61.8379 74.0695 62.1389 74.8055 62.6761 75.3524C63.2133 75.8993 63.9437 76.2126 64.7102 76.2263ZM49.7777 66.9603C50.292 66.9683 50.8027 66.874 51.2801 66.6827C51.7575 66.4915 52.1921 66.2072 52.5586 65.8464C52.9251 65.4856 53.2161 65.0555 53.4148 64.5811C53.6134 64.1067 53.7158 63.5976 53.7158 63.0833C53.7158 62.569 53.6134 62.0598 53.4148 61.5855C53.2161 61.1111 52.9251 60.681 52.5586 60.3202C52.1921 59.9594 51.7575 59.6751 51.2801 59.4838C50.8027 59.2926 50.292 59.1983 49.7777 59.2063C48.76 59.2222 47.7893 59.6376 47.0752 60.363C46.3611 61.0883 45.9608 62.0654 45.9608 63.0833C45.9608 64.1012 46.3611 65.0782 47.0752 65.8036C47.7893 66.5289 48.76 66.9444 49.7777 66.9603ZM65.0315 65.2507C65.3006 65.2565 65.5681 65.2086 65.8184 65.1096C66.0687 65.0107 66.2967 64.8627 66.4891 64.6745C66.6814 64.4863 66.8342 64.2615 66.9386 64.0134C67.0429 63.7653 67.0967 63.4989 67.0967 63.2298C67.0967 62.9606 67.0429 62.6942 66.9386 62.4461C66.8342 62.198 66.6814 61.9733 66.4891 61.785C66.2967 61.5968 66.0687 61.4489 65.8184 61.3499C65.5681 61.251 65.3006 61.203 65.0315 61.2088C64.5031 61.2202 64.0002 61.4382 63.6305 61.8159C63.2608 62.1937 63.0538 62.7012 63.0538 63.2298C63.0538 63.7583 63.2608 64.2658 63.6305 64.6436C64.0002 65.0214 64.5031 65.2393 65.0315 65.2507ZM92.0925 62.1C92.588 62.1 93.0787 62.0024 93.5364 61.8128C93.9942 61.6232 94.4101 61.3452 94.7605 60.9949C95.1108 60.6445 95.3888 60.2286 95.5784 59.7708C95.768 59.3131 95.8656 58.8224 95.8656 58.3269C95.8656 57.8315 95.768 57.3408 95.5784 56.8831C95.3888 56.4253 95.1108 56.0094 94.7605 55.659C94.4101 55.3086 93.9942 55.0307 93.5364 54.8411C93.0787 54.6515 92.588 54.5539 92.0925 54.5539C91.0919 54.5539 90.1322 54.9514 89.4246 55.659C88.717 56.3666 88.3195 57.3263 88.3195 58.3269C88.3195 59.3276 88.717 60.2873 89.4246 60.9949C90.1322 61.7025 91.0919 62.1 92.0925 62.1ZM120.755 64.284C121.188 64.2913 121.617 64.2125 122.019 64.0522C122.42 63.8919 122.786 63.6532 123.094 63.3501C123.402 63.047 123.647 62.6856 123.814 62.2869C123.981 61.8882 124.067 61.4602 124.067 61.0278C124.067 60.5955 123.981 60.1675 123.814 59.7688C123.647 59.3701 123.402 59.0086 123.094 58.7056C122.786 58.4025 122.42 58.1638 122.019 58.0035C121.617 57.8431 121.188 57.7644 120.755 57.7717C119.906 57.7922 119.097 58.1442 118.504 58.7525C117.91 59.3608 117.577 60.1773 117.577 61.0274C117.577 61.8775 117.91 62.6939 118.504 63.3022C119.097 63.9105 119.906 64.2635 120.755 64.284ZM126.716 43.9695C126.996 43.9695 127.273 43.9144 127.531 43.8073C127.79 43.7002 128.025 43.5432 128.223 43.3454C128.42 43.1475 128.577 42.9125 128.685 42.654C128.792 42.3954 128.847 42.1183 128.847 41.8385C128.847 41.5586 128.792 41.2815 128.685 41.023C128.577 40.7644 128.42 40.5295 128.223 40.3316C128.025 40.1337 127.79 39.9767 127.531 39.8696C127.273 39.7626 126.996 39.7074 126.716 39.7074C126.151 39.7074 125.608 39.932 125.209 40.3316C124.809 40.7312 124.585 41.2733 124.585 41.8385C124.585 42.4037 124.809 42.9457 125.209 43.3454C125.608 43.745 126.151 43.9695 126.716 43.9695ZM133.644 56.237C134.588 56.237 135.494 55.8618 136.162 55.194C136.829 54.5262 137.205 53.6205 137.205 52.6761C137.205 51.7317 136.829 50.826 136.162 50.1582C135.494 49.4904 134.588 49.1152 133.644 49.1152C132.699 49.1152 131.794 49.4904 131.126 50.1582C130.458 50.826 130.083 51.7317 130.083 52.6761C130.083 53.6205 130.458 54.5262 131.126 55.194C131.794 55.8618 132.699 56.237 133.644 56.237ZM98.0699 54.1598C99.0403 54.1598 99.9711 53.7743 100.657 53.0881C101.344 52.4018 101.729 51.4711 101.729 50.5006C101.729 49.5302 101.344 48.5995 100.657 47.9132C99.9711 47.227 99.0403 46.8415 98.0699 46.8415C97.0994 46.8415 96.1687 47.227 95.4824 47.9132C94.7962 48.5995 94.4107 49.5302 94.4107 50.5006C94.4107 51.4711 94.7962 52.4018 95.4824 53.0881C96.1687 53.7743 97.0994 54.1598 98.0699 54.1598ZM52.2339 89.3254C53.0214 89.3254 53.7766 89.0126 54.3335 88.4557C54.8904 87.8989 55.2032 87.1436 55.2032 86.3561C55.2032 85.5686 54.8904 84.8134 54.3335 84.2565C53.7766 83.6997 53.0214 83.3868 52.2339 83.3868C51.4464 83.3868 50.6911 83.6997 50.1343 84.2565C49.5774 84.8134 49.2646 85.5686 49.2646 86.3561C49.2646 87.1436 49.5774 87.8989 50.1343 88.4557C50.6911 89.0126 51.4464 89.3254 52.2339 89.3254Z" fill="#96AEFF" stroke="white" stroke-width="2.36258"/>
<path d="M150.028 57.7717C151.227 57.7717 152.377 57.2953 153.225 56.4473C154.073 55.5992 154.55 54.449 154.55 53.2497C154.55 52.0504 154.073 50.9002 153.225 50.0522C152.377 49.2042 151.227 48.7278 150.028 48.7278C148.828 48.7278 147.678 49.2042 146.83 50.0522C145.982 50.9002 145.506 52.0504 145.506 53.2497C145.506 54.449 145.982 55.5992 146.83 56.4473C147.678 57.2953 148.828 57.7717 150.028 57.7717ZM106.395 54.7089C106.94 54.7089 107.479 54.6015 107.983 54.3929C108.487 54.1843 108.944 53.8786 109.33 53.4932C109.715 53.1078 110.021 52.6502 110.229 52.1466C110.438 51.6431 110.545 51.1033 110.545 50.5583C110.545 50.0132 110.438 49.4735 110.229 48.9699C110.021 48.4663 109.715 48.0088 109.33 47.6234C108.944 47.238 108.487 46.9322 107.983 46.7236C107.479 46.5151 106.94 46.4077 106.395 46.4077C105.294 46.4077 104.238 46.845 103.46 47.6234C102.681 48.4018 102.244 49.4575 102.244 50.5583C102.244 51.6591 102.681 52.7148 103.46 53.4932C104.238 54.2716 105.294 54.7089 106.395 54.7089ZM58.1706 58.0543C59.1912 58.0543 60.17 57.6488 60.8916 56.9272C61.6133 56.2055 62.0187 55.2267 62.0187 54.2061C62.0187 53.1855 61.6133 52.2067 60.8916 51.485C60.17 50.7634 59.1912 50.3579 58.1706 50.3579C57.15 50.3579 56.1712 50.7634 55.4495 51.485C54.7278 52.2067 54.3224 53.1855 54.3224 54.2061C54.3224 55.2267 54.7278 56.2055 55.4495 56.9272C56.1712 57.6488 57.15 58.0543 58.1706 58.0543ZM79.5869 48.1192C80.7669 48.1192 81.8986 47.6504 82.733 46.816C83.5674 45.9816 84.0361 44.8499 84.0361 43.6699C84.0361 42.4899 83.5674 41.3583 82.733 40.5239C81.8986 39.6895 80.7669 39.2207 79.5869 39.2207C78.4069 39.2207 77.2752 39.6895 76.4408 40.5239C75.6064 41.3583 75.1377 42.4899 75.1377 43.6699C75.1377 44.8499 75.6064 45.9816 76.4408 46.816C77.2752 47.6504 78.4069 48.1192 79.5869 48.1192ZM163.057 54.1107C163.786 54.1107 164.485 53.8211 165 53.3057C165.516 52.7904 165.805 52.0914 165.805 51.3625C165.805 50.6336 165.516 49.9346 165 49.4193C164.485 48.9039 163.786 48.6144 163.057 48.6144C162.328 48.6144 161.629 48.9039 161.114 49.4193C160.598 49.9346 160.309 50.6336 160.309 51.3625C160.309 52.0914 160.598 52.7904 161.114 53.3057C161.629 53.8211 162.328 54.1107 163.057 54.1107ZM67.3346 42.8884C67.7985 42.896 68.2594 42.8112 68.6902 42.639C69.1211 42.4667 69.5133 42.2104 69.8441 41.885C70.1749 41.5596 70.4376 41.1716 70.617 40.7436C70.7963 40.3156 70.8887 39.8563 70.8887 39.3922C70.8887 38.9282 70.7963 38.4688 70.617 38.0409C70.4376 37.6129 70.1749 37.2249 69.8441 36.8995C69.5133 36.5741 69.1211 36.3178 68.6902 36.1455C68.2594 35.9733 67.7985 35.8885 67.3346 35.8961C66.4173 35.9112 65.5427 36.2862 64.8993 36.9402C64.256 37.5942 63.8954 38.4748 63.8954 39.3922C63.8954 40.3097 64.256 41.1903 64.8993 41.8443C65.5427 42.4983 66.4173 42.8733 67.3346 42.8884ZM83.0986 58.5448C83.8877 58.5448 84.6444 58.2313 85.2023 57.6734C85.7602 57.1155 86.0736 56.3588 86.0736 55.5698C86.0736 54.7808 85.7602 54.0241 85.2023 53.4662C84.6444 52.9083 83.8877 52.5948 83.0986 52.5948C82.3095 52.5948 81.5527 52.9083 80.9947 53.4663C80.4367 54.0243 80.1232 54.7811 80.1232 55.5703C80.1232 56.3594 80.4367 57.1162 80.9947 57.6742C81.5527 58.2322 82.3095 58.5448 83.0986 58.5448ZM90.2251 52.0883C90.6266 52.0954 91.0254 52.0225 91.3984 51.8737C91.7713 51.725 92.1109 51.5035 92.3973 51.2221C92.6837 50.9407 92.9112 50.6051 93.0665 50.2349C93.2218 49.8646 93.3018 49.4671 93.3018 49.0656C93.3018 48.6641 93.2218 48.2666 93.0665 47.8964C92.9112 47.5261 92.6837 47.1905 92.3973 46.9091C92.1109 46.6277 91.7713 46.4062 91.3984 46.2575C91.0254 46.1088 90.6266 46.0358 90.2251 46.0429C89.4327 46.0569 88.6775 46.3816 88.1221 46.9469C87.5667 47.5122 87.2554 48.2731 87.2554 49.0656C87.2554 49.8581 87.5667 50.619 88.1221 51.1843C88.6775 51.7497 89.4327 52.0743 90.2251 52.0883ZM43.5434 59.7667C44.3504 59.7667 45.1244 59.4461 45.6951 58.8754C46.2658 58.3047 46.5864 57.5307 46.5864 56.7237C46.5864 55.9166 46.2658 55.1426 45.6951 54.5719C45.1244 54.0013 44.3504 53.6807 43.5434 53.6807C42.7363 53.6807 41.9623 54.0013 41.3916 54.5719C40.821 55.1426 40.5004 55.9166 40.5004 56.7237C40.5004 57.5307 40.821 58.3047 41.3916 58.8754C41.9623 59.4461 42.7363 59.7667 43.5434 59.7667ZM51.9239 47.9339C52.6643 47.9339 53.3744 47.6398 53.8979 47.1163C54.4214 46.5927 54.7155 45.8827 54.7155 45.1423C54.7155 44.4019 54.4214 43.6919 53.8979 43.1683C53.3744 42.6448 52.6643 42.3507 51.9239 42.3507C51.1835 42.3507 50.4735 42.6448 49.9499 43.1683C49.4264 43.6919 49.1323 44.4019 49.1323 45.1423C49.1323 45.8827 49.4264 46.5927 49.9499 47.1163C50.4735 47.6398 51.1835 47.9339 51.9239 47.9339ZM116.332 56.6008C116.952 56.6008 117.547 56.3543 117.986 55.9155C118.425 55.4767 118.672 54.8815 118.672 54.2609C118.672 53.6403 118.425 53.0452 117.986 52.6064C117.547 52.1675 116.952 51.921 116.332 51.921C115.711 51.921 115.116 52.1675 114.677 52.6064C114.238 53.0452 113.992 53.6403 113.992 54.2609C113.992 54.8815 114.238 55.4767 114.677 55.9155C115.116 56.3543 115.711 56.6008 116.332 56.6008ZM41.3962 75.1717C42.422 75.1717 43.4057 74.7642 44.131 74.0389C44.8563 73.3136 45.2638 72.3298 45.2638 71.3041C45.2638 70.2784 44.8563 69.2946 44.131 68.5693C43.4057 67.844 42.422 67.4366 41.3962 67.4366C40.3705 67.4366 39.3868 67.844 38.6615 68.5693C37.9362 69.2946 37.5287 70.2784 37.5287 71.3041C37.5287 72.3298 37.9362 73.3136 38.6615 74.0389C39.3868 74.7642 40.3705 75.1717 41.3962 75.1717ZM32.7586 68.6509C33.1449 68.6579 33.5286 68.5878 33.8874 68.4449C34.2463 68.3019 34.573 68.0888 34.8486 67.8182C35.1242 67.5475 35.3431 67.2246 35.4925 66.8684C35.642 66.5122 35.7189 66.1298 35.7189 65.7435C35.7189 65.3573 35.642 64.9749 35.4925 64.6187C35.3431 64.2624 35.1242 63.9396 34.8486 63.6689C34.573 63.3983 34.2463 63.1852 33.8874 63.0422C33.5286 62.8992 33.1449 62.8292 32.7586 62.8361C31.9966 62.8499 31.2705 63.1622 30.7364 63.706C30.2024 64.2497 29.9032 64.9814 29.9032 65.7435C29.9032 66.5057 30.2024 67.2373 30.7364 67.7811C31.2705 68.3248 31.9966 68.6372 32.7586 68.6509ZM124.312 55.9213C125.088 55.9213 125.832 55.6132 126.381 55.0647C126.929 54.5161 127.237 53.7722 127.237 52.9965C127.237 52.2207 126.929 51.4768 126.381 50.9283C125.832 50.3797 125.088 50.0716 124.312 50.0716C123.537 50.0716 122.793 50.3797 122.244 50.9283C121.696 51.4768 121.388 52.2207 121.388 52.9965C121.388 53.7722 121.696 54.5161 122.244 55.0647C122.793 55.6132 123.537 55.9213 124.312 55.9213ZM57.8247 71.1071C59.0205 71.1071 60.1673 70.632 61.0129 69.7865C61.8584 68.9409 62.3334 67.7941 62.3334 66.5983C62.3334 65.4025 61.8584 64.2557 61.0129 63.4102C60.1673 62.5646 59.0205 62.0896 57.8247 62.0896C56.6289 62.0896 55.4821 62.5646 54.6365 63.4102C53.791 64.2557 53.3159 65.4025 53.3159 66.5983C53.3159 67.7941 53.791 68.9409 54.6365 69.7865C55.4821 70.632 56.6289 71.1071 57.8247 71.1071Z" fill="#96AEFF" stroke="white" stroke-width="2.36258"/>
<path d="M157.144 50.6084C157.743 50.617 158.338 50.5065 158.894 50.2833C159.45 50.0601 159.956 49.7285 160.382 49.308C160.809 48.8874 161.148 48.3863 161.379 47.8336C161.61 47.281 161.729 46.6879 161.729 46.0888C161.729 45.4897 161.61 44.8966 161.379 44.3439C161.148 43.7913 160.809 43.2901 160.382 42.8696C159.956 42.449 159.45 42.1175 158.894 41.8942C158.338 41.671 157.743 41.5605 157.144 41.5691C155.957 41.5863 154.824 42.07 153.99 42.9158C153.156 43.7615 152.689 44.9013 152.689 46.0888C152.689 47.2762 153.156 48.416 153.99 49.2618C154.824 50.1075 155.957 50.5912 157.144 50.6084ZM43.7938 93.1963C44.4896 93.1963 45.1569 92.9199 45.6489 92.4279C46.1408 91.9359 46.4172 91.2686 46.4172 90.5729C46.4172 89.8771 46.1408 89.2098 45.6489 88.7178C45.1569 88.2259 44.4896 87.9495 43.7938 87.9495C43.0981 87.9495 42.4308 88.2259 41.9388 88.7178C41.4468 89.2098 41.1704 89.8771 41.1704 90.5729C41.1704 91.2686 41.4468 91.9359 41.9388 92.4279C42.4308 92.9199 43.0981 93.1963 43.7938 93.1963ZM109.322 42.0256C109.801 42.0333 110.276 41.9458 110.721 41.768C111.165 41.5902 111.57 41.3258 111.911 40.9901C112.252 40.6544 112.523 40.2542 112.708 39.8128C112.893 39.3713 112.988 38.8975 112.988 38.4189C112.988 37.9403 112.893 37.4664 112.708 37.025C112.523 36.5836 112.252 36.1833 111.911 35.8477C111.57 35.512 111.165 35.2475 110.721 35.0698C110.276 34.892 109.801 34.8044 109.322 34.8122C108.376 34.8275 107.473 35.2142 106.81 35.8889C106.146 36.5637 105.774 37.4723 105.774 38.4189C105.774 39.3655 106.146 40.2741 106.81 40.9488C107.473 41.6235 108.376 42.0103 109.322 42.0256ZM184.258 46.9927C185.235 46.9927 186.172 46.6045 186.863 45.9135C187.554 45.2225 187.943 44.2852 187.943 43.308C187.943 42.3308 187.554 41.3936 186.863 40.7025C186.172 40.0115 185.235 39.6233 184.258 39.6233C183.281 39.6233 182.343 40.0115 181.652 40.7025C180.961 41.3936 180.573 42.3308 180.573 43.308C180.573 44.2852 180.961 45.2225 181.652 45.9135C182.343 46.6045 183.281 46.9927 184.258 46.9927ZM135.245 45.1159C136.023 45.1159 136.769 44.8067 137.32 44.2564C137.87 43.7061 138.179 42.9598 138.179 42.1815C138.179 41.4033 137.87 40.6569 137.32 40.1066C136.769 39.5564 136.023 39.2472 135.245 39.2472C134.466 39.2472 133.72 39.5564 133.17 40.1066C132.619 40.6569 132.31 41.4033 132.31 42.1815C132.31 42.9598 132.619 43.7061 133.17 44.2564C133.72 44.8067 134.466 45.1159 135.245 45.1159ZM71.2858 83.8178C72.3001 83.8178 73.2729 83.4148 73.9901 82.6976C74.7074 81.9803 75.1103 81.0076 75.1103 79.9932C75.1103 78.9789 74.7074 78.0061 73.9901 77.2889C73.2729 76.5716 72.3001 76.1687 71.2858 76.1687C70.2714 76.1687 69.2986 76.5716 68.5814 77.2889C67.8642 78.0061 67.4612 78.9789 67.4612 79.9932C67.4612 81.0076 67.8642 81.9803 68.5814 82.6976C69.2986 83.4148 70.2714 83.8178 71.2858 83.8178ZM145.195 46.3784C146.166 46.3784 147.098 45.9926 147.784 45.3058C148.471 44.6191 148.857 43.6876 148.857 42.7164C148.857 41.7452 148.471 40.8137 147.784 40.127C147.098 39.4402 146.166 39.0544 145.195 39.0544C144.224 39.0544 143.292 39.4402 142.605 40.127C141.919 40.8137 141.533 41.7452 141.533 42.7164C141.533 43.6876 141.919 44.6191 142.605 45.3058C143.292 45.9926 144.224 46.3784 145.195 46.3784ZM171.125 49.9478C171.93 49.9478 172.702 49.6281 173.271 49.0589C173.84 48.4897 174.16 47.7178 174.16 46.9128C174.16 46.1079 173.84 45.336 173.271 44.7668C172.702 44.1976 171.93 43.8779 171.125 43.8779C170.32 43.8779 169.548 44.1976 168.979 44.7668C168.409 45.336 168.09 46.1079 168.09 46.9128C168.09 47.7178 168.409 48.4897 168.979 49.0589C169.548 49.6281 170.32 49.9478 171.125 49.9478ZM199.772 56.5252C200.498 56.5252 201.194 56.237 201.707 55.7239C202.22 55.2108 202.508 54.515 202.508 53.7894C202.508 53.0638 202.22 52.3679 201.707 51.8548C201.194 51.3417 200.498 51.0535 199.772 51.0535C199.047 51.0535 198.351 51.3417 197.838 51.8548C197.325 52.3679 197.037 53.0638 197.037 53.7894C197.037 54.515 197.325 55.2108 197.838 55.7239C198.351 56.237 199.047 56.5252 199.772 56.5252ZM97.4103 36.4253C98.0356 36.4253 98.6353 36.1769 99.0775 35.7347C99.5197 35.2926 99.7681 34.6928 99.7681 34.0675C99.7681 33.4421 99.5197 32.8424 99.0775 32.4002C98.6353 31.958 98.0356 31.7096 97.4103 31.7096C96.7849 31.7096 96.1852 31.958 95.743 32.4002C95.3008 32.8424 95.0524 33.4421 95.0524 34.0675C95.0524 34.6928 95.3008 35.2926 95.743 35.7347C96.1852 36.1769 96.7849 36.4253 97.4103 36.4253ZM118.846 29.9537C119.762 29.9537 120.64 29.5901 121.287 28.9428C121.935 28.2954 122.298 27.4175 122.298 26.502C122.298 25.5866 121.935 24.7086 121.287 24.0613C120.64 23.414 119.762 23.0503 118.846 23.0503C117.931 23.0503 117.053 23.414 116.406 24.0613C115.758 24.7086 115.395 25.5866 115.395 26.502C115.395 27.4175 115.758 28.2954 116.406 28.9428C117.053 29.5901 117.931 29.9537 118.846 29.9537ZM199.162 48.4556C200.368 48.4556 201.525 47.9765 202.377 47.1237C203.23 46.2708 203.709 45.1142 203.709 43.9081C203.709 42.702 203.23 41.5454 202.377 40.6925C201.525 39.8397 200.368 39.3606 199.162 39.3606C197.956 39.3606 196.799 39.8397 195.946 40.6925C195.094 41.5454 194.614 42.702 194.614 43.9081C194.614 45.1142 195.094 46.2708 195.946 47.1237C196.799 47.9765 197.956 48.4556 199.162 48.4556ZM113.638 50.3135C114.778 50.3135 115.871 49.8608 116.677 49.0548C117.483 48.2489 117.936 47.1558 117.936 46.016C117.936 44.8762 117.483 43.7831 116.677 42.9772C115.871 42.1712 114.778 41.7185 113.638 41.7185C112.499 41.7185 111.405 42.1712 110.6 42.9772C109.794 43.7831 109.341 44.8762 109.341 46.016C109.341 47.1558 109.794 48.2489 110.6 49.0548C111.405 49.8608 112.499 50.3135 113.638 50.3135ZM129.537 34.2102C130.674 34.2102 131.764 33.7585 132.568 32.9545C133.372 32.1505 133.824 31.0601 133.824 29.923C133.824 28.786 133.372 27.6956 132.568 26.8916C131.764 26.0876 130.674 25.6359 129.537 25.6359C128.4 25.6359 127.309 26.0875 126.506 26.8914C125.702 27.6953 125.25 28.7857 125.25 29.9226C125.25 31.0595 125.702 32.1498 126.506 32.9537C127.309 33.7576 128.4 34.2102 129.537 34.2102ZM166.698 39.4315C167.287 39.4401 167.871 39.3315 168.418 39.1122C168.964 38.8929 169.461 38.5671 169.881 38.1538C170.3 37.7406 170.633 37.2481 170.86 36.705C171.088 36.1619 171.205 35.579 171.205 34.9903C171.205 34.4016 171.088 33.8187 170.86 33.2756C170.633 32.7325 170.3 32.24 169.881 31.8268C169.461 31.4135 168.964 31.0877 168.418 30.8684C167.871 30.6491 167.287 30.5405 166.698 30.5491C165.532 30.5661 164.418 31.0415 163.599 31.8726C162.78 32.7036 162.321 33.8235 162.321 34.9903C162.321 36.1571 162.78 37.277 163.599 38.108C164.418 38.9391 165.532 39.4145 166.698 39.4315ZM212.673 67.3487C213.233 67.3606 213.789 67.2606 214.31 67.0546C214.83 66.8487 215.304 66.5409 215.704 66.1493C216.104 65.7577 216.422 65.2902 216.639 64.7741C216.856 64.2581 216.968 63.704 216.968 63.1442C216.968 62.5845 216.856 62.0303 216.639 61.5143C216.422 60.9983 216.104 60.5308 215.704 60.1392C215.304 59.7476 214.83 59.4398 214.31 59.2339C213.789 59.0279 213.233 58.9279 212.673 58.9398C211.573 58.9631 210.527 59.4163 209.757 60.2023C208.988 60.9882 208.557 62.0443 208.557 63.1442C208.557 64.2441 208.988 65.3003 209.757 66.0862C210.527 66.8722 211.573 67.3254 212.673 67.3487ZM117.876 16.4492C118.191 16.4492 118.503 16.3871 118.794 16.2665C119.086 16.1459 119.35 15.9691 119.573 15.7462C119.796 15.5233 119.973 15.2587 120.094 14.9674C120.214 14.6762 120.276 14.3641 120.276 14.0489C120.276 13.7336 120.214 13.4215 120.094 13.1303C119.973 12.839 119.796 12.5744 119.573 12.3515C119.35 12.1286 119.086 11.9518 118.794 11.8312C118.503 11.7106 118.191 11.6485 117.876 11.6485C117.239 11.6485 116.629 11.9014 116.179 12.3515C115.728 12.8017 115.475 13.4122 115.475 14.0489C115.475 14.6855 115.728 15.296 116.179 15.7462C116.629 16.1963 117.239 16.4492 117.876 16.4492Z" fill="#96AEFF" stroke="white" stroke-width="2.36258"/>
<path d="M156.21 41.9311C157.279 41.9311 158.305 41.5064 159.061 40.7503C159.817 39.9943 160.242 38.9688 160.242 37.8996C160.242 36.8304 159.817 35.8049 159.061 35.0489C158.305 34.2928 157.279 33.8681 156.21 33.8681C155.152 33.8843 154.142 34.3161 153.399 35.0703C152.657 35.8245 152.24 36.8406 152.24 37.8991C152.24 38.9577 152.657 39.9737 153.399 40.7279C154.142 41.4821 155.152 41.9149 156.21 41.9311ZM150.817 34.1875C151.244 34.1875 151.667 34.1033 152.062 33.9398C152.457 33.7763 152.815 33.5366 153.118 33.2345C153.42 32.9324 153.659 32.5737 153.823 32.1789C153.986 31.7842 154.071 31.3611 154.071 30.9338C154.071 30.5065 153.986 30.0834 153.823 29.6886C153.659 29.2938 153.42 28.9352 153.118 28.633C152.815 28.3309 152.457 28.0912 152.062 27.9277C151.667 27.7642 151.244 27.68 150.817 27.68C149.954 27.68 149.126 28.0228 148.516 28.633C147.906 29.2432 147.563 30.0708 147.563 30.9338C147.563 31.7967 147.906 32.6243 148.516 33.2345C149.126 33.8447 149.954 34.1875 150.817 34.1875ZM134.466 27.1035C135.014 27.1035 135.557 26.9956 136.064 26.7857C136.57 26.5759 137.03 26.2684 137.418 25.8807C137.806 25.493 138.113 25.0327 138.323 24.5262C138.533 24.0196 138.641 23.4767 138.641 22.9284C138.641 22.3801 138.533 21.8372 138.323 21.3306C138.113 20.8241 137.806 20.3638 137.418 19.9761C137.03 19.5884 136.57 19.2809 136.064 19.071C135.557 18.8612 135.014 18.7532 134.466 18.7532C133.359 18.7532 132.297 19.1931 131.514 19.9761C130.731 20.7591 130.291 21.8211 130.291 22.9284C130.291 24.0357 130.731 25.0977 131.514 25.8807C132.297 26.6637 133.359 27.1035 134.466 27.1035ZM88.4135 44.1283C89.0281 44.1283 89.6366 44.0073 90.2044 43.7721C90.7722 43.5369 91.2881 43.1922 91.7227 42.7576C92.1572 42.3231 92.5019 41.8072 92.7371 41.2394C92.9723 40.6716 93.0933 40.0631 93.0933 39.4485C93.0933 38.8339 92.9723 38.2254 92.7371 37.6576C92.5019 37.0898 92.1572 36.5739 91.7227 36.1394C91.2881 35.7048 90.7722 35.3601 90.2044 35.1249C89.6366 34.8898 89.0281 34.7687 88.4135 34.7687C87.1724 34.7687 85.982 35.2618 85.1044 36.1394C84.2268 37.017 83.7337 38.2073 83.7337 39.4485C83.7337 40.6897 84.2268 41.88 85.1044 42.7576C85.982 43.6353 87.1724 44.1283 88.4135 44.1283ZM59.5399 37.2371C59.8787 37.2437 60.2154 37.1826 60.5303 37.0574C60.8452 36.9323 61.1319 36.7456 61.3738 36.5084C61.6157 36.2711 61.8079 35.988 61.939 35.6755C62.0702 35.3631 62.1378 35.0277 62.1378 34.6888C62.1378 34.35 62.0702 34.0146 61.939 33.7022C61.8079 33.3897 61.6157 33.1066 61.3738 32.8693C61.1319 32.6321 60.8452 32.4454 60.5303 32.3203C60.2154 32.1951 59.8787 32.134 59.5399 32.1406C58.8726 32.1534 58.2369 32.4275 57.7695 32.904C57.3021 33.3805 57.0403 34.0214 57.0403 34.6888C57.0403 35.3563 57.3021 35.9972 57.7695 36.4737C58.2369 36.9502 58.8726 37.2243 59.5399 37.2371ZM71.6562 35.5285C72.5326 35.5285 73.373 35.1804 73.9927 34.5607C74.6124 33.941 74.9605 33.1006 74.9605 32.2242C74.9605 31.3478 74.6124 30.5074 73.9927 29.8877C73.373 29.268 72.5326 28.9199 71.6562 28.9199C70.7799 28.9199 69.9394 29.268 69.3197 29.8877C68.7 30.5074 68.3519 31.3478 68.3519 32.2242C68.3519 33.1006 68.7 33.941 69.3197 34.5607C69.9394 35.1804 70.7799 35.5285 71.6562 35.5285ZM182.665 55.5443C183.205 55.5525 183.742 55.4533 184.243 55.2523C184.744 55.0513 185.201 54.7526 185.586 54.3736C185.97 53.9947 186.276 53.5429 186.485 53.0447C186.693 52.5465 186.801 52.0118 186.801 51.4717C186.801 50.9316 186.693 50.3969 186.485 49.8987C186.276 49.4005 185.97 48.9487 185.586 48.5697C185.201 48.1907 184.744 47.8921 184.243 47.6911C183.742 47.4901 183.205 47.3908 182.665 47.3991C181.585 47.3991 180.549 47.8282 179.785 48.592C179.021 49.3559 178.592 50.3919 178.592 51.4722C178.592 52.5524 179.021 53.5884 179.785 54.3523C180.549 55.1161 181.585 55.5443 182.665 55.5443ZM137.986 34.0779C138.586 34.0779 139.161 33.8396 139.585 33.4155C140.009 32.9914 140.248 32.4162 140.248 31.8164C140.248 31.2166 140.009 30.6414 139.585 30.2173C139.161 29.7932 138.586 29.555 137.986 29.555C137.386 29.555 136.811 29.7932 136.387 30.2173C135.963 30.6414 135.725 31.2166 135.725 31.8164C135.725 32.4162 135.963 32.9914 136.387 33.4155C136.811 33.8396 137.386 34.0779 137.986 34.0779ZM89.9653 34.5334C91.1029 34.5334 92.194 34.0815 92.9984 33.277C93.8029 32.4726 94.2548 31.3815 94.2548 30.2439C94.2548 29.1062 93.8029 28.0152 92.9984 27.2107C92.194 26.4063 91.1029 25.9544 89.9653 25.9544C88.8276 25.9544 87.7366 26.4063 86.9321 27.2107C86.1277 28.0152 85.6758 29.1062 85.6758 30.2439C85.6758 31.3815 86.1277 32.4726 86.9321 33.277C87.7366 34.0815 88.8276 34.5334 89.9653 34.5334ZM27.028 87.1112C27.5177 87.1112 28.0026 87.0148 28.4551 86.8274C28.9075 86.64 29.3186 86.3653 29.6649 86.019C30.0111 85.6727 30.2858 85.2616 30.4732 84.8092C30.6606 84.3568 30.7571 83.8718 30.7571 83.3821C30.7571 82.8924 30.6606 82.4075 30.4732 81.9551C30.2858 81.5026 30.0111 81.0915 29.6649 80.7453C29.3186 80.399 28.9075 80.1243 28.4551 79.9369C28.0026 79.7495 27.5177 79.653 27.028 79.653C26.039 79.653 25.0905 80.0459 24.3911 80.7453C23.6918 81.4446 23.2989 82.3931 23.2989 83.3821C23.2989 84.3711 23.6918 85.3197 24.3911 86.019C25.0905 86.7183 26.039 87.1112 27.028 87.1112ZM36.9622 88.3984C38.1113 88.3984 39.2135 87.9418 40.026 87.1293C40.8386 86.3167 41.2951 85.2146 41.2951 84.0654C41.2951 82.9162 40.8386 81.8141 40.026 81.0015C39.2135 80.1889 38.1113 79.7324 36.9622 79.7324C35.813 79.7324 34.7109 80.1889 33.8983 81.0015C33.0857 81.8141 32.6292 82.9162 32.6292 84.0654C32.6292 85.2146 33.0857 86.3167 33.8983 87.1293C34.7109 87.9418 35.813 88.3984 36.9622 88.3984ZM71.9747 50.2001C72.5222 50.2001 73.0644 50.0923 73.5703 49.8828C74.0761 49.6732 74.5358 49.3661 74.923 48.9789C75.3101 48.5918 75.6173 48.1321 75.8268 47.6263C76.0363 47.1204 76.1442 46.5782 76.1442 46.0307C76.1442 45.4831 76.0363 44.9409 75.8268 44.4351C75.6173 43.9292 75.3101 43.4696 74.923 43.0824C74.5358 42.6952 74.0761 42.3881 73.5703 42.1786C73.0644 41.969 72.5222 41.8612 71.9747 41.8612C70.8687 41.8612 69.8081 42.3005 69.0261 43.0825C68.2441 43.8645 67.8047 44.9252 67.8047 46.0311C67.8047 47.1371 68.2441 48.1977 69.0261 48.9797C69.8081 49.7618 70.8687 50.2001 71.9747 50.2001ZM28.2537 77.8291C29.1109 77.8291 29.933 77.4886 30.5391 76.8825C31.1452 76.2764 31.4857 75.4543 31.4857 74.5971C31.4857 73.7399 31.1452 72.9178 30.5391 72.3117C29.933 71.7056 29.1109 71.3651 28.2537 71.3651C27.3965 71.3651 26.5744 71.7056 25.9683 72.3117C25.3622 72.9178 25.0217 73.7399 25.0217 74.5971C25.0217 75.4543 25.3622 76.2764 25.9683 76.8825C26.5744 77.4886 27.3965 77.8291 28.2537 77.8291ZM158.565 30.9149C159.503 30.9149 160.403 30.5422 161.066 29.879C161.729 29.2157 162.102 28.3161 162.102 27.3781C162.102 26.4401 161.729 25.5405 161.066 24.8772C160.403 24.2139 159.503 23.8413 158.565 23.8413C157.627 23.8413 156.728 24.2139 156.064 24.8772C155.401 25.5405 155.028 26.4401 155.028 27.3781C155.028 28.3161 155.401 29.2157 156.064 29.879C156.728 30.5422 157.627 30.9149 158.565 30.9149ZM60.1117 45.7651C60.9652 45.7651 61.7838 45.426 62.3874 44.8225C62.9909 44.2189 63.33 43.4003 63.33 42.5468C63.33 41.6932 62.9909 40.8747 62.3874 40.2711C61.7838 39.6676 60.9652 39.3285 60.1117 39.3285C59.2583 39.3285 58.4398 39.6675 57.8363 40.271C57.2329 40.8744 56.8939 41.6929 56.8939 42.5463C56.8939 43.3997 57.2329 44.2182 57.8363 44.8217C58.4398 45.4251 59.2583 45.7651 60.1117 45.7651Z" fill="#96AEFF" stroke="white" stroke-width="2.36258"/>
<path d="M44.5101 84.5284C45.7072 84.5284 46.8552 84.0529 47.7016 83.2065C48.5481 82.36 49.0236 81.212 49.0236 80.015C49.0236 78.8179 48.5481 77.6699 47.7016 76.8234C46.8552 75.977 45.7072 75.5015 44.5101 75.5015C43.3131 75.5015 42.1651 75.977 41.3186 76.8234C40.4722 77.6699 39.9967 78.8179 39.9967 80.015C39.9967 81.212 40.4722 82.36 41.3186 83.2065C42.1651 84.0529 43.3131 84.5284 44.5101 84.5284ZM191.235 53.813C191.821 53.8215 192.403 53.7135 192.947 53.4951C193.491 53.2767 193.986 52.9523 194.404 52.5408C194.822 52.1293 195.153 51.6389 195.379 51.0981C195.606 50.5573 195.722 49.9769 195.722 49.3907C195.722 48.8045 195.606 48.2241 195.379 47.6833C195.153 47.1425 194.822 46.6521 194.404 46.2406C193.986 45.8291 193.491 45.5047 192.947 45.2863C192.403 45.0679 191.821 44.9598 191.235 44.9684C190.062 44.9684 188.937 45.4344 188.108 46.2638C187.278 47.0932 186.812 48.2182 186.812 49.3912C186.812 50.5642 187.278 51.6891 188.108 52.5185C188.937 53.348 190.062 53.813 191.235 53.813ZM207.179 53.2866C207.583 53.2937 207.984 53.2203 208.359 53.0706C208.734 52.921 209.076 52.6981 209.364 52.4149C209.652 52.1318 209.881 51.7941 210.038 51.4215C210.194 51.049 210.274 50.649 210.274 50.245C210.274 49.841 210.194 49.441 210.038 49.0685C209.881 48.6959 209.652 48.3582 209.364 48.0751C209.076 47.7919 208.734 47.569 208.359 47.4194C207.984 47.2697 207.583 47.1963 207.179 47.2034C206.381 47.2175 205.621 47.5441 205.062 48.113C204.503 48.6819 204.19 49.4475 204.19 50.245C204.19 51.0425 204.503 51.8082 205.062 52.377C205.621 52.9459 206.381 53.2725 207.179 53.2866ZM102.029 45.7585C102.927 45.7585 103.789 45.4015 104.424 44.7662C105.06 44.1308 105.417 43.2691 105.417 42.3705C105.417 41.472 105.06 40.6102 104.424 39.9749C103.789 39.3395 102.927 38.9826 102.029 38.9826C101.13 38.9826 100.268 39.3395 99.633 39.9749C98.9976 40.6102 98.6407 41.472 98.6407 42.3705C98.6407 43.2691 98.9976 44.1308 99.633 44.7662C100.268 45.4015 101.13 45.7585 102.029 45.7585ZM176.396 41.95C176.773 41.9569 177.148 41.8886 177.498 41.749C177.848 41.6095 178.167 41.4016 178.436 41.1375C178.705 40.8733 178.919 40.5582 179.065 40.2105C179.211 39.8628 179.286 39.4896 179.286 39.1125C179.286 38.7355 179.211 38.3622 179.065 38.0145C178.919 37.6669 178.705 37.3517 178.436 37.0876C178.167 36.8234 177.848 36.6155 177.498 36.476C177.148 36.3365 176.773 36.2682 176.396 36.2751C175.652 36.2886 174.944 36.5935 174.423 37.1242C173.902 37.6548 173.61 38.3688 173.61 39.1125C173.61 39.8562 173.902 40.5702 174.423 41.1008C174.944 41.6315 175.652 41.9364 176.396 41.95ZM175.177 34.8405C176.404 34.8405 177.581 34.3529 178.449 33.485C179.317 32.6172 179.805 31.44 179.805 30.2127C179.805 28.9853 179.317 27.8082 178.449 26.9403C177.581 26.0724 176.404 25.5848 175.177 25.5848C173.95 25.5848 172.772 26.0724 171.905 26.9403C171.037 27.8082 170.549 28.9853 170.549 30.2127C170.549 31.44 171.037 32.6172 171.905 33.485C172.772 34.3529 173.95 34.8405 175.177 34.8405ZM118.122 42.7277C119.219 42.7277 120.271 42.2918 121.047 41.5158C121.823 40.7398 122.259 39.6873 122.259 38.5899C122.259 37.4925 121.823 36.44 121.047 35.664C120.271 34.888 119.219 34.4521 118.122 34.4521C117.024 34.4521 115.972 34.888 115.196 35.664C114.42 36.44 113.984 37.4925 113.984 38.5899C113.984 39.6873 114.42 40.7398 115.196 41.5158C115.972 42.2918 117.024 42.7277 118.122 42.7277ZM205.553 62.7275C206.019 62.7275 206.481 62.6357 206.911 62.4573C207.342 62.2789 207.733 62.0174 208.063 61.6878C208.393 61.3582 208.654 60.9669 208.833 60.5363C209.011 60.1056 209.103 59.6441 209.103 59.1779C209.103 58.7118 209.011 58.2502 208.833 57.8196C208.654 57.3889 208.393 56.9976 208.063 56.668C207.733 56.3384 207.342 56.077 206.911 55.8986C206.481 55.7202 206.019 55.6284 205.553 55.6284C204.612 55.6284 203.709 56.0024 203.043 56.668C202.378 57.3337 202.004 58.2365 202.004 59.1779C202.004 60.1193 202.378 61.0222 203.043 61.6878C203.709 62.3535 204.612 62.7275 205.553 62.7275ZM36.1116 94.7754C36.6638 94.7754 37.1933 94.5561 37.5838 94.1656C37.9742 93.7752 38.1935 93.2457 38.1935 92.6935C38.1935 92.1414 37.9742 91.6118 37.5838 91.2214C37.1933 90.8309 36.6638 90.6116 36.1116 90.6116C35.5595 90.6116 35.0299 90.8309 34.6395 91.2214C34.2491 91.6118 34.0297 92.1414 34.0297 92.6935C34.0297 93.2457 34.2491 93.7752 34.6395 94.1656C35.0299 94.5561 35.5595 94.7754 36.1116 94.7754ZM79.861 37.0509C80.8918 37.0509 81.8805 36.6414 82.6094 35.9125C83.3384 35.1835 83.7479 34.1949 83.7479 33.164C83.7479 32.1331 83.3384 31.1445 82.6094 30.4155C81.8805 29.6866 80.8918 29.2771 79.861 29.2771C78.8301 29.2771 77.8414 29.6866 77.1125 30.4155C76.3836 31.1445 75.9741 32.1331 75.9741 33.164C75.9741 34.1949 76.3836 35.1835 77.1125 35.9125C77.8414 36.6414 78.8301 37.0509 79.861 37.0509ZM108.232 30.7135C108.601 30.7203 108.967 30.6536 109.31 30.5171C109.653 30.3807 109.965 30.1773 110.228 29.9188C110.491 29.6604 110.7 29.352 110.843 29.0119C110.986 28.6717 111.06 28.3064 111.06 27.9375C111.06 27.5686 110.986 27.2034 110.843 26.8632C110.7 26.523 110.491 26.2146 110.228 25.9562C109.965 25.6977 109.653 25.4943 109.31 25.3579C108.967 25.2214 108.601 25.1547 108.232 25.1615C107.504 25.1749 106.811 25.4733 106.302 25.9924C105.792 26.5116 105.507 27.21 105.507 27.9375C105.507 28.665 105.792 29.3635 106.302 29.8826C106.811 30.4017 107.504 30.7001 108.232 30.7135ZM188.8 39.2623C189.726 39.2623 190.615 38.8943 191.27 38.2391C191.925 37.584 192.293 36.6955 192.293 35.769C192.293 34.8425 191.925 33.954 191.27 33.2988C190.615 32.6437 189.726 32.2757 188.8 32.2757C187.873 32.2757 186.985 32.6437 186.329 33.2988C185.674 33.954 185.306 34.8425 185.306 35.769C185.306 36.6955 185.674 37.584 186.329 38.2391C186.985 38.8943 187.873 39.2623 188.8 39.2623ZM100.473 25.1076C101.044 25.1076 101.608 24.9953 102.135 24.777C102.662 24.5587 103.141 24.2387 103.545 23.8353C103.948 23.432 104.268 22.9531 104.486 22.4261C104.705 21.8991 104.817 21.3342 104.817 20.7638C104.817 20.1933 104.705 19.6285 104.486 19.1014C104.268 18.5744 103.948 18.0956 103.545 17.6922C103.141 17.2888 102.662 16.9689 102.135 16.7506C101.608 16.5323 101.044 16.4199 100.473 16.4199C99.321 16.4199 98.2161 16.8776 97.4015 17.6922C96.5869 18.5068 96.1292 19.6117 96.1292 20.7638C96.1292 21.9158 96.5869 23.0207 97.4015 23.8353C98.2161 24.65 99.321 25.1076 100.473 25.1076Z" fill="#96AEFF" stroke="white" stroke-width="2.36258"/>
<path d="M168.618 29.2563C169.683 29.2563 170.705 28.8331 171.458 28.0798C172.211 27.3265 172.634 26.3048 172.634 25.2395C172.634 24.1741 172.211 23.1524 171.458 22.3991C170.705 21.6458 169.683 21.2226 168.618 21.2226C167.552 21.2226 166.531 21.6457 165.778 22.399C165.024 23.1522 164.601 24.1738 164.601 25.239C164.601 26.3042 165.024 27.3258 165.778 28.079C166.531 28.8322 167.552 29.2563 168.618 29.2563ZM80.8958 24.9734C81.7492 24.9734 82.5677 24.6344 83.1712 24.0309C83.7746 23.4275 84.1137 22.609 84.1137 21.7556C84.1137 20.9022 83.7746 20.0837 83.1712 19.4802C82.5677 18.8768 81.7492 18.5378 80.8958 18.5378C80.0424 18.5378 79.2239 18.8768 78.6205 19.4802C78.017 20.0837 77.678 20.9022 77.678 21.7556C77.678 22.609 78.017 23.4275 78.6205 24.0309C79.2239 24.6344 80.0424 24.9734 80.8958 24.9734ZM88.6224 22.4861C89.0886 22.4861 89.5502 22.3943 89.9809 22.2159C90.4116 22.0375 90.803 21.776 91.1326 21.4463C91.4623 21.1167 91.7238 20.7253 91.9022 20.2946C92.0806 19.8639 92.1724 19.4023 92.1724 18.9361C92.1724 18.4699 92.0806 18.0083 91.9022 17.5776C91.7238 17.1468 91.4623 16.7555 91.1326 16.4258C90.803 16.0962 90.4116 15.8347 89.9809 15.6563C89.5502 15.4779 89.0886 15.3861 88.6224 15.3861C87.6809 15.3861 86.7779 15.7601 86.1122 16.4258C85.4464 17.0916 85.0724 17.9946 85.0724 18.9361C85.0724 19.8776 85.4464 20.7806 86.1122 21.4463C86.7779 22.1121 87.6809 22.4861 88.6224 22.4861ZM143.336 18.0369C144.441 18.0369 145.5 17.5981 146.281 16.8171C147.062 16.036 147.501 14.9767 147.501 13.8721C147.501 12.7676 147.062 11.7082 146.281 10.9272C145.5 10.1462 144.441 9.70737 143.336 9.70737C142.231 9.70737 141.172 10.1462 140.391 10.9272C139.61 11.7082 139.171 12.7676 139.171 13.8721C139.171 14.9767 139.61 16.036 140.391 16.8171C141.172 17.5981 142.231 18.0369 143.336 18.0369ZM126.602 18.9195C127.028 18.9195 127.45 18.8357 127.843 18.6728C128.236 18.5099 128.593 18.2711 128.894 17.9701C129.195 17.6691 129.434 17.3118 129.597 16.9185C129.76 16.5253 129.844 16.1038 129.844 15.6781C129.844 15.2524 129.76 14.8309 129.597 14.4376C129.434 14.0444 129.195 13.687 128.894 13.386C128.593 13.085 128.236 12.8463 127.843 12.6834C127.45 12.5205 127.028 12.4366 126.602 12.4366C125.743 12.4366 124.918 12.7781 124.31 13.386C123.702 13.9939 123.361 14.8184 123.361 15.6781C123.361 16.5378 123.702 17.3623 124.31 17.9701C124.918 18.578 125.743 18.9195 126.602 18.9195ZM151.653 22.8755C151.983 22.8819 152.31 22.8225 152.617 22.7009C152.923 22.5792 153.202 22.3977 153.437 22.1669C153.673 21.9362 153.86 21.6608 153.987 21.3569C154.115 21.053 154.18 20.7267 154.18 20.3971C154.18 20.0675 154.115 19.7412 153.987 19.4373C153.86 19.1334 153.673 18.8581 153.437 18.6273C153.202 18.3965 152.923 18.215 152.617 18.0933C152.31 17.9717 151.983 17.9123 151.653 17.9188C151.004 17.9314 150.386 18.1981 149.932 18.6615C149.477 19.1249 149.223 19.7481 149.223 20.3971C149.223 21.0461 149.477 21.6693 149.932 22.1327C150.386 22.5961 151.004 22.8628 151.653 22.8755Z" fill="#96AEFF" stroke="white" stroke-width="2.36258"/>
<path d="M143.377 26.6811C143.98 26.6811 144.578 26.5622 145.136 26.3312C145.693 26.1002 146.2 25.7616 146.627 25.3348C147.054 24.9079 147.392 24.4012 147.623 23.8435C147.854 23.2858 147.973 22.6881 147.973 22.0845C147.973 21.4808 147.854 20.8831 147.623 20.3254C147.392 19.7677 147.054 19.261 146.627 18.8342C146.2 18.4073 145.693 18.0687 145.136 17.8377C144.578 17.6067 143.98 17.4878 143.377 17.4878C142.158 17.4878 140.988 17.9721 140.126 18.8342C139.264 19.6962 138.78 20.8654 138.78 22.0845C138.78 23.3036 139.264 24.4727 140.126 25.3348C140.988 26.1968 142.158 26.6811 143.377 26.6811ZM161.619 22.2206C162.461 22.2206 163.269 21.8859 163.865 21.2903C164.46 20.6946 164.795 19.8867 164.795 19.0443C164.795 18.2019 164.46 17.394 163.865 16.7984C163.269 16.2027 162.461 15.868 161.619 15.868C160.776 15.868 159.968 16.2027 159.373 16.7984C158.777 17.394 158.442 18.2019 158.442 19.0443C158.442 19.8867 158.777 20.6946 159.373 21.2903C159.968 21.8859 160.776 22.2206 161.619 22.2206ZM19.0897 99.7019C20.1479 99.7019 21.1628 99.2815 21.911 98.5333C22.6593 97.785 23.0796 96.7702 23.0796 95.712C23.0796 94.6538 22.6593 93.6389 21.911 92.8907C21.1628 92.1424 20.1479 91.722 19.0897 91.722C18.0315 91.722 17.0167 92.1424 16.2684 92.8907C15.5202 93.6389 15.0998 94.6538 15.0998 95.712C15.0998 96.7702 15.5202 97.785 16.2684 98.5333C17.0167 99.2815 18.0315 99.7019 19.0897 99.7019ZM109.62 21.9474C110.19 21.9474 110.736 21.7211 111.139 21.3182C111.542 20.9152 111.769 20.3687 111.769 19.7989C111.769 19.2291 111.542 18.6826 111.139 18.2797C110.736 17.8767 110.19 17.6504 109.62 17.6504C109.05 17.6504 108.504 17.8767 108.101 18.2797C107.698 18.6826 107.472 19.2291 107.472 19.7989C107.472 20.3687 107.698 20.9152 108.101 21.3182C108.504 21.7211 109.05 21.9474 109.62 21.9474ZM183.416 31.7815C184.103 31.7815 184.763 31.5083 185.249 31.0221C185.735 30.5358 186.008 29.8764 186.008 29.1888C186.008 28.5011 185.735 27.8417 185.249 27.3554C184.763 26.8692 184.103 26.5961 183.416 26.5961C182.728 26.5961 182.069 26.8692 181.583 27.3553C181.097 27.8414 180.824 28.5008 180.824 29.1883C180.824 29.8758 181.097 30.5351 181.583 31.0213C182.069 31.5074 182.728 31.7815 183.416 31.7815ZM134.966 18.8128C135.96 18.8128 136.914 18.4178 137.617 17.7147C138.32 17.0117 138.715 16.0581 138.715 15.0638C138.715 14.0695 138.32 13.116 137.617 12.4129C136.914 11.7099 135.96 11.3149 134.966 11.3149C133.972 11.3149 133.018 11.7099 132.315 12.4129C131.612 13.116 131.217 14.0695 131.217 15.0638C131.217 16.0581 131.612 17.0117 132.315 17.7147C133.018 18.4178 133.972 18.8128 134.966 18.8128ZM49.3535 75.7415C49.9207 75.7415 50.4824 75.6298 51.0065 75.4127C51.5306 75.1956 52.0068 74.8774 52.408 74.4763C52.8091 74.0752 53.1273 73.599 53.3444 73.0749C53.5615 72.5508 53.6732 71.9891 53.6732 71.4218C53.6732 70.8545 53.5615 70.2928 53.3444 69.7687C53.1273 69.2446 52.8091 68.7684 52.408 68.3673C52.0068 67.9661 51.5306 67.648 51.0065 67.4309C50.4824 67.2138 49.9207 67.102 49.3535 67.102C48.2078 67.102 47.109 67.5572 46.2989 68.3673C45.4888 69.1774 45.0337 70.2761 45.0337 71.4218C45.0337 72.5675 45.4888 73.6662 46.2989 74.4763C47.109 75.2864 48.2078 75.7415 49.3535 75.7415Z" fill="#96AEFF" stroke="white" stroke-width="2.36258"/>
<path d="M168.799 55.3411L164.341 55.2353L159.883 55.3373L155.425 55.6473L150.969 56.1604L146.518 56.8721L142.071 57.7708L137.631 58.8481L133.198 60.0899L128.771 61.4829L124.352 63.01L119.942 64.6553L115.538 66.4018L111.141 68.2313L106.751 70.1261L102.367 72.0691L97.9896 74.0414L89.2518 78.0105L84.8914 79.9772L80.5348 81.9126L76.1829 83.8045L71.8358 85.6426L67.4924 87.4174L63.1519 89.1194L58.8142 90.7449L54.4793 92.2853L50.1463 93.7387L45.8153 95.1034L41.4861 96.3773L37.1559 97.5604L32.8277 98.6548L28.4985 99.6603L24.1683 100.581L19.8382 101.418L15.5062 102.178L10.7545 102.929L10.5447 104.375C9.12722 114.157 8.96969 124.081 10.076 133.904L10.3784 136.59L16.6534 133.805L21.0289 131.832L29.7667 127.863L34.1271 125.897L38.4818 123.967L42.8308 122.091L47.1723 120.284L51.5081 118.564L55.8364 116.95L60.1571 115.457L64.4702 114.099L68.7767 112.892L73.0757 111.849L77.3671 110.98L81.6528 110.297L85.9338 109.803L90.2101 109.506L94.4844 109.407L98.7579 109.51L103.031 109.811L107.309 110.308L111.59 110.995L115.874 111.865L120.167 112.91L124.466 114.116L128.771 115.474L133.084 116.966L137.406 118.579L141.734 120.296L146.069 122.101L150.411 123.975L154.76 125.903L159.114 127.865L167.842 131.829L172.212 133.801L176.588 135.744L180.969 137.65L185.354 139.504L189.742 141.297L194.133 143.019L198.528 144.666L202.926 146.23L207.325 147.707L211.726 149.094L216.128 150.39L220.532 151.594L224.934 152.707L229.338 153.73L235.53 155.049L236.044 153.281C238.963 143.253 240.51 132.875 240.642 122.431L240.652 120.974L240.642 119.505L240.612 117.933C240.24 103.769 237.27 89.7938 231.848 76.7036L231.448 75.7491L230.734 74.0972L226.232 72.0729L221.857 70.1337L217.473 68.2417L213.083 66.414L208.686 64.6705L204.282 63.0261L199.872 61.4999L195.453 60.1078L191.026 58.8661L186.594 57.7878L182.152 56.8862L177.707 56.1727L173.256 55.6558L168.799 55.3411ZM164.295 57.217L168.661 57.3191L173.027 57.6243L177.393 58.1299L181.759 58.8292L186.125 59.7138L190.491 60.7741L194.857 61.9979L199.223 63.3729L203.589 64.8831L207.955 66.5123L212.322 68.2446L216.688 70.0609L221.054 71.9463L225.42 73.8808L229.222 75.5913C235.052 88.9824 238.246 103.371 238.63 117.971L238.661 119.517L238.67 120.961L238.661 122.405C238.53 132.67 237.009 142.87 234.14 152.727L229.786 151.801L225.42 150.786L221.054 149.682L216.688 148.488L212.322 147.203L207.955 145.828L203.589 144.362L199.223 142.81L194.857 141.175L190.491 139.461L186.125 137.678L181.759 135.832L177.393 133.933L173.027 131.994L168.661 130.025L159.929 126.058L155.563 124.09L151.197 122.156L146.831 120.271L142.465 118.454L138.099 116.722L133.733 115.093L129.367 113.583L125 112.208L120.634 110.984L116.268 109.923L111.902 109.039L107.536 108.339L103.17 107.834L98.8042 107.529L94.4381 107.427L90.0721 107.529L85.706 107.834L81.34 108.339L76.9739 109.039L72.6079 109.923L68.2418 110.984L63.8758 112.208L59.5097 113.583L55.1437 115.093L50.7776 116.722L46.4116 118.454L42.0455 120.271L37.6795 122.156L33.3134 124.09L28.9474 126.058L20.2153 130.025L15.8492 131.994L12.0455 133.682C10.9581 124.028 11.1131 114.274 12.5066 104.659L15.8483 104.13L20.2143 103.365L24.5804 102.519L28.9464 101.59L33.3125 100.576L37.6785 99.4722L42.0446 98.2787L46.4106 96.9934L50.7767 95.6174L55.1427 94.1526L59.5088 92.6L63.8748 90.965L68.2409 89.2517L72.6069 87.4684L76.973 85.6218L81.339 83.7242L85.7051 81.7841L90.0711 79.8156L98.8032 75.8483L103.169 73.8808L107.535 71.9463L111.901 70.0609L116.267 68.2446L120.633 66.5123L125 64.8831L129.366 63.3729L133.732 61.9979L138.098 60.7741L142.464 59.7138L146.83 58.8283L151.197 58.1289L155.563 57.6243L159.929 57.3191L164.295 57.217Z" fill="white"/>
<path d="M164.295 56.7445L168.683 56.8465L173.071 57.1537L177.457 57.6612L181.843 58.3633L186.228 59.2517L190.611 60.3167L194.992 61.5452L199.372 62.925L203.749 64.438L208.13 66.0729L212.503 67.808L216.875 69.6272L221.245 71.5144L225.614 73.4498L229.584 75.2388C235.563 88.9128 238.801 103.626 239.117 118.547L239.133 119.514L239.142 120.964L239.133 122.411C239 132.865 237.431 143.251 234.471 153.279L229.68 152.261L225.304 151.244L220.929 150.138L216.554 148.942L212.179 147.654L207.805 146.276L203.432 144.807L199.058 143.252L194.685 141.614L190.313 139.899L185.941 138.113L181.571 136.265L177.201 134.366L172.833 132.425L168.465 130.455L159.735 126.489L155.371 124.523L151.01 122.59L146.649 120.707L142.291 118.893L137.934 117.165L133.573 115.538L129.218 114.031L124.865 112.661L120.514 111.441L116.165 110.385L111.818 109.504L107.471 108.807L103.127 108.305L98.7815 108.001L94.4381 107.899L90.0938 108.001L85.7495 108.305L81.4042 108.807L77.0571 109.504L72.7099 110.385L68.3609 111.441L64.01 112.66L59.6571 114.031L55.3034 115.538L50.9515 117.161L46.593 118.891L42.2326 120.705L37.8704 122.588L33.5071 124.521L29.142 126.488L20.409 130.456L16.041 132.426L11.6495 134.377C10.4638 124.359 10.6115 114.227 12.0889 104.247L15.767 103.664L20.1245 102.9L24.483 102.057L28.8396 101.131L33.1972 100.118L37.5538 99.0167L41.9113 97.826L46.2689 96.5426L50.6274 95.1695L54.9849 93.7075L59.3434 92.1577L63.7028 90.5247L68.0632 88.8142L72.4236 87.0328L76.7849 85.189L81.1481 83.2923L85.5113 81.3531L89.8765 79.3846L98.6095 75.4174L102.978 73.4489L107.349 71.5116L111.721 69.6253L116.094 67.8051L120.469 66.0701L124.841 64.438L129.218 62.924L133.597 61.5452L137.979 60.3167L142.362 59.2526L146.747 58.3643L151.132 57.6612L155.519 57.1537L159.907 56.8465L164.295 56.7445Z" fill="#96AEFF" stroke="white" stroke-width="9.45033"/>
<path d="M94.4381 109.61L98.8042 109.712L103.17 110.017L107.536 110.523L111.902 111.222L116.268 112.106L120.634 113.167L125.001 114.391L129.367 115.766L133.733 117.276L138.099 118.905L142.465 120.637L146.831 122.454L151.197 124.339L155.563 126.273L159.929 128.241L164.295 130.225L168.661 132.208L173.027 134.177L177.393 136.117L181.759 138.015L186.125 139.861L190.491 141.644L194.857 143.358L199.223 144.993L203.589 146.545L207.955 148.01L212.322 149.387L216.688 150.672L221.054 151.865L225.42 152.969L229.786 153.984L233.523 154.777C228.566 170.686 220.172 185.31 208.936 197.615C197.699 209.919 183.894 219.602 168.499 225.978C140.647 237.514 109.353 237.513 81.5013 225.977C53.6495 214.44 31.521 192.312 19.9837 164.46C16.1766 155.269 13.5926 145.618 12.2978 135.754L15.8483 134.177L20.2143 132.208L24.5804 130.224L28.9464 128.241L33.3125 126.273L37.6785 124.339L42.0446 122.454L46.4106 120.637L50.7767 118.905L55.1427 117.276L59.5088 115.766L63.8748 114.391L68.2409 113.167L72.6069 112.106L76.973 111.222L81.339 110.523L85.7051 110.017L90.0712 109.712L94.4381 109.61Z" fill="#7779F0"/>
<path d="M103.17 139.043V153.684H129.367V173.904H155.563V187.734H181.759V193.571H207.955V198.673C192.154 215.542 171.585 227.192 148.992 232.071C126.398 236.949 102.855 234.824 81.5007 225.978C57.0879 215.865 36.961 197.563 24.5804 174.219V160.578H50.7767V142.331H76.973V139.043H103.17Z" fill="#2E31FF"/>
<path d="M104.064 138.149V152.79H130.261V173.009H156.457V186.84H182.653V192.677H208.849L208.851 197.707C208.262 198.349 207.664 198.987 207.06 199.618L207.06 194.464H182.653V218.924C182.06 219.274 181.462 219.618 180.863 219.956V188.628L156.457 188.627V230.191C155.861 230.363 155.265 230.529 154.667 230.691V174.797H130.261V234.509C129.664 234.536 129.067 234.559 128.471 234.578V154.578H104.064V232.685C103.466 232.573 102.87 232.457 102.273 232.335L102.274 139.936H77.867V141.438L77.8679 224.398C77.2678 224.125 76.6715 223.847 76.0771 223.564L76.078 143.226H51.6706V159.683V207.814C51.069 207.306 50.4727 206.792 49.8817 206.272V161.472H25.4743L25.4734 175.871C24.8591 174.756 24.2619 173.631 23.6844 172.496L23.6863 159.683H49.8826V141.438H76.079V138.149H104.064Z" fill="white"/>
<path d="M125 0C156.815 0.000900012 187.348 12.5352 209.987 34.8879C232.625 57.2406 245.546 87.6121 245.951 119.424L245.961 120.961L245.951 122.498C245.546 154.31 232.625 184.681 209.987 207.034C187.348 229.387 156.815 241.921 125 241.922C92.9201 241.921 62.1538 229.177 39.4694 206.493C16.7849 183.809 4.04038 153.043 4.03912 120.962C4.03962 88.8814 16.7839 58.1146 39.4684 35.4299C62.1529 12.7452 92.9196 0.000751892 125 0ZM125 3.97197C93.9732 3.97272 64.2169 16.2986 42.2773 38.2382C20.3377 60.1778 8.01185 89.9341 8.0111 120.961C8.0121 151.988 20.3381 181.745 42.2777 203.684C64.2172 225.623 93.9734 237.949 125 237.95C155.77 237.949 185.3 225.826 207.195 204.207C229.091 182.589 241.588 153.215 241.979 122.448L241.989 120.961L241.979 119.475C241.588 88.7077 229.091 59.3334 207.196 37.7146C185.301 16.0958 155.77 3.97296 125 3.97197Z" fill="#4143BF"/>
</svg>
