<svg width="128" height="128" viewBox="0 0 128 128" fill="none" xmlns="http://www.w3.org/2000/svg">
<path d="M54.32 27.164L33.304 16.559L10.226 28.071L31.82 38.911L54.32 27.164ZM63.961 32.031L86 43.16L63.137 54.637L41.512 43.782L63.961 32.031ZM93.398 16.715L116.043 28.07L95.789 38.238L73.707 27.097L93.398 16.715ZM83.652 11.824L63.265 1.601L43.101 11.667L64.109 22.257L83.652 11.824ZM67.715 99.605V127.421L92.41 115.097L92.387 87.269L67.715 99.605ZM92.375 77.555L92.348 50.02L67.715 62.266V89.813L92.375 77.555ZM122.02 72.398V100.324L100.954 110.832L100.938 83.035L122.02 72.398ZM122.02 62.633V35.266L100.915 45.758L100.931 73.348L122.02 62.633Z" fill="#B3B3E6"/>
<path d="M58.996 62.266L42.367 53.899V90.039C42.367 90.039 22.019 46.756 20.14 42.865C19.898 42.361 18.898 41.814 18.644 41.677C14.976 39.763 4.289 34.353 4.289 34.353V98.224L19.074 106.15V72.75C19.074 72.75 39.203 111.426 39.41 111.852C39.62 112.274 41.629 116.344 43.793 117.778C46.663 119.684 58.988 127.094 58.988 127.094L58.996 62.266Z" fill="#2E31FF"/>
</svg>
