<svg width="176" height="176" viewBox="0 0 176 176" fill="none" xmlns="http://www.w3.org/2000/svg">
<g clip-path="url(#clip0_4102_13)">
<path d="M77.5525 175.887C61.078 174.7 44.7951 170.553 34.8089 165.002C29.1208 161.84 24.7872 157.954 23.0867 154.49L22.075 152.429V87.792V23.1546L22.8756 21.529C26.4533 14.2652 37.8715 7.71688 53.8108 3.78781C59.2214 2.45398 67.0323 1.1257 73.4047 0.45589C79.9116 -0.228247 97.1587 -0.124161 103.649 0.639428C120.901 2.66619 135.58 7.20362 144.627 13.3055C148.115 15.6587 151.695 19.4239 152.908 22.0156L153.948 24.2377L153.859 88.6796L153.77 153.122L152.935 154.818C152.476 155.75 151.089 157.585 149.854 158.895C142.331 166.869 126.196 172.768 105.032 175.281C100.719 175.793 81.9782 176.207 77.5525 175.887ZM107.913 120.502C107.849 120.337 105.386 118.143 102.44 115.626C99.493 113.11 96.9551 110.932 96.7999 110.788C96.6448 110.643 97.1892 110.131 98.0098 109.65C98.8303 109.169 100.402 107.831 101.503 106.677C104.723 103.301 106.242 99.1306 106.242 93.6682C106.242 88.2906 104.604 83.9518 101.322 80.6397C98.0151 77.3013 94.2179 75.8668 88.6882 75.8668C80.1646 75.8668 73.6184 80.8404 71.5291 88.9037C70.8103 91.6772 70.8142 97.2814 71.5366 99.7407C73.4208 106.156 78.5526 110.815 84.9393 111.909C87.1006 112.279 87.3933 112.438 88.8668 114.049C89.7425 115.007 91.5395 116.918 92.8601 118.296L95.2613 120.802H101.645C105.155 120.802 107.976 120.667 107.913 120.502ZM86.0218 102.629C84.4851 101.828 83.9041 101.206 83.0278 99.4246C82.351 98.0487 82.2353 97.266 82.2277 94.0139C82.2201 90.7094 82.3253 89.9953 83.032 88.5604C84.1882 86.2123 85.7815 85.1007 88.2462 84.9225C91.6771 84.6736 93.6574 86.3574 94.6954 90.4039C95.9679 95.3651 94.5685 100.64 91.5154 102.39C89.9136 103.309 87.5243 103.413 86.0218 102.629ZM57.7283 111.838C64.4208 110.569 68.2199 106.677 68.2199 101.09C68.2199 96.1332 65.7671 93.245 58.9883 90.2188C55.1078 88.4865 53.7023 87.3991 53.7023 86.1287C53.7023 85.0757 55.0361 83.9218 56.589 83.6319C58.1052 83.3488 62.1264 84.0472 64.5011 85.0064L66.4916 85.8105V81.4046V76.9983L64.3312 76.519C62.996 76.2228 60.1904 76.0451 56.986 76.0542C52.447 76.0542 51.5582 76.1648 49.8501 76.8431C44.8606 78.8239 42.493 82.198 42.5308 87.2736C42.5663 92.0251 45.0729 94.989 51.3114 97.6553C54.9922 99.2286 56.4676 100.427 56.4676 101.842C56.4676 104.851 51.4551 105.221 46.148 102.604C44.6947 101.888 43.3889 101.243 43.2463 101.172C43.1037 101.1 42.9871 103.159 42.9871 105.746C42.9871 110.428 42.9921 110.451 43.8399 110.774C47.0325 111.988 54.0888 112.528 57.7283 111.838ZM134.24 107.494V103.519H128.191H122.142V89.8659V76.2126H116.784H111.427V93.8409V111.469H122.833H134.24V107.494ZM96.9092 37.8359C107.556 37.0975 115.537 35.7033 122.559 33.3552C129.556 31.0159 133.689 28.1854 134.613 25.0998C134.969 23.9108 134.944 23.4598 134.446 22.1562C132.214 16.3117 119.745 11.8214 100.692 10.0008C92.5418 9.22186 77.7196 9.47437 69.9486 10.5241C58.0911 12.1262 48.4682 15.102 44.1894 18.49C35.534 25.344 44.6872 32.8824 65.9732 36.4306C75.2027 37.969 87.1603 38.5123 96.9092 37.8359Z" fill="#2E31FF"/>
</g>
<defs>
<clipPath id="clip0_4102_13">
<rect width="176" height="176" fill="white"/>
</clipPath>
</defs>
</svg>
