<svg width="112" height="112" viewBox="0 0 112 112" fill="none" xmlns="http://www.w3.org/2000/svg">
<path d="M53.7718 52.9163C53.9764 52.9787 54.1969 52.9618 54.3895 52.8688C54.582 52.7758 54.7325 52.6137 54.8108 52.4147C54.8891 52.2157 54.8896 51.9945 54.812 51.7953C54.7345 51.596 54.5847 51.4332 54.3925 51.3395C54.2194 51.2715 54.0325 51.2461 53.8476 51.2655C53.6627 51.285 53.4852 51.3487 53.3301 51.4513C53.2126 51.5594 53.1278 51.6985 53.0857 51.8525C53.0435 52.0066 53.0456 52.1694 53.0917 52.3223C53.1378 52.4752 53.2261 52.612 53.3463 52.7171C53.4666 52.8221 53.6141 52.8912 53.7718 52.9163ZM53.4531 52.0552C53.4531 51.5855 54.3869 51.5296 54.4763 52.0552C54.6497 52.7877 53.4252 52.7429 53.4531 52.0552ZM53.1177 17.1318C52.2566 18.1438 52.4635 19.4466 53.8166 20.084C54.1227 20.0051 54.4351 19.9527 54.7503 19.9275C55.1096 19.9511 55.4666 20.0015 55.8183 20.0784C56.1913 19.8542 56.4814 19.5149 56.6447 19.1115C56.8081 18.7081 56.8359 18.2625 56.7241 17.8419C56.6199 17.4761 56.4167 17.1463 56.1369 16.8887C55.857 16.6312 55.5114 16.456 55.1383 16.3825C54.7652 16.3091 54.379 16.3402 54.0224 16.4724C53.6658 16.6046 53.3527 16.8328 53.1177 17.1318ZM52.8045 26.8384C52.798 26.8054 52.7802 26.7757 52.7542 26.7543C52.7282 26.733 52.6956 26.7214 52.662 26.7214C52.6283 26.7214 52.5957 26.733 52.5697 26.7543C52.5437 26.7757 52.5259 26.8054 52.5194 26.8384C52.4778 27.1499 52.4536 27.4635 52.4467 27.7777C52.4614 27.8224 52.4899 27.8614 52.528 27.889C52.5662 27.9166 52.6121 27.9315 52.6592 27.9315C52.7063 27.9315 52.7522 27.9166 52.7903 27.889C52.8285 27.8614 52.8569 27.8224 52.8716 27.7777C52.8996 27.6826 52.8045 26.9334 52.8045 26.8384ZM57.2161 26.939C57.2095 26.906 57.1917 26.8763 57.1657 26.855C57.1397 26.8337 57.1071 26.822 57.0735 26.822C57.0399 26.822 57.0073 26.8337 56.9813 26.855C56.9553 26.8763 56.9375 26.906 56.9309 26.939C56.9309 27.0173 56.8359 27.7721 56.8638 27.8783C56.8785 27.9231 56.907 27.962 56.9452 27.9897C56.9833 28.0173 57.0292 28.0322 57.0763 28.0322C57.1234 28.0322 57.1693 28.0173 57.2075 27.9897C57.2456 27.962 57.2741 27.9231 57.2888 27.8783C57.3167 27.7721 57.2161 27.0229 57.2161 26.939ZM52.8437 24.9988C52.1727 24.9429 51.8652 25.9829 51.854 26.0276C51.8444 26.0595 51.8478 26.0939 51.8635 26.1233C51.8793 26.1526 51.906 26.1745 51.9379 26.1842C51.9698 26.1938 52.0042 26.1904 52.0335 26.1747C52.0629 26.1589 52.0848 26.1322 52.0944 26.1003C52.128 26.0164 52.4858 25.407 52.9052 25.4293C53.1177 25.4461 53.2239 25.0268 52.8437 24.9988ZM57.3838 26.1786C57.3735 25.9815 57.3031 25.7924 57.1822 25.6365C57.0613 25.4806 56.8955 25.3654 56.7073 25.3063C56.6509 25.2915 56.591 25.2997 56.5407 25.329C56.4903 25.3584 56.4537 25.4065 56.4389 25.4629C56.4241 25.5192 56.4322 25.5792 56.4616 25.6295C56.491 25.6798 56.5391 25.7164 56.5955 25.7313C56.7329 25.7801 56.856 25.8625 56.9536 25.9708C57.0512 26.0792 57.1203 26.2102 57.1546 26.3519C57.1635 26.3823 57.1841 26.4079 57.2119 26.4231C57.2397 26.4383 57.2724 26.4419 57.3028 26.433C57.3332 26.4241 57.3588 26.4035 57.374 26.3757C57.3892 26.3479 57.3927 26.3152 57.3838 26.2848C57.3838 26.2848 57.395 26.2233 57.3838 26.1786ZM54.795 29.1476C54.8174 29.1402 54.8369 29.126 54.8507 29.1069C54.8645 29.0878 54.872 29.0649 54.872 29.0413C54.872 29.0178 54.8645 28.9948 54.8507 28.9758C54.8369 28.9567 54.8174 28.9425 54.795 28.9351C54.5378 28.8848 54.2359 28.868 54.2359 28.6164C54.2654 28.3025 54.314 27.9907 54.3813 27.6826C54.3844 27.6549 54.3775 27.6269 54.3618 27.6037C54.3461 27.5806 54.3227 27.5638 54.2957 27.5564C54.2688 27.5489 54.24 27.5514 54.2147 27.5633C54.1894 27.5751 54.1692 27.5957 54.1576 27.6211C54.0186 27.9816 53.921 28.3568 53.8669 28.7394C53.8781 29.0749 54.2359 29.3265 54.795 29.1476ZM55.494 29.88C55.3709 30.0132 55.2198 30.1175 55.0515 30.1851C54.8833 30.2528 54.7021 30.2823 54.5211 30.2714C54.397 30.2506 54.2787 30.2041 54.1737 30.1347C54.0687 30.0654 53.9794 29.9748 53.9116 29.8688C53.896 29.8399 53.8696 29.8184 53.8382 29.8089C53.8067 29.7995 53.7728 29.803 53.7439 29.8185C53.715 29.8341 53.6934 29.8605 53.684 29.892C53.6745 29.9234 53.678 29.9573 53.6936 29.9863C53.783 30.1801 53.9231 30.3462 54.0991 30.467C54.2752 30.5879 54.4805 30.6589 54.6936 30.6726C54.9066 30.6864 55.1194 30.6423 55.3095 30.5451C55.4996 30.4479 55.6599 30.3012 55.7735 30.1205C55.8462 29.9359 55.6449 29.7458 55.494 29.88ZM55.4325 63.1037C55.4464 63.1133 55.463 63.1184 55.48 63.1184C55.497 63.1184 55.5135 63.1133 55.5275 63.1037C56.1258 62.729 60.6268 59.1506 60.9958 58.8319C61.0081 58.8205 61.0167 58.8057 61.0205 58.7893C61.0243 58.773 61.0231 58.7559 61.0171 58.7403C61.0111 58.7246 61.0005 58.7111 60.9867 58.7016C60.973 58.692 60.9567 58.6867 60.9399 58.6865C60.9399 58.6865 51.7142 58.5076 50.0872 58.4517C49.9921 58.4517 49.9753 58.5523 50.0257 58.5971C50.322 58.8878 53.8948 61.9239 55.4325 63.1037ZM74.8679 106.174C75.2872 105.318 74.5044 103.881 74.1522 103.3C74.1453 103.285 74.1346 103.274 74.1213 103.265C74.1079 103.257 74.0925 103.252 74.0767 103.252C74.061 103.252 74.0455 103.257 74.0322 103.265C74.0188 103.274 74.0081 103.285 74.0012 103.3C73.7161 103.859 73.1178 105.324 73.6881 106.168C74.0739 106.794 74.566 106.839 74.8679 106.174ZM40.8167 100.163C40.7608 100.196 36.668 102.55 36.5114 102.791C36.3549 103.031 36.3605 103.21 36.5729 103.227C38.2503 103.333 38.8933 103.473 38.9604 103.551C39.0667 103.926 39.1841 105.447 39.4077 105.749C39.4316 105.786 39.4657 105.815 39.5059 105.834C39.5461 105.852 39.5908 105.858 39.6345 105.852C39.6782 105.845 39.7192 105.826 39.7523 105.797C39.7855 105.768 39.8095 105.73 39.8215 105.687C40.0563 104.804 40.7944 102.053 40.9398 101.6C41.0851 101.147 41.3311 99.9784 40.8167 100.163ZM40.7385 100.689C40.6826 101.058 40.4142 102.125 39.6202 104.854C39.5545 104.285 39.4347 103.723 39.2624 103.177C38.5932 102.977 37.9023 102.858 37.2048 102.824C38.3566 102.109 39.5643 101.421 40.7217 100.689H40.7385ZM43.7075 102.472C43.7534 102.468 43.7965 102.448 43.8295 102.415C43.8625 102.383 43.8834 102.34 43.8886 102.295C43.8939 102.249 43.8832 102.202 43.8583 102.163C43.8335 102.125 43.796 102.095 43.7522 102.081C43.5454 102.02 43.3301 101.994 43.1148 102.002V101.192C43.1148 101.153 43.0995 101.116 43.0722 101.089C43.0449 101.062 43.008 101.046 42.9694 101.046C42.9308 101.046 42.8939 101.062 42.8666 101.089C42.8393 101.116 42.824 101.153 42.824 101.192C42.824 101.482 42.7737 101.751 42.7513 102.025C42.4885 102.025 42.2258 102.075 41.9518 102.114C41.6778 102.153 41.7952 102.467 41.9965 102.45C42.233 102.436 42.4701 102.436 42.7066 102.45C42.7066 102.696 42.6563 102.959 42.6451 103.21C42.654 103.268 42.6834 103.321 42.728 103.36C42.7726 103.398 42.8295 103.419 42.8883 103.419C42.9472 103.419 43.0041 103.398 43.0487 103.36C43.0933 103.321 43.1227 103.268 43.1316 103.21V102.467C43.3232 102.481 43.5156 102.483 43.7075 102.472ZM57.177 99.4137C57.1291 99.2729 57.0401 99.1497 56.9215 99.06C56.8029 98.9703 56.6601 98.9182 56.5116 98.9105C55.9972 98.9105 55.5163 99.5423 55.1082 100.129H55.069C54.672 99.8498 54.549 99.8498 54.18 100.241C53.688 100.772 53.8948 100.867 54.5323 101.359C54.1017 101.958 53.017 103.501 52.8549 103.781C52.6927 104.06 52.2175 104.848 52.743 105.285C52.8509 105.362 52.9815 105.401 53.114 105.396C53.2466 105.391 53.3738 105.342 53.4755 105.257C54.2876 104.272 55.0347 103.235 55.712 102.153C56.2712 102.489 56.3159 102.556 56.752 102.198C56.8153 102.157 56.8683 102.102 56.9071 102.037C56.9458 101.972 56.9693 101.899 56.9757 101.824C56.9757 101.55 56.6458 101.359 56.4165 101.175C56.6122 100.89 56.7856 100.616 56.9421 100.331C57.0459 100.204 57.1208 100.057 57.1613 99.8983C57.2019 99.7398 57.2072 99.5744 57.177 99.4137ZM55.4101 100.336C55.5952 100.086 55.7931 99.8452 56.0028 99.615C56.2768 99.3186 56.478 99.246 56.6625 99.3745C56.9757 99.5814 56.8023 99.766 56.1593 100.935L55.4101 100.336ZM53.0338 104.999C52.7151 104.927 52.922 104.44 53.0729 104.15C53.2239 103.859 54.3589 102.215 54.795 101.55C54.9684 101.673 55.2591 101.863 55.3989 101.947C55.0187 102.595 53.9396 104.183 53.7215 104.429C53.5035 104.675 53.3022 105.061 53.0338 104.999ZM54.6273 100.258L54.7168 100.292C54.8062 100.325 56.629 101.812 56.629 101.846C56.5477 101.967 56.4408 102.068 56.3159 102.142C56.1034 101.975 54.7839 101.08 54.2918 100.694C54.3943 100.542 54.5064 100.396 54.6273 100.258ZM66.9618 103.048C66.9618 103.048 69.5002 105.771 69.7239 105.844C70.0985 105.944 72.1226 103.607 72.3909 103.294C72.6537 103.518 72.7879 103.557 73.0843 103.261C73.2676 103.069 73.4203 102.85 73.5372 102.612C73.5567 102.575 73.564 102.533 73.5579 102.492C73.5519 102.451 73.5329 102.412 73.5036 102.383C70.6576 99.4976 70.1488 98.9608 70.0314 98.9161C69.6624 98.7595 69.4723 99.2124 69.2542 99.3745C68.9523 99.6653 68.7901 99.7548 69.2878 100.314C67.0177 102.774 66.8388 102.757 66.9618 103.048ZM69.3548 99.7659C69.5038 99.594 69.6706 99.4385 69.8525 99.3019C69.8525 99.3019 71.5299 100.979 73.1178 102.545C73.0163 102.734 72.8924 102.911 72.7488 103.07C72.6873 103.009 69.4443 99.861 69.3325 99.7659H69.3548ZM72.1505 103.037C69.7127 105.62 69.9587 105.519 69.7015 105.273C69.5505 105.145 67.6775 103.216 67.3923 102.886C67.5936 102.662 69.4499 100.649 69.5729 100.538C69.545 100.56 71.7479 102.69 72.1281 103.037H72.1505Z" fill="black"/>
<path d="M69.1983 101.857C68.6391 102.45 68.203 102.623 68.2645 102.942C68.5376 103.346 68.8524 103.721 69.2039 104.06C69.2253 104.078 69.252 104.087 69.2797 104.088C69.3073 104.088 69.3343 104.079 69.3563 104.062C69.3783 104.046 69.394 104.022 69.4008 103.995C69.4076 103.968 69.4052 103.94 69.394 103.915C69.394 103.915 68.9523 103.16 68.7622 102.908C68.8069 102.852 69.2821 102.215 69.4107 102.07C69.4389 102.041 69.4547 102.003 69.4547 101.963C69.4547 101.924 69.4389 101.885 69.4107 101.857C69.3826 101.829 69.3444 101.813 69.3045 101.813C69.2647 101.813 69.2264 101.829 69.1983 101.857Z" fill="black"/>
<path d="M77.4511 108.718L63.7412 108.628C63.7412 107.672 63.4336 99.7324 63.4113 99.0559C63.4113 98.849 63.0814 98.849 63.0926 99.0559C63.0926 99.615 63.2938 108.103 63.3218 108.623H48.3986C48.3986 107.717 48.2532 100.61 48.242 100.124C48.242 100.084 48.2261 100.045 48.1978 100.017C48.1695 99.9887 48.1311 99.9728 48.091 99.9728C48.051 99.9728 48.0126 99.9887 47.9843 100.017C47.956 100.045 47.9401 100.084 47.9401 100.124V108.623C46.7771 108.623 34.5209 108.623 32.8435 108.746C32.8078 108.752 32.7755 108.772 32.7523 108.8C32.7291 108.828 32.7164 108.863 32.7164 108.899C32.7164 108.936 32.7291 108.971 32.7523 108.999C32.7755 109.027 32.8078 109.046 32.8435 109.053C34.3364 109.12 76.1092 109.199 77.479 108.88C77.4972 108.873 77.5123 108.86 77.5219 108.843C77.5315 108.826 77.5349 108.806 77.5316 108.787C77.5283 108.768 77.5185 108.751 77.5038 108.738C77.4891 108.725 77.4705 108.718 77.4511 108.718ZM37.2383 7.82787C37.3669 8.05152 38.6753 8.12421 38.7927 8.07948C38.8699 8.05239 38.9364 8.00149 38.9828 7.9341C39.4263 8.30403 39.8912 8.64756 40.375 8.96291C40.4441 9.01869 40.524 9.05943 40.6097 9.08254C40.6954 9.10565 40.7849 9.11061 40.8727 9.0971C41.1075 9.03 45.519 6.40208 45.5861 6.35735C45.8769 6.17843 45.8825 5.99951 45.8433 5.88209C45.7595 5.65284 41.2529 3.53932 40.5316 2.75095C40.5107 2.73582 40.487 2.72497 40.4619 2.71903C40.4368 2.71309 40.4108 2.71217 40.3853 2.71633C40.3598 2.72048 40.3354 2.72963 40.3135 2.74325C40.2916 2.75687 40.2726 2.77469 40.2576 2.79568C39.6985 3.43868 39.2008 4.09846 38.692 4.75264C38.1797 4.73686 37.6678 4.79332 37.1712 4.92038C37.1164 5.88979 37.1388 6.86202 37.2383 7.82787ZM41.0795 6.15047C41.0225 6.30662 40.9141 6.43873 40.772 6.52509C40.4924 6.62014 40.2129 6.35735 40.1178 6.23993C39.8103 5.88209 40.5092 5.12167 40.9733 5.71994C41.0313 5.78049 41.0718 5.85561 41.0905 5.93732C41.1092 6.01903 41.1054 6.10428 41.0795 6.18402V6.15047ZM40.677 5.11608C40.5096 5.08668 40.3374 5.10434 40.1795 5.16711C40.0216 5.22988 39.8843 5.33527 39.7828 5.47154C39.6813 5.60781 39.6197 5.76959 39.6048 5.93884C39.5899 6.10808 39.6224 6.27814 39.6985 6.43004C39.8126 6.61783 39.9795 6.76783 40.1784 6.8613C40.3773 6.95478 40.5993 6.98758 40.8167 6.95562C40.9669 6.90085 41.1003 6.80825 41.2041 6.68679C41.308 6.56532 41.3787 6.41911 41.4094 6.2623C42.0245 6.2623 44.138 6.2623 44.9823 6.22316L40.8167 8.64979C40.5819 8.54915 39.2064 7.53153 39.0387 7.39734C39.0387 7.08981 39.0387 5.25027 38.9996 4.95393C39.4692 4.3948 39.9501 3.79652 40.4086 3.19825C41.0907 3.75739 44.2386 5.43478 45.1612 5.92123H41.4262C41.4018 5.72877 41.3156 5.54944 41.1805 5.41026C41.0453 5.27109 40.8686 5.17961 40.677 5.14962V5.11608ZM37.5458 5.21672L38.5802 5.17758C38.5802 5.35091 38.6473 7.41411 38.6193 7.70486C38.2663 7.72813 37.9118 7.71125 37.5626 7.65454C37.5961 7.26873 37.5682 5.68639 37.5458 5.25027V5.21672ZM20.0394 34.6103C20.098 34.6442 20.1646 34.662 20.2323 34.662C20.3 34.662 20.3665 34.6442 20.4252 34.6103C20.8669 34.3922 21.7447 33.6262 24.3056 31.9321C24.3807 31.8912 24.4455 31.8337 24.4949 31.7639C24.5444 31.6941 24.5771 31.6139 24.5907 31.5295C24.5907 31.5295 24.6858 29.142 24.5516 29.0637C24.1211 28.7953 22.8742 27.9454 22.5163 28.0014C22.4716 28.0014 17.7525 30.9424 17.7414 31.0822C17.6946 31.6923 17.6853 32.3048 17.7134 32.9161C18.451 33.5309 19.228 34.0969 20.0394 34.6103ZM18.0545 31.468C18.485 31.7587 19.6871 32.5862 20.017 32.754V34.0288C17.9259 32.631 18.0601 32.8658 18.0768 32.452C18.0824 32.2228 18.0657 31.686 18.0545 31.468ZM20.2463 32.2899C20.2107 32.3162 20.1675 32.3304 20.1233 32.3304C20.079 32.3304 20.0359 32.3162 20.0003 32.2899C19.9108 32.234 18.6583 31.3394 18.3229 31.0989C22.7176 28.3033 22.5611 28.2697 22.7959 28.3536C22.9077 28.3983 23.4333 28.7338 24.1434 29.2035C23.3047 29.9192 20.3301 32.234 20.2463 32.2899ZM24.1602 31.5462C24.0428 31.6581 21.0179 33.6654 20.3469 34.1015V32.7037C20.7439 32.4017 23.3662 30.3441 24.1826 29.6452C24.2049 31.4903 24.2385 31.4903 24.1881 31.5462H24.1602ZM82.0136 34.9514C83.0578 34.927 84.0737 34.6071 84.9434 34.0288C85.3773 33.7554 85.704 33.3413 85.8689 32.8558C86.0338 32.3702 86.0269 31.8428 85.8492 31.3617C86.2183 31.0822 87.398 30.0813 87.6273 29.8633C88.1025 29.8912 88.6561 29.0469 88.9524 28.5884C89.0754 28.3983 89.2376 28.2026 89.1537 27.9846C88.3989 27.1857 87.6 26.4297 86.7606 25.7201C86.7045 25.6607 86.6317 25.6199 86.5518 25.6029C86.4719 25.5859 86.3887 25.5936 86.3133 25.625C85.7565 26.1649 85.2546 26.7586 84.8148 27.3975C84.7956 27.4803 84.8054 27.5672 84.8428 27.6435C84.8428 27.6826 84.0656 29.9359 83.9706 30.2099C83.5521 30.2522 83.1636 30.4461 82.8783 30.7551C82.5929 31.0641 82.4306 31.4668 82.4218 31.8873C82.3547 33.52 83.6463 34.0456 81.9633 34.6494C81.9399 34.6695 81.9221 34.6952 81.9117 34.7241C81.9012 34.7531 81.8983 34.7842 81.9034 34.8146C81.9084 34.8449 81.9212 34.8735 81.9405 34.8974C81.9598 34.9214 81.985 34.94 82.0136 34.9514ZM85.2454 27.4981C85.6087 26.9645 86.0369 26.478 86.5202 26.05C86.8221 26.2904 88.5666 27.9007 88.7567 28.1635C88.6169 28.4039 87.8342 29.4215 87.6385 29.4439C87.6217 29.4271 85.3181 27.5652 85.2454 27.4981ZM85.6479 30.9983C85.3629 30.5805 84.9252 30.2914 84.429 30.1932C84.5409 29.8185 84.949 28.4487 85.0888 27.8951C85.5138 28.2586 86.5649 29.142 87.2079 29.6508C86.9563 29.9024 86.0058 30.7131 85.6479 30.9983ZM82.9082 34.5097C83.3443 34.1127 83.2381 33.5927 83.0368 33.095C82.679 31.9768 82.7852 31.2555 83.3835 30.8585C83.5379 30.7606 83.7103 30.6944 83.8906 30.6639C84.0709 30.6334 84.2554 30.6391 84.4335 30.6807C84.6115 30.7224 84.7795 30.7991 84.9276 30.9064C85.0756 31.0138 85.2008 31.1495 85.2957 31.3058C86.1791 32.6981 84.5241 34.1909 82.9082 34.5097ZM47.0567 6.15047C47.2859 6.15047 48.6278 5.97714 49.8523 5.84854C49.8953 5.84854 49.9366 5.83146 49.967 5.80105C49.9974 5.77064 50.0145 5.7294 50.0145 5.68639C50.0145 5.64339 49.9974 5.60214 49.967 5.57174C49.9366 5.54133 49.8953 5.52424 49.8523 5.52424C49.3938 5.56897 47.2412 5.69757 47.0063 5.7479C46.961 5.76303 46.9222 5.7934 46.8968 5.83386C46.8713 5.87432 46.8606 5.92236 46.8665 5.96981C46.8724 6.01726 46.8946 6.06119 46.9293 6.09412C46.964 6.12706 47.009 6.14697 47.0567 6.15047ZM51.4402 5.79263C51.5912 5.79263 54.5602 5.54661 55.2144 5.58016C55.4325 5.58016 55.4492 5.26145 55.2144 5.24468C53.9365 5.18236 52.6556 5.2235 51.3843 5.36769C51.336 5.38352 51.2948 5.41574 51.2677 5.45877C51.2406 5.5018 51.2294 5.55294 51.2361 5.60334C51.2427 5.65375 51.2667 5.70025 51.304 5.73481C51.3413 5.76937 51.3895 5.78982 51.4402 5.79263ZM56.8974 5.47392L59.3072 5.40683C59.3472 5.39956 59.3833 5.37852 59.4093 5.34735C59.4353 5.31619 59.4496 5.27688 59.4496 5.23629C59.4496 5.1957 59.4353 5.15639 59.4093 5.12523C59.3833 5.09406 59.3472 5.07302 59.3072 5.06575L56.9086 4.99866C56.8515 5.00596 56.799 5.03346 56.7605 5.07618C56.722 5.1189 56.7001 5.174 56.6987 5.23148C56.6974 5.28897 56.7167 5.34504 56.7531 5.38952C56.7896 5.434 56.8407 5.46395 56.8974 5.47392ZM61.2251 5.5522C62.2539 5.5522 65.9665 5.72553 66.8723 5.88209C67.0959 5.92682 67.1742 5.58016 66.9506 5.54102C65.0538 5.25257 63.1381 5.10679 61.2195 5.10489C61.1602 5.10564 61.1036 5.12991 61.0621 5.17238C61.0207 5.21484 60.9979 5.27203 60.9986 5.33134C60.9994 5.39066 61.0236 5.44725 61.0661 5.48867C61.1086 5.53009 61.1657 5.55294 61.2251 5.5522ZM68.6783 6.5195C70.1585 6.9573 71.5263 7.7108 72.6873 8.72807C72.8662 8.89022 73.1178 8.62743 72.9445 8.46528C71.7717 7.34178 70.3444 6.5188 68.7845 6.0666C68.7281 6.06139 68.6717 6.07676 68.6257 6.10988C68.5797 6.143 68.5472 6.19163 68.5343 6.24681C68.5213 6.30199 68.5288 6.35999 68.5553 6.4101C68.5817 6.46022 68.6254 6.49907 68.6783 6.5195ZM73.6378 13.9783C73.5914 13.9896 73.5508 14.0175 73.5236 14.0567C73.4963 14.0958 73.4843 14.1436 73.4898 14.191C73.4953 14.2384 73.5179 14.2821 73.5534 14.314C73.5889 14.3459 73.6348 14.3637 73.6825 14.3641C74.4206 14.3641 75.2872 13.5031 75.3599 12.3121C75.4326 11.1212 74.6163 10.165 73.8335 9.36548C73.8001 9.33137 73.7546 9.31192 73.7069 9.31139C73.6592 9.31087 73.6132 9.32932 73.5791 9.36269C73.545 9.39605 73.5255 9.4416 73.525 9.48931C73.5245 9.53702 73.5429 9.58298 73.5763 9.61709C74.4597 10.5341 74.8902 11.3728 74.8958 12.1891C74.9107 12.5839 74.7957 12.9726 74.5685 13.2958C74.3412 13.619 74.0143 13.8587 73.6378 13.9783ZM67.5377 15.7955C68.0968 15.7955 71.7815 14.9512 72.3909 14.8058C72.4336 14.7918 72.4694 14.7621 72.4913 14.7229C72.5131 14.6836 72.5193 14.6375 72.5088 14.5938C72.4982 14.5502 72.4716 14.5121 72.4342 14.4871C72.3968 14.4622 72.3515 14.4522 72.3071 14.4592C71.474 14.6493 68.5329 15.1637 67.4985 15.3426C67.4442 15.3546 67.3961 15.3859 67.3631 15.4307C67.3302 15.4755 67.3147 15.5308 67.3194 15.5862C67.3242 15.6416 67.349 15.6934 67.3892 15.7319C67.4293 15.7704 67.4821 15.793 67.5377 15.7955ZM66.0224 15.4265C64.8315 15.5551 63.5846 15.6669 62.3825 15.8458C62.3319 15.861 62.2882 15.893 62.2585 15.9367C62.2289 15.9803 62.2152 16.0329 62.2198 16.0854C62.2244 16.138 62.247 16.1873 62.2838 16.2252C62.3205 16.263 62.3692 16.287 62.4216 16.2931C62.7627 16.2931 65.4912 15.9353 66.0392 15.8682C66.3243 15.829 66.3076 15.3873 66.0224 15.4265ZM57.5907 16.8579C57.915 16.8579 60.1515 16.4944 60.6715 16.4217C60.7151 16.4107 60.7532 16.3842 60.7786 16.3471C60.8041 16.31 60.8151 16.2649 60.8096 16.2203C60.8041 16.1756 60.7825 16.1345 60.7488 16.1047C60.7152 16.0749 60.6718 16.0584 60.6268 16.0583C59.9446 16.1366 58.2169 16.2875 57.546 16.405C57.4913 16.4172 57.4431 16.449 57.4103 16.4943C57.3775 16.5397 57.3624 16.5955 57.3679 16.6512C57.3734 16.7069 57.3991 16.7587 57.4401 16.7968C57.4812 16.8348 57.5347 16.8566 57.5907 16.8579ZM48.2588 17.663C49.4553 17.663 50.6798 17.4505 51.8652 17.3387C52.1112 17.3387 52.1112 16.9305 51.8652 16.9529C50.6742 17.048 49.4274 17.0983 48.2252 17.266C47.9848 17.294 48.0128 17.663 48.2588 17.663ZM42.3655 18.1774C42.3164 18.189 42.2733 18.2182 42.2442 18.2594C42.2151 18.3007 42.2021 18.3511 42.2076 18.4012C42.2131 18.4514 42.2367 18.4978 42.274 18.5318C42.3114 18.5657 42.3598 18.5848 42.4103 18.5856C42.7905 18.5856 45.8601 18.1327 46.3242 18.0712C46.3731 18.0597 46.4159 18.0303 46.4442 17.9889C46.4726 17.9474 46.4844 17.8969 46.4774 17.8472C46.4704 17.7974 46.4451 17.7521 46.4064 17.7201C46.3677 17.6881 46.3184 17.6717 46.2683 17.6742C45.5358 17.7636 42.9862 18.0488 42.3655 18.1774ZM33.85 19.7765C36.0198 19.3212 38.2131 18.9852 40.4198 18.7701C40.7105 18.7701 40.6993 18.2948 40.4198 18.3228C38.1855 18.4559 35.9689 18.8004 33.7996 19.3516C33.7516 19.3671 33.7104 19.3988 33.6831 19.4414C33.6558 19.4839 33.6441 19.5346 33.6501 19.5847C33.656 19.6349 33.6792 19.6815 33.7156 19.7164C33.7521 19.7514 33.7996 19.7727 33.85 19.7765ZM26.3688 22.6616C27.8598 21.7683 29.4884 21.1278 31.1885 20.7662C31.4848 20.7047 31.3674 20.2574 31.0767 20.3189C29.3259 20.6665 27.6481 21.3134 26.1172 22.2311C26.0692 22.2686 26.0365 22.3222 26.025 22.382C26.0136 22.4418 26.0242 22.5037 26.0549 22.5563C26.0856 22.6088 26.1343 22.6485 26.1921 22.6679C26.2498 22.6872 26.3126 22.685 26.3688 22.6616ZM21.6441 27.1571C22.2612 25.4949 23.4507 24.1072 24.9989 23.2431C25.2058 23.1313 25.0324 22.8238 24.82 22.93C23.1343 23.768 21.8395 25.2272 21.208 27.0005C21.1017 27.3136 21.5379 27.4366 21.6441 27.1571ZM22.863 33.8443C22.6953 33.6542 22.4269 33.917 22.5834 34.1015C22.9748 34.5544 25.038 36.1423 25.4574 36.1423C25.5014 36.1419 25.544 36.1272 25.5788 36.1003C25.6137 36.0733 25.6387 36.0358 25.6501 35.9933C25.6615 35.9508 25.6587 35.9057 25.6421 35.865C25.6254 35.8242 25.5959 35.7901 25.558 35.7677C24.6096 35.1998 23.7084 34.5566 22.863 33.8443ZM30.6573 37.4283C29.3952 37.3036 28.1599 36.9849 26.995 36.4834C26.7378 36.3716 26.5253 36.7518 26.7881 36.8748C27.9987 37.4482 29.3047 37.7932 30.6405 37.8924C30.9481 37.9092 30.9481 37.4619 30.6573 37.4283ZM31.8706 38.1943C32.5192 38.2894 35.1639 38.7199 35.8349 38.7535C35.8904 38.7551 35.9446 38.736 35.9869 38.6999C36.0291 38.6637 36.0564 38.6132 36.0634 38.558C36.0704 38.5028 36.0566 38.4471 36.0247 38.4015C35.9927 38.356 35.945 38.324 35.8908 38.3117C35.2478 38.1776 32.6255 37.8644 31.9769 37.7526C31.7141 37.747 31.6078 38.1496 31.8706 38.1943ZM40.4869 38.8765C39.4022 38.9728 38.309 38.882 37.2551 38.6081C37.2112 38.6031 37.167 38.614 37.1305 38.6388C37.094 38.6637 37.0676 38.7007 37.0561 38.7434C37.0446 38.786 37.0488 38.8313 37.0678 38.8711C37.0869 38.9109 37.1196 38.9426 37.16 38.9603C38.2482 39.2774 39.3851 39.393 40.5148 39.3014C40.7664 39.2735 40.7608 38.8597 40.4869 38.8765ZM77.6468 36.1311C78.8121 36.0035 79.9608 35.7542 81.0742 35.3875C81.3091 35.3092 81.2084 34.9402 80.968 35.0129C79.8819 35.3286 78.7677 35.5383 77.6412 35.6391C77.3169 35.6726 77.3225 36.1591 77.6468 36.1311ZM72.458 36.5561C72.413 36.5705 72.3742 36.5999 72.3482 36.6394C72.3222 36.6789 72.3105 36.7261 72.3151 36.7732C72.3196 36.8202 72.3402 36.8643 72.3733 36.8981C72.4065 36.9318 72.4502 36.9532 72.4972 36.9586C72.9053 36.9586 75.6954 36.4666 76.1707 36.3995C76.4446 36.3492 76.3384 35.9522 76.0756 35.9914C74.633 36.1982 73.5595 36.3436 72.458 36.5561ZM71.0099 36.7294C69.6176 36.9754 68.2142 37.1208 66.8835 37.2494C66.5927 37.2829 66.6039 37.7303 66.8835 37.7079C68.2919 37.5944 69.6935 37.4078 71.0826 37.1488C71.1101 37.144 71.1364 37.1338 71.16 37.1189C71.1836 37.1039 71.2041 37.0845 71.2202 37.0616C71.2363 37.0388 71.2477 37.013 71.2538 36.9857C71.26 36.9585 71.2607 36.9303 71.2559 36.9027C71.2511 36.8752 71.241 36.8489 71.226 36.8253C71.2111 36.8017 71.1916 36.7812 71.1688 36.7651C71.1459 36.749 71.1201 36.7376 71.0929 36.7315C71.0656 36.7253 71.0374 36.7246 71.0099 36.7294ZM30.1597 56.6569C30.4057 56.6569 30.4169 56.3102 30.1597 56.2767C29.0253 56.1077 27.8722 56.1077 26.7378 56.2767C26.6841 56.2885 26.6368 56.3202 26.6055 56.3654C26.5741 56.4106 26.561 56.466 26.5688 56.5205C26.5766 56.5749 26.6047 56.6244 26.6474 56.6591C26.6902 56.6937 26.7444 56.7109 26.7993 56.7072C27.9157 56.5907 29.0403 56.5738 30.1597 56.6569ZM79.805 56.3605C79.7586 56.3751 79.7186 56.4052 79.6917 56.4457C79.6648 56.4863 79.6526 56.5348 79.6572 56.5832C79.6617 56.6317 79.6828 56.6771 79.7169 56.7119C79.7509 56.7466 79.7958 56.7687 79.8442 56.7743C79.9001 56.7743 82.8467 56.6904 83.5568 56.7743C83.7469 56.8022 83.8084 56.5115 83.6183 56.4835C82.3529 56.3358 81.0773 56.2947 79.805 56.3605ZM78.2786 56.8022C78.3231 56.8022 78.3657 56.7846 78.3972 56.7531C78.4287 56.7217 78.4463 56.679 78.4463 56.6345C78.4463 56.59 78.4287 56.5474 78.3972 56.5159C78.3657 56.4844 78.3231 56.4668 78.2786 56.4668C77.4545 56.4133 76.6269 56.4716 75.8184 56.6401C75.578 56.6904 75.6451 57.0427 75.8743 57.0427C76.663 56.8649 77.4704 56.7842 78.2786 56.8022ZM91.0044 63.7411C90.9597 63.9647 91.284 64.1045 91.3791 63.8865C91.8599 62.8017 92.1003 61.1411 91.4965 59.9725C91.3791 59.7489 91.0436 59.939 91.1554 60.1626C91.832 61.5045 91.1834 62.8744 91.0044 63.7411ZM23.4836 80.515C22.697 81.1686 22.039 81.9631 21.5435 82.8578C21.5324 82.8762 21.5251 82.8965 21.522 82.9177C21.5188 82.9389 21.5199 82.9604 21.5251 82.9812C21.5356 83.0232 21.5623 83.0592 21.5994 83.0815C21.6364 83.1037 21.6808 83.1103 21.7228 83.0998C21.7647 83.0893 21.8008 83.0626 21.823 83.0256C22.3346 82.1825 22.9893 81.4351 23.7576 80.817C23.9813 80.6548 23.7073 80.3641 23.4836 80.515ZM27.2186 77.2329C26.4525 77.8061 25.7241 78.428 25.038 79.0948C25.0047 79.129 24.9862 79.1749 24.9867 79.2226C24.9873 79.2703 25.0067 79.3159 25.0408 79.3493C25.0749 79.3826 25.1209 79.4011 25.1686 79.4005C25.2163 79.4 25.2619 79.3806 25.2952 79.3465C25.6083 79.0166 27.2913 77.7026 27.4591 77.5628C27.6268 77.423 27.4255 77.1603 27.2186 77.2329ZM28.896 76.2153C29.0135 76.2153 28.6668 76.3271 30.7524 74.9517C30.7959 74.9216 30.8266 74.8764 30.8385 74.8248C30.8504 74.7733 30.8427 74.7192 30.8168 74.673C30.791 74.6269 30.7488 74.5921 30.6986 74.5753C30.6485 74.5586 30.5938 74.5612 30.5455 74.5826C29.9293 75.0026 29.341 75.4621 28.7842 75.9581C28.7654 75.9804 28.7533 76.0075 28.7491 76.0364C28.7448 76.0652 28.7488 76.0947 28.7604 76.1214C28.772 76.1481 28.7909 76.1711 28.8148 76.1877C28.8388 76.2043 28.8669 76.2138 28.896 76.2153Z" fill="black"/>
<path d="M31.7531 74.0011C31.8985 74.0626 31.8035 74.0011 33.5647 72.8829C33.4513 74.2869 33.4719 75.6986 33.6262 77.0987C32.7538 76.6246 31.9167 76.0883 31.1213 75.494C30.9704 75.3766 30.7691 75.5891 30.9256 75.7177C31.7945 76.4622 32.7304 77.1248 33.7213 77.697C34.4541 83.2631 37.2938 88.3361 41.6554 91.871C39.6537 92.3406 38.39 92.6034 37.898 92.6538C37.6855 92.6538 37.6855 93.0004 37.898 93.0004C38.3844 93.0004 41.482 92.3966 42.1362 92.2624C50.1654 98.6532 60.7218 98.027 68.4154 92.1394C69.9557 92.5466 71.5208 92.8529 73.101 93.0563C73.15 93.0527 73.1962 93.0321 73.2318 92.9981C73.2673 92.9642 73.29 92.9189 73.296 92.8701C73.3019 92.8213 73.2907 92.7719 73.2643 92.7305C73.2379 92.689 73.198 92.6579 73.1513 92.6426C72.458 92.5252 70.5122 92.1561 68.8348 91.8095C73.0414 88.478 75.8448 83.6893 76.6906 78.3903C76.903 78.2561 77.1099 78.1107 77.3112 77.9598C77.5125 77.8088 77.3112 77.4566 77.0932 77.5963L76.7744 77.792C77.4566 71.8541 75.3654 65.9384 71.6696 61.4933C72.7207 60.3359 73.4532 58.9661 73.0227 57.4452C73.5525 57.2837 74.0923 57.1567 74.6386 57.065C74.8846 57.0315 74.7951 56.668 74.5603 56.7016C73.994 56.774 73.4335 56.8861 72.8829 57.0371C72.4744 56.0245 71.7731 55.1569 70.8686 54.5453C69.9642 53.9337 68.8978 53.606 67.806 53.604C68.6991 52.665 69.3545 51.5258 69.7174 50.2817C70.0802 49.0375 70.1399 47.7246 69.8915 46.4527C68.8571 41.7001 65.1613 37.1823 60.5093 34.5823C60.6232 33.9531 60.5888 33.306 60.4087 32.6925C60.2856 32.1333 59.9166 31.9432 59.4861 31.6636C59.2624 31.5183 59.05 31.3841 58.8151 31.2499C59.4321 30.2899 59.7547 29.1704 59.7433 28.0293C61.0013 27.9063 61.0461 26.0723 59.665 25.7928C61.0684 19.2062 48.8849 18.0879 49.6006 26.0052C49.3525 26.0761 49.1301 26.2172 48.9604 26.4117C48.7908 26.6062 48.681 26.8456 48.6445 27.1011C48.6114 27.2763 48.622 27.4569 48.6753 27.627C48.7286 27.7971 48.823 27.9514 48.9501 28.0763C49.0772 28.2013 49.2332 28.2929 49.4042 28.3433C49.5752 28.3936 49.756 28.4009 49.9305 28.3648C49.8792 29.0888 50.0302 29.8128 50.3666 30.4559C50.0869 30.5202 49.8265 30.6501 49.6068 30.8348C49.3871 31.0195 49.2144 31.2538 49.103 31.5183C48.8551 32.2239 48.8068 32.9843 48.9632 33.7157C44.5181 35.7436 40.9641 39.3215 38.9659 43.78C37.3836 47.3864 38.1552 50.0255 40.9509 52.7765C39.6988 52.3727 38.3457 52.4142 37.1208 52.8939C36.3526 53.2243 35.6655 53.7181 35.1074 54.3409C34.5493 54.9637 34.1336 55.7006 33.889 56.5003C33.3512 56.4143 32.8051 56.3918 32.262 56.4332C32.2248 56.4402 32.1913 56.4599 32.1671 56.489C32.143 56.5181 32.1298 56.5547 32.1298 56.5925C32.1298 56.6303 32.143 56.667 32.1671 56.6961C32.1913 56.7252 32.2248 56.7449 32.262 56.7519C32.777 56.73 33.2923 56.7904 33.7884 56.9308C33.4026 59.2848 35.3987 61.2753 37.3389 62.6731C35.2566 65.5021 33.9742 68.8395 33.6262 72.3349C32.9701 72.7347 32.3373 73.1716 31.7308 73.6433C31.6989 73.6622 31.6728 73.6895 31.6554 73.7223C31.6381 73.7551 31.6301 73.792 31.6324 73.829C31.6347 73.8661 31.6472 73.9017 31.6685 73.9321C31.6898 73.9625 31.7191 73.9864 31.7531 74.0011ZM56.4724 32.7651L56.7072 32.6925C56.8358 32.8266 57.1825 33.1286 57.3949 33.3075C55.7343 34.1797 53.6767 34.1071 51.5296 33.0615C51.7701 32.8434 52.1615 32.4464 52.3068 32.2787C52.6913 32.4259 53.0832 32.5528 53.481 32.6589C53.6442 32.9009 53.8624 33.1008 54.1176 33.2424C54.3728 33.384 54.658 33.4632 54.9496 33.4735C55.2413 33.4839 55.5313 33.4251 55.796 33.302C56.0606 33.1789 56.2924 32.9949 56.4724 32.7651ZM51.9993 32.1221C51.8092 32.3346 51.3843 32.7875 51.2445 32.9049C51.0879 32.8192 50.9314 32.7297 50.7748 32.6365C50.7444 32.618 50.7079 32.6123 50.6733 32.6207C50.6387 32.6291 50.6088 32.6509 50.5903 32.6813C50.5718 32.7117 50.5661 32.7482 50.5744 32.7828C50.5828 32.8174 50.6046 32.8472 50.635 32.8658C51.9937 33.738 53.3189 34.3978 54.9236 34.3978C55.5737 34.4286 56.2224 34.3136 56.8223 34.0611C57.4221 33.8085 57.9579 33.425 58.3902 32.9385C58.4132 32.9147 58.4258 32.8829 58.4253 32.8498C58.4247 32.8168 58.4111 32.7853 58.3874 32.7623C58.3637 32.7394 58.3318 32.7267 58.2987 32.7273C58.2657 32.7278 58.2343 32.7414 58.2113 32.7651C58.0599 32.8901 57.9012 33.0058 57.736 33.1118C57.585 32.9832 57.2384 32.7036 57.0706 32.5527C57.6395 32.3379 58.1561 32.0043 58.5859 31.5742C59.145 31.8113 59.6465 32.166 60.0564 32.6142C60.2619 33.2233 60.2948 33.8774 60.1515 34.504C59.6371 36.092 55.4771 37.6631 51.2053 35.4322C49.7013 34.6774 49.0695 34.0567 49.3378 32.178C49.3578 31.8459 49.4854 31.5293 49.7013 31.2761C49.9172 31.0229 50.2096 30.8469 50.5344 30.7746C50.9028 31.3389 51.4063 31.8021 51.9993 32.1221ZM56.5506 36.9027C57.462 36.7909 59.6259 36.3771 60.3919 34.9625C64.837 37.4227 69.4722 42.9246 69.5784 47.94C69.6167 49.0423 69.3965 50.1383 68.9353 51.1403C68.4741 52.1423 67.7848 53.0224 66.9225 53.7102C66.1317 53.8557 65.3739 54.1437 64.686 54.5601C65.1781 46.9615 65.1948 47.42 65.1389 47.3641C65.083 47.3082 64.2331 47.3026 62.8465 47.269C63.0198 47.051 63.4839 46.4359 63.5901 46.3129C63.6161 46.2855 63.6301 46.2489 63.629 46.2111C63.628 46.1734 63.612 46.1376 63.5845 46.1116C63.5571 46.0857 63.5205 46.0717 63.4827 46.0727C63.445 46.0738 63.4092 46.0898 63.3832 46.1172C63.0302 46.5091 62.6569 46.8824 62.265 47.2355H62.1476C62.2902 45.5397 62.3275 43.8366 62.2594 42.1362C62.2594 42.002 62.0245 42.002 62.0357 42.1362C62.0916 42.9357 61.717 46.5198 61.6723 47.2075C57.5068 47.1236 50.5623 47.051 46.3688 47.0118C45.8549 45.2733 45.6376 43.4605 45.7258 41.6497C45.7258 41.4596 45.4575 41.4596 45.4407 41.6497C45.2599 43.4509 45.4096 45.27 45.8824 47.0174H45.765C45.2047 46.4573 44.6729 45.8695 44.1715 45.2561C44.1511 45.2282 44.1211 45.2087 44.0872 45.2016C44.0534 45.1944 44.0181 45.2001 43.9882 45.2175C43.9582 45.2349 43.9358 45.2628 43.9253 45.2957C43.9147 45.3287 43.9168 45.3644 43.931 45.3959C43.9925 45.5133 44.6635 46.5142 45.1052 47.0398H42.9358C42.7736 47.0398 42.824 47.0398 42.8128 47.1684C42.7569 47.8002 42.9581 51.2892 43.1147 53.7717C42.7775 53.5615 42.4263 53.3747 42.0635 53.2126C39.184 50.3834 37.652 48.1804 39.2176 44.4007C41.0866 39.8484 44.6079 36.1713 49.075 34.1071C49.7013 35.4434 52.8827 37.3388 56.5506 36.9027ZM43.1706 47.4368C43.808 47.4368 63.4224 47.6101 64.7922 47.7331C64.5295 49.9361 64.043 56.4444 63.8753 58.6306H62.6508C61.9575 59.2289 56.8134 63.5006 56.4444 63.8137C56.3158 63.9144 56.5506 63.9982 57.1042 64.4959C57.4524 64.7514 57.7442 65.0759 57.9616 65.4492C58.179 65.8224 58.3173 66.2364 58.3678 66.6653C58.3692 66.6851 58.3781 66.7036 58.3926 66.7171C58.4072 66.7306 58.4263 66.738 58.4461 66.738C60.4366 66.8219 62.1196 68.5943 60.7385 69.6902C59.4693 70.6967 57.5068 69.6902 56.5339 68.7621C57.4117 67.6158 57.9261 66.615 56.942 65.5806C56.8246 65.4576 55.561 64.4288 53.9563 63.1204C47.8785 58.1609 48.365 58.4405 48.2867 58.4405C47.9736 58.4405 44.6523 58.2112 44.054 58.1777C43.6123 54.5992 43.288 49.3714 43.1706 47.4368ZM49.0191 69.4889C48.1972 69.5504 46.8162 69.6567 46.2235 68.8236C45.8377 68.2644 46.4136 67.6102 47.0342 67.4313C48.3929 67.9234 50.5288 68.6111 51.2221 68.8292C50.5323 69.1769 49.7865 69.4002 49.0191 69.4889ZM46.1116 69.3771C46.6708 69.9362 47.6213 70.0033 48.3817 69.9921C49.6224 69.986 50.8395 69.6523 51.9098 69.0248C53.1343 69.3827 54.3477 69.6902 55.6113 69.9586C55.6264 69.9638 55.6428 69.9639 55.658 69.9588C55.6731 69.9538 55.6862 69.9439 55.6952 69.9306C55.9076 69.6678 56.1145 69.3715 56.3046 69.1199C57.5906 70.3164 59.7377 71.1048 61.0572 70.0872C62.0301 69.3324 61.8792 68.0408 60.9063 67.2412C65.5359 65.8825 69.2206 63.9312 71.2894 61.8791C73.2202 64.093 74.6491 66.6985 75.4782 69.5167C76.3072 72.3348 76.5167 75.299 76.0923 78.2058C74.9112 78.9785 73.6886 79.686 72.43 80.3249C72.3996 80.3405 72.3754 80.366 72.3614 80.3972C72.3474 80.4283 72.3443 80.4633 72.3528 80.4964C72.3612 80.5295 72.3806 80.5588 72.4079 80.5794C72.4351 80.6001 72.4685 80.6109 72.5027 80.6101C72.5754 80.6101 74.8119 79.5309 75.9917 78.832C75.0261 83.8846 72.3146 88.4368 68.3316 91.6921C67.4314 91.502 66.6542 91.323 66.2851 91.2112C66.0838 91.1441 65.9944 91.446 66.1901 91.5187C66.5311 91.6417 67.1686 91.8151 67.929 92.0108C64.3224 94.7589 59.9174 96.2548 55.3831 96.2709C50.8488 96.287 46.4332 94.8227 42.8072 92.1002C43.4773 91.9602 44.1369 91.7733 44.7809 91.5411C45.0269 91.4349 44.876 91.0714 44.6244 91.1273L42.2984 91.6865C38.037 88.2661 35.1814 83.3987 34.2748 78.0101L34.3867 78.0604C34.6439 78.1722 34.8451 77.82 34.6047 77.6802L34.191 77.4398C33.4516 72.3365 34.6962 67.1439 37.6688 62.9303C40.4532 64.7118 43.437 66.1605 46.559 67.2468C45.6755 67.6941 45.3792 68.6558 46.1116 69.3771ZM59.4525 27.8839C59.3351 29.0022 59.1674 30.1204 58.4741 30.9815C58.0938 31.4568 57.2831 32.1613 56.6177 32.178C56.176 32.178 56.0195 31.9208 55.7343 31.6189C55.3597 31.1828 55.1752 30.9535 54.9739 30.9871C54.5266 31.043 54.6049 31.8873 53.8892 32.3066C53.6711 32.4297 52.9107 32.2116 52.3292 31.932C51.6476 31.5939 51.0857 31.0555 50.7189 30.3888C50.3521 29.7222 50.1979 28.9594 50.2772 28.2026C50.2772 28.0684 50.0815 27.9846 50.0032 28.0237C49.8817 28.0657 49.7514 28.076 49.6248 28.0536C49.4982 28.0312 49.3794 27.9768 49.2797 27.8956C49.1801 27.8144 49.1028 27.709 49.0552 27.5896C49.0076 27.4701 48.9914 27.3405 49.008 27.213C49.2204 26.0947 50.4729 26.3743 50.8028 27.0229C50.8138 27.0392 50.8302 27.0512 50.8492 27.0566C50.8681 27.0621 50.8884 27.0607 50.9064 27.0527C50.9244 27.0447 50.9391 27.0306 50.9477 27.0128C50.9564 26.9951 50.9585 26.9749 50.9537 26.9558C50.7285 26.3679 50.7004 25.7228 50.8739 25.1176C51.0474 24.5125 51.4129 23.9802 51.9154 23.601C52.7141 24.1555 53.6633 24.4527 54.6356 24.4527C55.608 24.4527 56.5571 24.1555 57.3558 23.601C58.4349 24.4397 58.4741 26.1842 58.3958 26.7936C58.3949 26.8084 58.3975 26.8231 58.4033 26.8367C58.4091 26.8503 58.418 26.8623 58.4293 26.8719C58.5244 26.9446 58.6809 26.7545 58.7592 26.665C58.8598 26.5089 59.0041 26.3859 59.1741 26.3113C59.3441 26.2367 59.5324 26.2139 59.7153 26.2457C59.8981 26.2724 60.0647 26.3651 60.1836 26.5064C60.3026 26.6477 60.3656 26.8276 60.3608 27.0123C60.3559 27.1969 60.2836 27.3733 60.1575 27.5082C60.0313 27.6431 59.8601 27.727 59.6762 27.7441C59.6371 27.7106 59.4637 27.7665 59.4525 27.8839Z" fill="black"/>
<path d="M51.4402 89.2095C51.4402 89.2822 51.4962 89.3437 51.4402 89.2095C49.8608 89.8485 48.2272 90.3444 46.559 90.6912C46.3577 90.7304 46.4248 91.0267 46.6261 91.0044C48.3532 90.81 50.0365 90.3321 51.608 89.5898C51.8372 89.4612 51.6863 89.1201 51.4402 89.2095ZM59.2681 86.8332C59.4023 86.8332 63.9313 85.0552 64.373 84.77C64.591 84.6247 64.4401 84.25 64.1829 84.3451C63.73 84.5128 60.1292 86.2126 59.229 86.5313C59.1961 86.5438 59.1684 86.5671 59.1504 86.5973C59.1324 86.6274 59.125 86.6628 59.1295 86.6977C59.134 86.7326 59.1502 86.7649 59.1753 86.7895C59.2004 86.8141 59.2331 86.8295 59.2681 86.8332ZM66.1901 83.8698C66.3355 83.8698 70.1041 82.1533 70.4563 81.8849C70.6297 81.7507 70.5122 81.432 70.283 81.5215C69.9419 81.6501 66.8499 83.1989 66.1398 83.4952C66.1001 83.5118 66.067 83.5411 66.0456 83.5784C66.0241 83.6158 66.0156 83.6591 66.0214 83.7018C66.0271 83.7445 66.0467 83.7841 66.0773 83.8145C66.1078 83.8448 66.1474 83.8643 66.1901 83.8698ZM77.1603 72.6313C77.4734 72.8326 78.6364 73.7495 78.9495 73.9508C78.9974 73.9785 79.0537 73.988 79.108 73.9775C79.1623 73.967 79.211 73.9372 79.245 73.8936C79.2791 73.85 79.2962 73.7955 79.2933 73.7403C79.2904 73.6851 79.2676 73.6327 79.2291 73.593C78.9328 73.3414 77.6524 72.5418 77.3336 72.3517C77.2966 72.3287 77.2519 72.3214 77.2094 72.3314C77.167 72.3413 77.1302 72.3678 77.1072 72.4048C77.0842 72.4419 77.0769 72.4866 77.0869 72.5291C77.0968 72.5715 77.1232 72.6083 77.1603 72.6313ZM84.1774 77.2721C84.0041 77.1323 83.7693 77.3839 83.9482 77.5293C84.3452 77.8592 85.9219 79.257 86.358 79.5533C86.4043 79.5762 86.4571 79.5824 86.5074 79.5708C86.5577 79.5592 86.6024 79.5306 86.634 79.4897C86.6656 79.4489 86.6821 79.3985 86.6807 79.3469C86.6793 79.2953 86.6601 79.2457 86.6264 79.2067C86.2686 78.8376 84.6415 77.6411 84.1774 77.2721ZM87.7838 80.4815C87.7505 80.4489 87.7055 80.4308 87.6588 80.4314C87.6122 80.4319 87.5676 80.4509 87.535 80.4843C87.5024 80.5177 87.4844 80.5626 87.4849 80.6093C87.4854 80.6559 87.5044 80.7005 87.5378 80.7331C88.2399 81.4434 88.871 82.2206 89.4221 83.0535C89.601 83.3051 90.0092 83.0535 89.8358 82.7963C89.252 81.9414 88.5625 81.1637 87.7838 80.4815ZM79.956 93.3751C79.2067 93.3751 75.9806 93.1626 75.1866 93.0005C75.1503 92.9916 75.1119 92.9975 75.0799 93.0169C75.0479 93.0363 75.0249 93.0676 75.016 93.1039C75.0071 93.1402 75.013 93.1786 75.0324 93.2106C75.0518 93.2426 75.0832 93.2655 75.1195 93.2744C76.7164 93.5747 78.3326 93.7615 79.956 93.8336C80.0168 93.8336 80.0751 93.8094 80.1181 93.7664C80.1611 93.7234 80.1852 93.6651 80.1852 93.6043C80.1852 93.5435 80.1611 93.4852 80.1181 93.4422C80.0751 93.3992 80.0168 93.3751 79.956 93.3751ZM59.9726 89.3549C59.7769 89.2599 59.6148 89.5506 59.816 89.6513C61.2245 90.3627 62.7327 90.8566 64.2891 91.1162C64.591 91.1721 64.7084 90.708 64.4009 90.6577C62.8713 90.432 61.3808 89.9935 59.9726 89.3549ZM53.4196 88.9691C54.1185 88.8181 55.5443 88.41 55.7679 88.3764C55.9804 88.4603 57.3447 88.9747 58.0715 89.148C58.126 89.1601 58.183 89.1509 58.2309 89.1222C58.2787 89.0936 58.3138 89.0477 58.3288 88.994C58.3439 88.9402 58.3377 88.8828 58.3117 88.8335C58.2857 88.7841 58.2418 88.7466 58.189 88.7287C57.6298 88.5274 57.0707 88.3597 56.4501 88.1696C56.9009 88.0197 57.3385 87.8327 57.7584 87.6104C57.789 87.5778 57.8093 87.5369 57.8169 87.4928C57.8245 87.4488 57.819 87.4035 57.8012 87.3625C57.7834 87.3215 57.754 87.2866 57.7166 87.2621C57.6792 87.2376 57.6354 87.2246 57.5907 87.2246C56.9645 87.4371 56.3494 87.7055 55.74 87.9403C55.0466 87.6943 54.4092 87.4427 53.7998 87.1743C53.5985 87.0848 53.4363 87.3812 53.6432 87.4762C54.152 87.7167 54.6608 87.9459 55.1641 88.1528C54.5697 88.3591 53.965 88.5346 53.3525 88.6784C53.3268 88.6971 53.3071 88.723 53.296 88.7527C53.2849 88.7825 53.2828 88.8149 53.2899 88.8459C53.2971 88.8769 53.3132 88.9051 53.3362 88.927C53.3593 88.9489 53.3883 88.9636 53.4196 88.9691ZM28.3928 73.3805C27.8337 72.9444 25.7369 71.144 25.2729 70.652C25.1219 70.4898 24.8703 70.7302 25.0213 70.8924C25.9338 71.9659 26.9762 72.9219 28.1244 73.7384C28.3481 73.8893 28.6053 73.5483 28.3928 73.3805ZM21.7503 99.8386C21.4014 96.7519 20.7726 93.7033 19.8716 90.7304C20.3817 91.5017 21.1682 92.048 22.069 92.2568C22.1076 92.2731 22.151 92.2735 22.1898 92.2577C22.2286 92.242 22.2596 92.2115 22.2759 92.1729C22.2922 92.1344 22.2926 92.0909 22.2768 92.0521C22.2611 92.0133 22.2306 91.9824 22.192 91.9661C21.4764 91.5355 20.3749 91.0994 20.0338 90.0538C20.2204 89.7132 20.2664 89.3132 20.1619 88.9391C20.0574 88.5651 19.8108 88.2467 19.4747 88.0521C19.6758 86.8646 20.1009 85.7262 20.7271 84.6973C20.7998 84.5576 20.6097 84.4122 20.5035 84.5352C19.7056 85.5301 19.2176 86.7375 19.1 88.0074C18.9545 88.0179 18.8113 88.0499 18.6751 88.1025C17.1937 84.2735 15.0891 80.716 12.4464 77.574C12.5481 77.4006 12.5876 77.1976 12.5584 76.9987C12.5292 76.7997 12.433 76.6167 12.2857 76.4799C12.1384 76.343 11.9488 76.2605 11.7483 76.2459C11.5478 76.2314 11.3482 76.2857 11.1827 76.3998C10.9939 76.5283 10.8566 76.7195 10.7952 76.9396C10.7338 77.1596 10.7522 77.3942 10.8473 77.602C10.9106 77.7127 10.9957 77.8096 11.0975 77.8866C11.1992 77.9636 11.3155 78.0192 11.4394 78.05C11.5632 78.0808 11.692 78.0862 11.818 78.0659C11.944 78.0456 12.0645 78 12.1724 77.9319C14.7634 81.0384 16.8399 84.5401 18.3229 88.3037C17.4115 89.1089 18.2054 90.6186 19.3517 90.4956C20.2967 93.5724 20.9556 96.73 21.3198 99.9281C21.1521 100.017 21.0221 100.164 20.9537 100.341C20.8853 100.518 20.8831 100.714 20.9475 100.892C21.0119 101.071 21.1386 101.22 21.3043 101.313C21.47 101.405 21.6636 101.435 21.8495 101.397C22.0354 101.358 22.2011 101.253 22.3161 101.102C22.4312 100.951 22.4879 100.764 22.4759 100.575C22.4638 100.385 22.3838 100.206 22.2505 100.071C22.1172 99.9359 21.9396 99.8534 21.7503 99.8386ZM12.1444 77.1602C12.1641 77.2339 12.1665 77.3112 12.1516 77.386C12.1366 77.4608 12.1046 77.5311 12.0582 77.5916C12.0117 77.6521 11.9519 77.701 11.8835 77.7347C11.8151 77.7685 11.7399 77.786 11.6636 77.786C11.5873 77.786 11.5121 77.7685 11.4437 77.7347C11.3752 77.701 11.3155 77.6521 11.269 77.5916C11.2225 77.5311 11.1906 77.4608 11.1756 77.386C11.1607 77.3112 11.1631 77.2339 11.1827 77.1602C11.1631 77.0866 11.1607 77.0093 11.1756 76.9345C11.1906 76.8597 11.2225 76.7894 11.269 76.7289C11.3155 76.6684 11.3752 76.6195 11.4437 76.5858C11.5121 76.552 11.5873 76.5345 11.6636 76.5345C11.7399 76.5345 11.8151 76.552 11.8835 76.5858C11.9519 76.6195 12.0117 76.6684 12.0582 76.7289C12.1046 76.7894 12.1366 76.8597 12.1516 76.9345C12.1665 77.0093 12.1641 77.0866 12.1444 77.1602ZM22.2088 100.593C22.2088 101.153 21.2863 101.153 21.2863 100.593C21.2863 100.034 22.1865 100.085 22.1865 100.644L22.2088 100.593ZM19.7598 89.6345C19.4579 90.5682 18.334 89.9141 18.3508 89.1536C18.3508 88.4827 19.2846 88.0354 19.6368 88.6784C19.7271 88.823 19.7831 88.9864 19.8005 89.156C19.8179 89.3255 19.7964 89.4969 19.7375 89.6569L19.7598 89.6345ZM101.08 67.1462C101.077 66.9847 101.03 66.8271 100.942 66.6911C100.855 66.555 100.732 66.4458 100.587 66.3757C100.441 66.3055 100.279 66.2772 100.118 66.2938C99.9576 66.3104 99.8047 66.3712 99.6766 66.4696C96.5301 64.6274 93.8242 62.12 91.7481 59.1227C91.8998 58.9484 92.0041 58.7381 92.0511 58.5119C92.0981 58.2858 92.0862 58.0513 92.0165 57.8311C91.963 57.6602 91.8662 57.506 91.7354 57.3838C91.6045 57.2616 91.4442 57.1754 91.2701 57.1337C91.0959 57.092 90.914 57.0962 90.7419 57.1459C90.5699 57.1956 90.4138 57.2891 90.2887 57.4173C87.5979 53.7773 85.6747 49.6285 84.6359 45.2226C84.7408 45.1038 84.805 44.9545 84.8191 44.7966C84.8332 44.6386 84.7964 44.4803 84.7142 44.3448C84.6524 44.2048 84.5467 44.0887 84.4131 44.0141C84.2795 43.9395 84.1253 43.9105 83.9737 43.9313C83.8221 43.9521 83.6814 44.0218 83.5729 44.1297C83.4644 44.2376 83.394 44.3778 83.3723 44.5293C83.3368 44.6566 83.3364 44.7911 83.3711 44.9186C83.4058 45.0461 83.4744 45.1618 83.5695 45.2535C83.6646 45.3452 83.7828 45.4094 83.9115 45.4394C84.0402 45.4694 84.1746 45.4641 84.3004 45.4239C85.3306 49.8806 87.285 54.0712 90.0371 57.7248C89.9783 57.8199 89.9349 57.9237 89.9085 58.0323C89.1984 57.6913 85.6703 56.573 85.3013 56.6737C85.1447 56.7184 85.2174 56.9085 85.3013 56.9309C86.8452 57.3575 88.3614 57.8784 89.8414 58.4908C89.8727 58.662 89.9426 58.8238 90.0457 58.964C90.1488 59.1042 90.2825 59.2191 90.4366 59.2999C90.5907 59.3807 90.7612 59.4254 90.9352 59.4305C91.1091 59.4357 91.2819 59.4011 91.4405 59.3295C93.9902 62.9527 96.6013 65.3961 99.4194 66.7995C99.359 66.9352 99.3334 67.0838 99.3449 67.2318C99.3563 67.3799 99.4044 67.5228 99.4848 67.6476C99.5653 67.7724 99.6755 67.8753 99.8056 67.9468C99.9357 68.0184 100.082 68.0565 100.23 68.0576C100.349 68.0633 100.467 68.0431 100.577 67.9984C100.687 67.9537 100.785 67.8857 100.866 67.7989C100.947 67.7122 101.008 67.6089 101.045 67.4961C101.082 67.3834 101.094 67.264 101.08 67.1462ZM99.8387 67.4258C99.7907 67.3549 99.762 67.2727 99.7555 67.1873C99.749 67.1019 99.7648 67.0163 99.8015 66.9389C99.8383 66.8615 99.8945 66.7951 99.9648 66.7461C100.035 66.6972 100.117 66.6674 100.202 66.6598C100.336 66.6641 100.463 66.72 100.557 66.8158C100.651 66.9117 100.704 67.0401 100.705 67.1742C100.706 67.276 100.673 67.3751 100.611 67.4566C100.55 67.538 100.464 67.5974 100.367 67.6258C100.269 67.6542 100.164 67.6501 100.069 67.614C99.974 67.5779 99.8931 67.5118 99.8387 67.4258ZM91.2728 59.0052C91.1 59.061 90.9135 59.0571 90.7432 58.9942C90.5729 58.9314 90.4286 58.8132 90.3335 58.6586C90.2812 58.5342 90.2596 58.3991 90.2706 58.2647C90.2817 58.1303 90.325 58.0005 90.3968 57.8863C90.4687 57.7722 90.5671 57.6771 90.6836 57.6091C90.8 57.541 90.9312 57.5021 91.0659 57.4956C91.7816 57.4956 91.9046 58.7424 91.2728 59.0052ZM84.457 44.7306C84.4635 44.7833 84.4587 44.8367 84.4429 44.8873C84.4272 44.938 84.4009 44.9848 84.3657 45.0245C84.3306 45.0642 84.2874 45.096 84.239 45.1178C84.1907 45.1396 84.1382 45.1509 84.0852 45.1509C84.0321 45.1509 83.9797 45.1396 83.9313 45.1178C83.8829 45.096 83.8397 45.0642 83.8046 45.0245C83.7694 44.9848 83.7431 44.938 83.7274 44.8873C83.7117 44.8367 83.7069 44.7833 83.7133 44.7306C83.7069 44.6779 83.7117 44.6245 83.7274 44.5738C83.7431 44.5232 83.7694 44.4764 83.8046 44.4367C83.8397 44.397 83.8829 44.3651 83.9313 44.3434C83.9797 44.3216 84.0321 44.3103 84.0852 44.3103C84.1382 44.3103 84.1907 44.3216 84.239 44.3434C84.2874 44.3651 84.3306 44.397 84.3657 44.4367C84.4009 44.4764 84.4272 44.5232 84.4429 44.5738C84.4587 44.6245 84.4635 44.6779 84.457 44.7306ZM93.3751 90.2272C93.3906 90.1881 93.3917 90.1448 93.3784 90.1049C93.3652 90.065 93.3383 90.0311 93.3025 90.0091C93.0229 89.8358 92.5644 90.1265 92.4861 90.4564C92.6762 90.4732 93.2577 90.4508 93.3751 90.2272Z" fill="black"/>
<path d="M92.0443 86.5313C91.6809 85.7622 91.272 85.0153 90.8198 84.2948C90.7949 84.2581 90.7568 84.2324 90.7135 84.2229C90.6702 84.2134 90.6248 84.2209 90.5869 84.2438C90.5489 84.2668 90.5211 84.3034 90.5093 84.3461C90.4976 84.3889 90.5026 84.4346 90.5235 84.4737C90.9005 85.1362 91.2275 85.8258 91.502 86.5369C90.8781 86.6048 90.285 86.8432 89.7877 87.226C89.2904 87.6087 88.9081 88.1211 88.6829 88.7068C88.4576 89.2925 88.398 89.929 88.5106 90.5463C88.6233 91.1637 88.9038 91.7381 89.3214 92.2065C87.3866 92.9594 85.3404 93.3864 83.266 93.4702C83.2288 93.4771 83.1953 93.4969 83.1711 93.526C83.147 93.5551 83.1338 93.5917 83.1338 93.6295C83.1338 93.6673 83.147 93.7039 83.1711 93.733C83.1953 93.7621 83.2288 93.7819 83.266 93.7889C85.4778 93.8358 87.6757 93.4286 89.7239 92.5923C90.1429 92.9247 90.6343 93.1538 91.1583 93.2609C91.6823 93.368 92.2242 93.3501 92.74 93.2088C93.2558 93.0675 93.7311 92.8067 94.1273 92.4475C94.5235 92.0882 94.8296 91.6407 95.0207 91.1412C95.2117 90.6417 95.2824 90.1042 95.2271 89.5722C95.1717 89.0402 94.9918 88.5288 94.7019 88.0793C94.4121 87.6299 94.0204 87.255 93.5587 86.9851C93.097 86.7152 92.5782 86.5578 92.0443 86.5257V86.5313ZM91.3342 91.6977C91.2783 91.3231 91.2559 90.9429 91.1889 90.5794H90.3669C90.3166 90.9093 90.3166 91.2392 90.2663 91.5691C90.2634 91.5926 90.2558 91.6153 90.2441 91.6359C90.2324 91.6565 90.2168 91.6745 90.1981 91.6891C90.1794 91.7036 90.158 91.7143 90.1352 91.7206C90.1123 91.7269 90.0885 91.7286 90.065 91.7257C90.0415 91.7227 90.0188 91.7152 89.9982 91.7035C89.9776 91.6918 89.9596 91.6761 89.945 91.6575C89.9305 91.6388 89.9198 91.6174 89.9135 91.5946C89.9072 91.5717 89.9055 91.5479 89.9084 91.5244C89.9084 91.1554 90.216 88.807 90.2775 88.4771C90.3558 88.013 90.6018 87.9739 90.7415 87.9907C91.0323 88.0242 91.1106 88.3261 91.1721 88.5498C91.3342 89.1481 91.7312 90.9708 91.8319 91.5747C91.8766 91.8766 91.3846 91.9996 91.3342 91.6977ZM93.8447 91.2672C92.9445 91.8934 91.8095 91.1442 92.1673 90.2775C92.3966 89.7184 93.2856 89.3382 93.6602 89.9197C93.7053 90.0137 93.7274 90.117 93.7249 90.2212C93.7223 90.3254 93.6951 90.4275 93.6454 90.5191C93.5958 90.6108 93.5251 90.6894 93.4393 90.7484C93.3534 90.8075 93.2547 90.8454 93.1514 90.859C92.9658 90.8835 92.7779 90.8835 92.5923 90.859C92.6631 90.9372 92.7462 91.0033 92.8383 91.0547C93.3974 91.2895 93.772 90.8702 93.8839 91.105C93.8926 91.1286 93.8935 91.1544 93.8865 91.1786C93.8794 91.2027 93.8648 91.224 93.8447 91.2392V91.2672Z" fill="black"/>
<path d="M90.6577 88.5833C90.5739 89.0082 90.4788 89.7687 90.4341 90.1209H91.0994C91.0379 89.8358 90.8758 89.0362 90.764 88.6001C90.7472 88.5274 90.6689 88.5106 90.6577 88.5833ZM42.2145 80.2131C41.8791 80.0118 41.141 79.9894 41.0963 80.4312C41.0627 80.6772 41.0963 81.6612 41.0963 81.924C41.3514 81.9166 41.6022 81.8567 41.8331 81.748C42.064 81.6393 42.27 81.4841 42.4382 81.2922C42.5011 81.209 42.5455 81.1132 42.5684 81.0114C42.5913 80.9096 42.5922 80.8041 42.5711 80.7019C42.5499 80.5998 42.5071 80.5033 42.4456 80.419C42.3841 80.3347 42.3054 80.2645 42.2145 80.2131Z" fill="black"/>
<path d="M51.7701 86.2909C50.2246 85.7248 48.7125 85.0715 47.2411 84.334C47.5348 83.7337 47.7074 83.0815 47.749 82.4145C47.7907 81.7475 47.7005 81.0789 47.4838 80.4468C47.267 79.8146 46.9279 79.2314 46.4857 78.7303C46.0435 78.2293 45.507 77.8202 44.9067 77.5265C44.3065 77.2328 43.6542 77.0602 42.9873 77.0186C42.3203 76.9769 41.6517 77.0671 41.0195 77.2838C40.3874 77.5006 39.8042 77.8398 39.3031 78.2819C38.8021 78.7241 38.393 79.2606 38.0993 79.8609C37.4228 79.5008 36.7658 79.1051 36.1311 78.6755C35.9578 78.5637 35.7957 78.8265 35.9578 78.9439C36.7126 79.5031 37.3445 79.8944 37.9316 80.2523C35.9243 86.112 43.7242 89.8638 47.0454 84.675C48.503 85.5026 50.0634 86.1343 51.6862 86.5537C51.719 86.5585 51.7524 86.5515 51.7805 86.534C51.8086 86.5164 51.8296 86.4895 51.8397 86.4579C51.8497 86.4263 51.8483 86.3922 51.8355 86.3616C51.8228 86.331 51.7996 86.306 51.7701 86.2909ZM42.824 81.8179C42.3711 82.2519 41.7735 82.5028 41.1466 82.5224V84.0879C41.1466 84.1517 41.1212 84.2129 41.0761 84.2579C41.0311 84.303 40.9699 84.3284 40.9061 84.3284C40.8424 84.3284 40.7812 84.303 40.7361 84.2579C40.691 84.2129 40.6657 84.1517 40.6657 84.0879C40.6657 83.8195 40.5707 81.5998 40.5651 81.4209C40.5651 80.8617 40.3526 79.9056 41.1242 79.5981C42.5444 78.9998 43.8863 80.571 42.796 81.8123L42.824 81.8179ZM45.396 83.4953C45.3177 84.3899 44.1156 84.7757 43.3999 84.2445C43.3489 84.2042 43.3146 84.1465 43.3036 84.0825C43.2927 84.0184 43.3059 83.9526 43.3406 83.8977C43.3754 83.8428 43.4292 83.8027 43.4918 83.7852C43.5544 83.7676 43.6212 83.7739 43.6794 83.8028C43.8413 83.9112 44.0358 83.9599 44.2297 83.9405C44.4235 83.9211 44.6046 83.8349 44.7418 83.6965C44.9095 83.5232 44.8424 83.1765 44.5684 83.2157C44.356 83.2763 44.1346 83.2991 43.9143 83.2828C43.8026 83.2568 43.6991 83.2036 43.6131 83.1278C43.527 83.0521 43.4611 82.9562 43.4212 82.8487C43.3813 82.7412 43.3687 82.6255 43.3845 82.512C43.4003 82.3985 43.444 82.2906 43.5117 82.1981C43.6061 82.0647 43.7305 81.9554 43.875 81.8791C44.0195 81.8028 44.1799 81.7617 44.3433 81.7589C44.5067 81.7562 44.6684 81.792 44.8153 81.8635C44.9623 81.9349 45.0903 82.04 45.1891 82.1701C45.3568 82.3882 45.0102 82.651 44.8424 82.4385C44.7643 82.3477 44.6609 82.2822 44.5454 82.2503C44.4299 82.2185 44.3075 82.2217 44.1938 82.2596C43.7074 82.4385 44.0149 82.9193 44.3392 82.8187C44.4119 82.7963 45.4407 82.6342 45.368 83.4729L45.396 83.4953ZM90.6689 64.8985C90.4878 65.312 90.2805 65.7135 90.0483 66.1007C89.6102 65.4919 89.0429 64.9874 88.3871 64.6235C87.7313 64.2595 87.0031 64.0451 86.2547 63.9955C85.5064 63.9459 84.7563 64.0623 84.0581 64.3365C83.36 64.6107 82.7312 65.0359 82.2166 65.5815C81.702 66.1272 81.3144 66.7798 81.0815 67.4928C80.8487 68.2058 80.7763 68.9614 80.8697 69.7056C80.963 70.4498 81.2197 71.1642 81.6214 71.7976C82.0231 72.431 82.5599 72.9677 83.1933 73.3694C82.6342 73.867 81.4768 74.7504 81.2419 74.9349L80.8282 74.7448C80.6436 74.661 80.4927 74.9349 80.6828 75.0244C80.769 75.0646 80.853 75.1094 80.9344 75.1586C80.2305 75.6692 79.5008 76.1432 78.7482 76.5788C78.7089 76.601 78.68 76.638 78.668 76.6815C78.6559 76.725 78.6617 76.7715 78.6839 76.8108C78.7061 76.8501 78.7431 76.879 78.7866 76.891C78.8301 76.9031 78.8766 76.8974 78.9159 76.8751C79.8385 76.3607 80.6325 75.8743 81.3314 75.399C81.8417 75.7539 82.3173 76.1564 82.7516 76.6012C82.7954 76.6355 82.8502 76.6528 82.9058 76.6497C82.9615 76.6466 83.014 76.6233 83.0538 76.5843C83.0935 76.5453 83.1176 76.4931 83.1217 76.4375C83.1258 76.382 83.1095 76.3269 83.0759 76.2824C82.6399 75.8714 82.1705 75.4974 81.6725 75.1642C82.0135 74.9182 83.1038 74.1074 83.6518 73.6266C84.6295 74.1077 85.7358 74.2627 86.8081 74.0686C87.8804 73.8745 88.8622 73.3416 89.6093 72.5483C90.3563 71.7549 90.8293 70.7429 90.9586 69.6609C91.0879 68.5788 90.8668 67.4839 90.3278 66.5368C90.6156 66.0564 90.8553 65.5489 91.0435 65.0215C91.1386 64.7811 90.7639 64.6637 90.6689 64.8985ZM85.9666 71.1273C85.8544 70.7493 85.7666 70.3646 85.7038 69.9754L84.524 70.0929C84.4569 70.4451 84.3898 70.7974 84.3339 71.1496C84.278 71.5019 83.8195 71.3565 83.8643 71.0546C83.9649 70.3109 84.5632 67.1406 84.6806 66.8387C85.0105 66.1901 85.5081 66.6374 85.7988 67.3699C86.0809 68.5824 86.3011 69.8085 86.4586 71.0434C86.4697 71.1086 86.4545 71.1756 86.4162 71.2296C86.3779 71.2836 86.3198 71.3202 86.2545 71.3313C86.1893 71.3425 86.1223 71.3272 86.0683 71.2889C86.0143 71.2507 85.9777 71.1925 85.9666 71.1273ZM86.9227 67.4985C86.951 67.4325 86.993 67.3732 87.0458 67.3246C87.0987 67.276 87.1613 67.2391 87.2294 67.2164C87.2975 67.1937 87.3697 67.1857 87.4411 67.1928C87.5126 67.2 87.5817 67.2223 87.644 67.2581C87.6995 67.2953 87.7463 67.344 87.7813 67.401C87.8162 67.458 87.8384 67.5219 87.8464 67.5883C87.8543 67.6546 87.8479 67.7219 87.8274 67.7856C87.807 67.8492 87.773 67.9077 87.7278 67.957C87.6577 68.0432 87.5592 68.1018 87.45 68.1222C87.3407 68.1427 87.2277 68.1237 87.1311 68.0687C87.0345 68.0137 86.9605 67.9262 86.9224 67.8218C86.8842 67.7174 86.8843 67.6028 86.9227 67.4985ZM87.8956 71.0713C87.8947 71.1355 87.8708 71.1972 87.8283 71.2452C87.7858 71.2933 87.7275 71.3245 87.664 71.3333C87.6005 71.3421 87.5359 71.3278 87.4819 71.2931C87.428 71.2584 87.3883 71.2055 87.37 71.144C87.3253 71.021 87.2414 69.2989 87.2414 69.0976C87.2414 69.0398 87.2644 68.9843 87.3053 68.9434C87.3462 68.9025 87.4016 68.8795 87.4595 68.8795C87.5173 68.8795 87.5728 68.9025 87.6137 68.9434C87.6546 68.9843 87.6775 69.0398 87.6775 69.0976C87.6943 69.4163 87.9012 70.9763 87.8956 71.0713Z" fill="black"/>
<path d="M84.6359 69.5393L85.6088 69.433C85.5113 68.7512 85.3465 68.0807 85.1167 67.4313C84.9881 67.9905 84.7533 68.9857 84.6359 69.5393ZM30.7523 93.6211C30.2826 93.9006 30.6684 94.6611 31.3114 94.3759C31.3114 94.0069 31.2779 93.7329 31.2667 93.6043C31.1859 93.5657 31.097 93.5471 31.0075 93.55C30.9179 93.5529 30.8304 93.5773 30.7523 93.6211Z" fill="black"/>
<path d="M36.1535 92.911C35.228 93.0558 34.2943 93.1417 33.3579 93.1682C33.1063 88.7678 26.8105 88.7622 26.5533 93.1682C25.5819 93.0744 24.6259 92.8603 23.7073 92.5308C23.69 92.522 23.6712 92.5166 23.6519 92.5151C23.6326 92.5136 23.6131 92.5159 23.5947 92.5218C23.5763 92.5278 23.5592 92.5373 23.5445 92.5499C23.5297 92.5625 23.5176 92.5778 23.5088 92.5951C23.5 92.6123 23.4946 92.6312 23.4931 92.6505C23.4916 92.6698 23.4938 92.6892 23.4998 92.7076C23.5058 92.7261 23.5153 92.7431 23.5279 92.7579C23.5405 92.7726 23.5558 92.7848 23.5731 92.7936C24.5048 93.2869 25.5256 93.5891 26.5756 93.6826C26.6815 94.5035 27.0827 95.2577 27.7042 95.8042C28.3258 96.3508 29.1251 96.6523 29.9528 96.6523C30.7804 96.6523 31.5798 96.3508 32.2013 95.8042C32.8229 95.2577 33.2241 94.5035 33.3299 93.6826C34.3034 93.5833 35.2705 93.4284 36.2262 93.2185C36.2591 93.2023 36.2855 93.1754 36.3011 93.1422C36.3167 93.109 36.3207 93.0715 36.3122 93.0358C36.3038 93.0002 36.2835 92.9684 36.2547 92.9457C36.2259 92.923 36.1902 92.9108 36.1535 92.911ZM29.444 94.6946C29.4364 94.7324 29.4209 94.7682 29.3985 94.7996C29.3761 94.831 29.3474 94.8573 29.3141 94.8768C29.2809 94.8964 29.2439 94.9087 29.2055 94.9129C29.1672 94.9172 29.1284 94.9133 29.0917 94.9015C28.924 94.8512 28.9519 94.7561 28.6835 94.3759C28.5997 94.5157 28.5158 94.6611 28.4375 94.8064C28.4069 94.8565 28.3582 94.8929 28.3015 94.9081C28.2448 94.9233 28.1845 94.9162 28.1329 94.8883C28.0813 94.8603 28.0423 94.8136 28.0241 94.7578C28.0059 94.7021 28.0098 94.6414 28.0349 94.5884C28.1412 94.3871 28.2474 94.1802 28.3648 93.9789C28.2269 93.8352 28.0731 93.7077 27.9063 93.5987C27.8517 93.5603 27.8137 93.5025 27.8001 93.437C27.7866 93.3716 27.7984 93.3034 27.8333 93.2464C27.8683 93.1894 27.9236 93.1479 27.988 93.1302C28.0525 93.1126 28.1212 93.1202 28.1803 93.1514C28.8792 93.5819 28.4487 93.6323 28.9799 92.9725C29.1979 92.7041 29.6117 93.034 29.4328 93.308C29.3098 93.4981 29.1532 93.6938 29.019 93.8671C29.293 94.2194 29.4719 94.4933 29.4384 94.6946H29.444ZM31.8259 94.7617C31.7069 94.8691 31.5662 94.9496 31.4133 94.9978C31.2604 95.0461 31.099 95.0609 30.9399 95.0412C30.7809 95.0216 30.6279 94.968 30.4913 94.8841C30.3547 94.8002 30.2378 94.6879 30.1485 94.5548C30.0346 94.3868 29.9742 94.1883 29.9752 93.9853C29.9762 93.7824 30.0386 93.5845 30.1541 93.4176C30.2696 93.2507 30.4328 93.1226 30.6224 93.0502C30.812 92.9777 31.0191 92.9643 31.2164 93.0116C31.168 92.4072 31.1512 91.8006 31.1661 91.1945C31.1669 91.1297 31.1917 91.0676 31.2355 91.02C31.2793 90.9724 31.3391 90.9426 31.4035 90.9364C31.468 90.9301 31.5324 90.9479 31.5845 90.9862C31.6367 91.0246 31.6728 91.0808 31.6861 91.1441C31.8035 91.8766 31.893 94.0237 31.9041 94.2697C31.9153 94.3983 31.9712 94.6107 31.8203 94.7617H31.8259ZM21.3757 61.7058C21.4763 61.7058 21.5043 61.7058 21.5099 61.6723C21.5099 61.5772 21.3198 60.3192 21.2974 60.1682C19.7095 60.3863 19.9108 61.8512 21.3757 61.7058Z" fill="black"/>
<path d="M25.3287 56.4053C24.6658 56.4961 24.0087 56.6249 23.3605 56.7911C22.8393 56.2849 22.2039 55.9116 21.5079 55.703C20.8119 55.4944 20.0759 55.4565 19.3622 55.5925C18.6485 55.7285 17.978 56.0344 17.4076 56.4844C16.8371 56.9344 16.3835 57.5151 16.085 58.1776C15.7865 58.84 15.6519 59.5645 15.6927 60.29C15.7336 61.0154 15.9485 61.7203 16.3194 62.3451C16.6903 62.9698 17.2063 63.496 17.8236 63.8792C18.4409 64.2623 19.1415 64.4911 19.8659 64.5462C20.4968 66.3224 21.5961 67.895 23.0474 69.0976C23.0606 69.1104 23.0762 69.1205 23.0934 69.1274C23.1105 69.1342 23.1288 69.1375 23.1472 69.1373C23.1657 69.137 23.1839 69.1331 23.2008 69.1258C23.2177 69.1186 23.233 69.108 23.2459 69.0948C23.2587 69.0816 23.2689 69.0659 23.2757 69.0488C23.2825 69.0317 23.2859 69.0134 23.2856 68.995C23.2853 68.9765 23.2815 68.9583 23.2742 68.9414C23.2669 68.9245 23.2563 68.9091 23.2431 68.8963C22.0327 67.6295 21.0525 66.1612 20.3468 64.5574C21.1895 64.5257 22.0067 64.2598 22.7068 63.7897C23.407 63.3195 23.9623 62.6637 24.3106 61.8957C24.6589 61.1277 24.7864 60.2778 24.6789 59.4414C24.5713 58.6049 24.2329 57.815 23.7016 57.1601C24.2943 57.0036 24.8199 56.8638 25.379 56.7575C25.6474 56.7128 25.5523 56.3605 25.3287 56.4053ZM18.3507 62.0637V57.9038C18.3593 57.8484 18.3874 57.7979 18.43 57.7615C18.4725 57.7251 18.5267 57.705 18.5827 57.705C18.6388 57.705 18.6929 57.7251 18.7355 57.7615C18.778 57.7979 18.8062 57.8484 18.8148 57.9038C18.8148 58.7313 18.9098 61.5046 18.9266 62.0637C18.9073 62.1249 18.869 62.1784 18.8172 62.2164C18.7654 62.2544 18.7029 62.2748 18.6386 62.2748C18.5744 62.2748 18.5119 62.2544 18.4601 62.2164C18.4083 62.1784 18.37 62.1249 18.3507 62.0637ZM21.7726 62.1196C20.6543 62.7179 19.1614 61.6499 19.8659 60.4031C20.0204 60.1811 20.2273 60.0007 20.4682 59.8778C20.7091 59.7549 20.9766 59.6933 21.247 59.6986C21.1536 59.0894 21.0976 58.4751 21.0793 57.859C21.0822 57.7984 21.1065 57.7408 21.1478 57.6964C21.1891 57.652 21.2447 57.6236 21.305 57.6162C21.3652 57.6089 21.426 57.623 21.4768 57.6562C21.5276 57.6894 21.565 57.7394 21.5825 57.7975C21.6775 58.2001 21.9459 60.8783 21.9739 61.2306C21.9851 61.5046 22.1081 61.9127 21.7726 62.0917V62.1196Z" fill="black"/>
</svg>
