<svg xmlns="http://www.w3.org/2000/svg" viewBox="0 0 500 500"><g id="freepik--background-simple--inject-30"><path d="M354.67,11q-5.94.44-11.9.7C300,13.67,101.73,25.26,53.62,75.79c-54,56.73-26.51,359.93,53.12,394.15s325.72,9.69,356.56-41S469.13,103.78,441.62,53C418.14,9.72,368.64,10,354.67,11Z" style="fill:#1D2FCF"></path><path d="M354.67,11q-5.94.44-11.9.7C300,13.67,101.73,25.26,53.62,75.79c-54,56.73-26.51,359.93,53.12,394.15s325.72,9.69,356.56-41S469.13,103.78,441.62,53C418.14,9.72,368.64,10,354.67,11Z" style="fill:#fff;opacity:0.7000000000000001"></path></g><g id="freepik--Clouds--inject-30"><path d="M385.74,291.5h77.05s-6.57-13.56-10-17.62-13.3-2.64-13.3-2.64a62.44,62.44,0,0,0-2.47-5.78" style="fill:none;stroke:#263238;stroke-linecap:round;stroke-linejoin:round"></path><path d="M434.74,261.05c-4.33-7.49-11.46-16.25-20.86-15.47-16.21,1.35-14.19,21.61-21.61,27s-12.83-6.08-20.26-3.37-6.76,10.8-11.48,12.83S349.72,275.29,345,278s-3.38,8.11-6.76,9.46S322,291.5,322,291.5h59.78" style="fill:none;stroke:#263238;stroke-linecap:round;stroke-linejoin:round"></path><path d="M89.77,340.89a9.81,9.81,0,0,0-6.35.1c-10.26,3.73-9.32,14.91-15.85,17.7s-14.91-9.32-21.43-5.59-4.66,11.18-9.32,13-22.37,5.59-22.37,5.59H163.2" style="fill:none;stroke:#263238;stroke-linecap:round;stroke-linejoin:round"></path><path d="M169.26,371.74h31.65s1.11-13.6-9.14-23a19.14,19.14,0,0,0-15.16-4.93s-13.05-37.27-35.42-35.41-19.57,29.82-29.82,37.28c-4.56,3.31-8.56,2-12.51-.11" style="fill:none;stroke:#263238;stroke-linecap:round;stroke-linejoin:round"></path><path d="M207.48,58.11c-2-1.14-4-2.12-6.31-1.29-5.52,2-5,8-8.53,9.53s-8-5-11.54-3-2.5,6-5,7-12,3-12,3h57.13" style="fill:none;stroke:#263238;stroke-linecap:round;stroke-linejoin:round"></path><path d="M236.55,39.79a10.65,10.65,0,0,0-4.27-.53c-12,1-10.54,16.06-16.06,20.07a5,5,0,0,1-4.53.88" style="fill:none;stroke:#263238;stroke-linecap:round;stroke-linejoin:round"></path><path d="M229.53,73.38h40.55s-1.63-6.8-6.91-10.57a27.17,27.17,0,0,0-11.83-4.48s-4-11.51-11.21-16.66" style="fill:none;stroke:#263238;stroke-linecap:round;stroke-linejoin:round"></path></g><g id="freepik--Windows--inject-30"><line x1="452.9" y1="153.58" x2="386.72" y2="219.75" style="fill:none;stroke:#263238;stroke-linecap:round;stroke-linejoin:round"></line><line x1="403.53" y1="216.84" x2="396.31" y2="224.06" style="fill:none;stroke:#263238;stroke-linecap:round;stroke-linejoin:round"></line><line x1="429.73" y1="190.64" x2="409.65" y2="210.72" style="fill:none;stroke:#263238;stroke-linecap:round;stroke-linejoin:round"></line><line x1="212.59" y1="178.15" x2="221.27" y2="169.46" style="fill:none;stroke:#263238;stroke-linecap:round;stroke-linejoin:round"></line><line x1="154.77" y1="235.97" x2="207.69" y2="183.04" style="fill:none;stroke:#263238;stroke-linecap:round;stroke-linejoin:round"></line><line x1="171.64" y1="210.49" x2="156.42" y2="225.71" style="fill:none;stroke:#263238;stroke-linecap:round;stroke-linejoin:round"></line><line x1="89.29" y1="272" x2="49.26" y2="312.04" style="fill:none;stroke:#263238;stroke-linecap:round;stroke-linejoin:round"></line><line x1="73.88" y1="299.32" x2="47.77" y2="325.43" style="fill:none;stroke:#263238;stroke-linecap:round;stroke-linejoin:round"></line><line x1="110.88" y1="262.32" x2="79.69" y2="293.51" style="fill:none;stroke:#263238;stroke-linecap:round;stroke-linejoin:round"></line><line x1="207.46" y1="432.91" x2="157.16" y2="483.2" style="fill:none;stroke:#263238;stroke-linecap:round;stroke-linejoin:round"></line><line x1="220.27" y1="420.09" x2="213.27" y2="427.1" style="fill:none;stroke:#263238;stroke-linecap:round;stroke-linejoin:round"></line><line x1="293.34" y1="74.23" x2="279.18" y2="88.39" style="fill:none;stroke:#263238;stroke-linecap:round;stroke-linejoin:round"></line><line x1="340.39" y1="27.18" x2="298.84" y2="68.73" style="fill:none;stroke:#263238;stroke-linecap:round;stroke-linejoin:round"></line><path d="M53.62,75.79c-20.37,21.39-29.14,77.82-27.9,141.66L220.58,22.59C153.53,31.64,80.37,47.7,53.62,75.79Z" style="fill:#263238"></path><path d="M463.3,428.91c14-23,16.49-92.06,12.47-165.37l-235.87,222C335.84,483.07,443.58,461.35,463.3,428.91Z" style="fill:#263238"></path><path d="M480,107.28v-8H373.51V13.94h-8V99.28H135.27V13.94h-8V99.28H23.4v8H127.27V389.8H23.4v8H127.27v92h8v-92H365.51v92h8v-92H480v-8H373.51V107.28ZM365.51,389.8H135.27V107.28H365.51Z" style="fill:#263238"></path><path d="M482.82,104.63v-8H373.51V11.29h-8V96.63H135.27V11.29h-8V96.63H21.74v8H127.27V387.16H21.74v8H127.27v97.23h8V395.16H365.51v97.23h8V395.16H482.82v-8H373.51V104.63ZM365.51,387.16H135.27V104.63H365.51Z" style="fill:#fff"></path><path d="M365.51,11.29V96.63H135.27V11.29M482.82,96.63H373.51V11.29M482.82,387.16H373.51V104.63H482.82M373.51,492.39V395.16H482.82M135.27,492.39V395.16H365.51v97.23M21.74,395.16H127.27v97.23M21.74,104.63H127.27V387.16H21.74M127.27,11.29V96.63H21.74M365.51,387.16H135.27V104.63H365.51Z" style="fill:none;stroke:#263238;stroke-miterlimit:10"></path></g><g id="freepik--Character--inject-30"><rect x="243.72" y="9.31" width="3" height="483.1" style="fill:#263238;stroke:#263238;stroke-linecap:round;stroke-linejoin:round"></rect><rect x="288.88" y="107.44" width="58.71" height="73.63" style="opacity:0.11"></rect><rect x="288.88" y="181.07" width="58.56" height="7.32" style="fill:#1D2FCF;stroke:#263238;stroke-linecap:round;stroke-linejoin:round"></rect><polygon points="310.99 183.88 315.91 191.34 318.31 191.34 323.51 183.74 310.99 183.88" style="fill:#263238;stroke:#263238;stroke-linecap:round;stroke-linejoin:round"></polygon><path d="M317.25,198.38h0a1.62,1.62,0,0,1-1.62-1.62V188.6a1.62,1.62,0,0,1,1.62-1.62h0a1.62,1.62,0,0,1,1.62,1.62v8.16A1.62,1.62,0,0,1,317.25,198.38Z" style="fill:#263238;stroke:#263238;stroke-linecap:round;stroke-linejoin:round"></path><path d="M314.36,208.52s-1.54-5.21-3.09-6.62-.28-5.35.28-6.33a12,12,0,0,0,.84-4.79c-.14-.84.28-1.27,1.41-.84s1.27,2,1.27,3.09v2.26s2.81-2.82,3.24-3.1,1.69-4.08,2.81-4.08,1.83,1,1.69,2.39-.14,3-.14,3,2.67,2.53,3.1,3.66.14,4.08.28,5.06-1.55,3.24-2.39,5.07S317.32,206.27,314.36,208.52Z" style="fill:#fff;stroke:#263238;stroke-linecap:round;stroke-linejoin:round"></path><path d="M309.72,227.81s4.22-13.66,4.64-15.77,0-5.63,1.41-6.62,5.77-1.12,7.18.71,1.27,9.43,1.55,17.17.14,12.67-1.55,16.33-2.95,7-3.8,8-3.38,1.12-3.94.84-3.8-14.08-4.65-16.05A14,14,0,0,1,309.72,227.81Z" style="fill:#d9d9d9;stroke:#263238;stroke-linecap:round;stroke-linejoin:round"></path><path d="M283.61,186.58s.77,1.83,1.53,2.13,1.37,1.53.15,2.9L284.07,193,281,186.43Z" style="fill:#fff;stroke:#263238;stroke-linecap:round;stroke-linejoin:round"></path><path d="M282.7,184.6a20.92,20.92,0,0,0,.91,4.87c.61,1.22,1,8.59.5,12.55s-1.06,4.27-2.43,4.73-3.32,1.31-3.32,1.31l-2.82,5.09s-7.94-3.16-13.88-3.47a38.81,38.81,0,0,1-10.36-1.92l4.23-7.51-.27-4.07S271.42,184.29,282.7,184.6Z" style="fill:#fff;stroke:#263238;stroke-linecap:round;stroke-linejoin:round"></path><path d="M253,191.91s.5-.69-.4,2.56c-.62,2.25,1.07,9.07,1.07,9.07s10.18,1.76,12,1.61a40.8,40.8,0,0,0,5.18-1.07s2.87-5.31,3.93-7.59,2.14-4.27,2.14-4.27.76,2.28,1.67,1.83.77-.77.77-2.14.3-3.5.3-4,.61-.3-3.81.91S257.09,192.22,253,191.91Z" style="fill:#263238;stroke:#263238;stroke-linecap:round;stroke-linejoin:round"></path><path d="M283.61,186.58s7.93-3.51,9.15-4.73-1.07-4.57-4.73-5.79-7.62.46-7.62.46Z" style="fill:#fff;stroke:#263238;stroke-linecap:round;stroke-linejoin:round"></path><path d="M258.31,170.73s-5.79,2.74-7.31,7.92,1.22,13.72,1.52,14.63,7.47,2,14.18.92,16.91-7.62,16.91-7.62-.61-7.47-4.26-12.35S265.48,167.07,258.31,170.73Z" style="fill:#fff;stroke:#263238;stroke-linecap:round;stroke-linejoin:round"></path><path d="M256.18,191.91a25.68,25.68,0,0,0,6.25,0s-2.14-2.44-3.66-2.59A2.33,2.33,0,0,0,256.18,191.91Z" style="fill:#263238;stroke:#263238;stroke-linecap:round;stroke-linejoin:round"></path><path d="M278.43,195.27s.76-3.66-1.52-3.05-1.65,5.16-1.31,7.84,1.69,2.21,2.72.5" style="fill:#fff;stroke:#263238;stroke-linecap:round;stroke-linejoin:round"></path><path d="M263.27,437.5a15.9,15.9,0,0,0,2.81,1.41,23.65,23.65,0,0,0,9.09,1.66c7.19-.12,10.14-4.6,12-5.54s4.9-2.46,4.87-3.59-2.63-2.07-6.88-1.24a28,28,0,0,0-10.73,4.71c-2.82,2-5.18,3.42-7.19,3.07A39,39,0,0,0,263.27,437.5Z" style="fill:#263238;stroke:#263238;stroke-linecap:round;stroke-linejoin:round"></path><path d="M269,428.07a15.93,15.93,0,0,1-2.58,2.58c-.6.2-3.58.2-4.37,2.78s2.58,5.76,5.76,6,6.36-2.78,9.73-5.56,8.35-3,10.33-3,3.18,2.58,4.18.59-.6-6.55-1.39-9.34S273.39,421.11,269,428.07Z" style="fill:#fff;stroke:#263238;stroke-linecap:round;stroke-linejoin:round"></path><path d="M267.83,439.39c3.18.2,6.36-2.78,9.73-5.56s8.35-3,10.33-3,3.18,2.58,4.18.59a4.17,4.17,0,0,0,.31-1.93c-1.77-1.42-5-2.25-9.07-1.2-5.54,1.41-8.85,6.95-13.68,9.31s-7.56-4.19-7.56-4.19C261.27,436,264.65,439.19,267.83,439.39Z" style="fill:#fff;stroke:#263238;stroke-linecap:round;stroke-linejoin:round"></path><path d="M182.39,398.66a31.12,31.12,0,0,1-5.3-3.24c-1.77-1.53-5-3.07-6.48-1.77s-2.24,3.65.23,10.14,8.61,15.32,10.73,18.15,5.3,5.07,7.78,4.95a6.61,6.61,0,0,0,5.07-2.82c.59-1.07,1.89-4.25,1.89-4.25s-11.09-7.54-12.27-12.26A78.58,78.58,0,0,1,182.39,398.66Z" style="fill:#fff;stroke:#263238;stroke-linecap:round;stroke-linejoin:round"></path><path d="M192.77,425.71a10.25,10.25,0,0,1-3.66-.58c-2-.95-8.13-7.08-13.91-16.27a32.79,32.79,0,0,1-5.13-14.66c-1.12,1.41-1.39,3.92.77,9.59,2.48,6.48,8.61,15.32,10.73,18.15s5.3,5.07,7.78,4.95A6.66,6.66,0,0,0,192.77,425.71Z" style="fill:#fff;stroke:#263238;stroke-linecap:round;stroke-linejoin:round"></path><path d="M182.6,254.55s-.4,61.05,3,72.27,15.46,5.93,21.18-9.74" style="fill:none;stroke:#263238;stroke-linecap:round;stroke-linejoin:round"></path><circle cx="179.78" cy="245.68" r="12.25" transform="translate(-116.22 316.84) rotate(-67.32)" style="fill:#263238;stroke:#263238;stroke-linecap:round;stroke-linejoin:round"></circle><path d="M190.76,246.67s-.56-2.67-1.27-3.1-2.39-.42-3.52-1.12-3.66-3.24-5.06-3.24a2.38,2.38,0,0,0-2.68,2.11,5.5,5.5,0,0,1-1,2.39s-2.26,2.54-2.26,4.23a32.45,32.45,0,0,0,.71,5.77,3.5,3.5,0,0,0,2.67,2.81c2,.71,6.34-.42,6.34-.42s0-5.35,1.83-6.61S190.76,246.67,190.76,246.67Z" style="fill:#fff;stroke:#263238;stroke-linecap:round;stroke-linejoin:round"></path><line x1="231.76" y1="259.94" x2="212.36" y2="307.41" style="fill:#fff;stroke:#263238;stroke-linecap:round;stroke-linejoin:round;stroke-width:3px"></line><line x1="287.22" y1="273.18" x2="301.14" y2="307.41" style="fill:none;stroke:#263238;stroke-linecap:round;stroke-linejoin:round;stroke-width:3px"></line><path d="M209.77,243.85s-9.16,1.41-13.38,1.69-7,.57-8,.14-4.79,1.41-5.77,3.52-1,4,0,5.35,2,2.54,5.77,3.52S202,262,205.4,262s8.73-.42,9.71-.28a3.11,3.11,0,0,0,3.24-1.83c1-1.69,2.82-4.36,2.82-4.36S210.61,246.67,209.77,243.85Z" style="fill:#d9d9d9;stroke:#263238;stroke-linecap:round;stroke-linejoin:round"></path><path d="M228.49,293.16s-4,6-4.57,7.95-1.19,3.77-1.19,3.77l-2.59,3.18s-9.66,22.55-11.44,29.9-8.62,32.49-9.62,36.86-8.34,16.69-9.53,17.68-3.38,2-4.57,3a9.08,9.08,0,0,0-2.59,3.18c-.39,1-1.19,3.38-1.19,3.38s-.6,5.76,2.38,10.33,11.33,9.34,12.32,8.94a13.76,13.76,0,0,0,4.37-4.57c1-1.79,1.2-6.16,1.2-6.16s.39-.2,2.18-3,9.74-14.11,13.12-19.87,10.57-16,13.22-23.38A122.75,122.75,0,0,0,235.24,342s13.71-9.33,16.1-10.92a33.77,33.77,0,0,1,5.36-2.78s1.19,11.92,1.39,15.1,9.34,31,10.13,35.36,1.59,29.41,1.59,29.41l-.19,11.92s-2,.4-2,2a33.56,33.56,0,0,0,1.39,6s7.15-5,12.12-6.16a20.17,20.17,0,0,1,9.54.19s1-1.19.59-5-2-9.34-2-10.33V401s2.78-19.27,2-26.62-4.77-27.82-5.16-30.6,6-17.68,6-17.68-1-19.87-2.59-24.24-.59-3.58-.59-3.58-14.11-7.55-23.84-8.74-24.24,0-28,.4S228.49,293.16,228.49,293.16Z" style="fill:#828282;stroke:#263238;stroke-linecap:round;stroke-linejoin:round"></path><path d="M208.7,338c-.45,1.83-1.2,4.75-2.1,8.18,4.42,1.86,13.31,4.84,26.81,6A96.69,96.69,0,0,0,235.24,342s13.71-9.33,16.1-10.92a33.77,33.77,0,0,1,5.36-2.78s1.19,11.92,1.39,15.1a66.64,66.64,0,0,0,2.08,8.05c7.35-1,13.08-2.05,21.4-1.22,2.17.22,4.09.43,5.79.64-.63-3.49-1.13-6.19-1.25-7.08-.4-2.78,6-17.68,6-17.68s-.16-3.1-.44-7.11l-76.5,1.12C212.48,326.73,209.6,334.27,208.7,338Z" style="fill:#263238;stroke:#263238;stroke-linecap:round;stroke-linejoin:round"></path><path d="M230.27,286.14l-1.78,7s22.25-2.39,31.59-1.79,28.81,6.95,28.81,6.95L287,290.41S251.12,277.34,230.27,286.14Z" style="fill:#263238;stroke:#263238;stroke-linecap:round;stroke-linejoin:round"></path><path d="M278.43,213.6a35.73,35.73,0,0,0-11.82-4.31c-7.22-1.13-12.44-1.95-14.09-1.49-2,.58-6.86,1.53-12.65,3.2s-10.21.77-12.65,2.9-14.94,23.17-16.31,24.23a56.7,56.7,0,0,0-4.11,4s1.37,6.86,5,10.36a54.35,54.35,0,0,0,9.9,6.86l9-9-.77,23s-1.06,3.36-1.83,6,1.38,6.09,2.14,6.85,12.07-2.1,31.7-.25c18.29,1.73,23.32,5.59,25,4.52a11.35,11.35,0,0,0,3.81-5.79c.15-1.37,1.06-12.19,1.06-12.19l5-25.46s8.23,6.1,10.22,6.56,4.26,1.22,6.09.3,3.81-3.35,4.42-9.75-2.44-12.8-4.57-14.33-6.1-5-6.1-5-7.16-7.77-10.67-9.6S278.43,213.6,278.43,213.6Z" style="fill:#1D2FCF;stroke:#263238;stroke-linecap:round;stroke-linejoin:round"></path><polyline points="228.88 234.35 230.73 250.33 226.3 237.53" style="fill:none;stroke:#263238;stroke-linecap:round;stroke-linejoin:round"></polyline><polyline points="298.82 235.94 296.87 246.97 301.8 238.12" style="fill:none;stroke:#263238;stroke-linecap:round;stroke-linejoin:round"></polyline><path d="M236.55,211.06s20.58,41.16,22.84,42.11,4,.75,4.34.18,29.08-39.46,29.08-39.46l-14.38-.29-16.58,16.34L250.71,208Z" style="fill:#263238;stroke:#263238;stroke-linecap:round;stroke-linejoin:round"></path><polygon points="255.67 252.38 235.75 286.06 244.44 284.98 260.74 254.19 255.67 252.38" style="fill:#263238;stroke:#263238;stroke-linecap:round;stroke-linejoin:round"></polygon><polygon points="258.92 254.55 271.61 287.38 278.83 288.67 265.33 254.43 258.92 254.55" style="fill:#263238;stroke:#263238;stroke-linecap:round;stroke-linejoin:round"></polygon><path d="M259.39,243.16s-5.66,7.74-5.28,9.25.94,2.27,2.07,2.64,6.85.28,7.91.44c2.23.34,4-1.8,3.23-3.46-.45-1-4-7-4.72-8.49S260.52,240.7,259.39,243.16Z" style="fill:#828282;stroke:#263238;stroke-linecap:round;stroke-linejoin:round"></path><path d="M261.93,306.47a78.18,78.18,0,0,1-13.27-1.23c-12.41-2.14-20.77-6.41-24.86-12.69a14.53,14.53,0,0,1-2.34-10.85,2.5,2.5,0,0,1,4.85,1.2,9.67,9.67,0,0,0,1.76,7.05c2.3,3.44,7.89,8,21.44,10.36,20.52,3.54,33.78-.87,40.53-13.47a2.5,2.5,0,0,1,4.41,2.36C288.3,300.69,277.38,306.47,261.93,306.47Z" style="fill:#a6a6a6;stroke:#263238;stroke-linecap:round;stroke-linejoin:round"></path><polygon points="304.59 306.14 200.34 337.82 200.38 336.17 209.26 304.64 304.17 304.64 304.59 306.14" style="fill:#fff;stroke:#263238;stroke-linecap:round;stroke-linejoin:round"></polygon><polygon points="295.71 337.66 200.81 337.66 209.69 306.14 304.59 306.14 295.71 337.66" style="fill:#d4d4d4;stroke:#263238;stroke-linecap:round;stroke-linejoin:round"></polygon><path d="M310.69,329.49c-10.93,1.68-19,8.06-18.06,14.24l6.48,34.57,37.32-5.75-4.24-34.91C331.24,331.45,321.61,327.8,310.69,329.49Z" style="fill:#1D2FCF;stroke:#263238;stroke-linecap:round;stroke-linejoin:round"></path><path d="M336.43,372.55c.9,5.84-6.73,11.85-17,13.44s-19.39-1.85-20.29-7.69,6.72-11.85,17-13.44S335.53,366.72,336.43,372.55Z" style="fill:#1D2FCF;stroke:#263238;stroke-linecap:round;stroke-linejoin:round"></path><path d="M304.35,307.24c5.15,1.73,19.26,8.28,20.64,28.49" style="fill:none;stroke:#263238;stroke-linecap:round;stroke-linejoin:round"></path><path d="M327.86,336.48a2.17,2.17,0,1,1-2.81-1.9A2.44,2.44,0,0,1,327.86,336.48Z" style="fill:#263238"></path></g></svg>
